<svg width="88" height="72" viewBox="0 0 88 72" fill="none" xmlns="http://www.w3.org/2000/svg">
<path d="M1.90625 29.5373C1.90625 29.4318 1.93951 29.3401 2.00325 29.2623C2.067 29.1873 2.164 29.1484 2.29426 29.1484H4.88282C4.97151 29.1484 5.06574 29.1845 5.16551 29.254C5.26528 29.3234 5.31517 29.4179 5.31517 29.5373V41.8734C5.31517 42.1318 5.17105 42.2623 4.88282 42.2623H2.29426C2.03651 42.2623 1.90625 42.1318 1.90625 41.8734V29.5373Z" fill="#00364E"/>
<path d="M7.14132 31.2101C7.21615 31.1462 7.2993 31.1045 7.38244 31.0878C7.46836 31.0712 7.54873 31.0628 7.62356 31.0628H8.95387C9.05919 31.0628 9.15065 31.0823 9.22825 31.1212C9.30585 31.1601 9.36959 31.2101 9.42225 31.2767C9.47491 31.3406 9.51648 31.4156 9.54974 31.4962C9.58023 31.5795 9.61348 31.6628 9.6412 31.7517L9.82689 32.5267C9.91557 32.3434 10.0569 32.1573 10.2537 31.9628C10.4505 31.7684 10.6944 31.5934 10.9854 31.4351C11.2764 31.2767 11.6117 31.1462 11.9942 31.0434C12.3766 30.9406 12.8007 30.8906 13.2718 30.8906C13.9425 30.8906 14.5384 31.0212 15.065 31.2795C15.5916 31.5378 16.0378 31.8906 16.4036 32.3351C16.7694 32.7823 17.0494 33.3017 17.2406 33.899C17.4318 34.4962 17.5261 35.1323 17.5261 35.8101V41.5934C17.5261 41.8184 17.4789 41.9851 17.3819 42.1017C17.2849 42.2156 17.1297 42.274 16.9191 42.274H14.8848C14.6326 42.274 14.458 42.2323 14.3638 42.1462C14.2696 42.0601 14.2225 41.8934 14.2225 41.6462V35.899C14.2225 35.6462 14.1643 35.4045 14.0506 35.1795C13.937 34.9517 13.7846 34.7545 13.5961 34.5795C13.4076 34.4073 13.1942 34.2684 12.9587 34.1684C12.7203 34.0684 12.4792 34.0184 12.2325 34.0184C12.0219 34.0184 11.8057 34.0656 11.584 34.1601C11.3651 34.2545 11.16 34.3851 10.9771 34.5545C10.7914 34.7212 10.6362 34.9184 10.5114 35.1462C10.3867 35.374 10.3147 35.6184 10.2953 35.8851V41.624C10.2953 41.724 10.2759 41.824 10.2371 41.924C10.1983 42.024 10.1428 42.099 10.0652 42.1545C9.9904 42.2017 9.91557 42.2351 9.84906 42.2517C9.78254 42.2684 9.70217 42.2767 9.61625 42.2767H7.62633C7.37413 42.2767 7.19121 42.2156 7.08035 42.0906C6.96949 41.9684 6.91406 41.8017 6.91406 41.5962V31.7212C6.91406 31.6101 6.939 31.5073 6.98889 31.4128C7.03878 31.3184 7.10807 31.2462 7.19675 31.1934L7.1441 31.2184L7.14132 31.2101Z" fill="#00364E"/>
<path d="M19.8224 31.2071C19.8224 30.6599 19.9388 30.146 20.1744 29.6627C20.41 29.1793 20.7232 28.7571 21.1167 28.396C21.5103 28.0349 21.962 27.7488 22.4747 27.5405C22.9847 27.3321 23.5196 27.2266 24.0767 27.2266H24.254C24.4536 27.2266 24.6088 27.2877 24.7169 27.4071C24.825 27.5266 24.8804 27.6932 24.8804 27.9071V29.5932C24.8804 29.8127 24.8222 29.9932 24.7085 30.1377C24.5949 30.2821 24.4425 30.3543 24.254 30.3543H24.0767C23.9547 30.3543 23.8355 30.3766 23.7247 30.421C23.6138 30.4655 23.514 30.5266 23.4254 30.6016C23.3367 30.6793 23.2674 30.7682 23.2147 30.871C23.1621 30.9738 23.1371 31.0877 23.1371 31.2099V32.2266H24.5201C24.7196 32.2266 24.8748 32.2821 24.9829 32.3905C25.091 32.4988 25.1464 32.671 25.1464 32.9071V34.5238C25.1464 34.7766 25.091 34.9627 24.9829 35.0793C24.8748 35.196 24.7196 35.2571 24.5201 35.2571H23.1371V41.5877C23.1371 41.8127 23.0623 41.9793 22.9126 42.096C22.763 42.2099 22.5995 42.2682 22.4248 42.2682H20.5208C20.3102 42.2682 20.1412 42.2016 20.0137 42.0682C19.8862 41.9349 19.8252 41.7766 19.8252 41.5877V35.2543H18.9189C18.7138 35.2543 18.5476 35.196 18.4228 35.0793C18.2953 34.9627 18.2344 34.7766 18.2344 34.5238V32.9071C18.2344 32.671 18.2981 32.4988 18.4228 32.3905C18.5476 32.2821 18.7138 32.2266 18.9189 32.2266H19.8252V31.2099L19.8224 31.2071Z" fill="#00364E"/>
<path d="M25.7422 27.2665C25.7422 27.0193 25.7948 26.8443 25.9002 26.7415C26.0055 26.6387 26.1718 26.5859 26.3935 26.5859H28.4361C28.6412 26.5859 28.8074 26.6387 28.9349 26.7415C29.0624 26.8443 29.1234 27.0193 29.1234 27.2665V28.9887C29.1234 29.0582 29.1068 29.1359 29.0763 29.2193C29.043 29.3026 28.9987 29.3804 28.9405 29.4582C28.8823 29.5332 28.8102 29.597 28.7243 29.647C28.6384 29.697 28.5442 29.722 28.4388 29.722H26.3963C25.9611 29.722 25.745 29.4776 25.745 28.9887V27.2665H25.7422ZM25.7422 31.7359C25.7422 31.547 25.7948 31.3859 25.9002 31.2498C26.0055 31.1137 26.1718 31.047 26.3935 31.047H28.4111C28.4804 31.047 28.558 31.0637 28.6412 31.0943C28.7243 31.1276 28.7991 31.1748 28.8712 31.2359C28.9405 31.297 29.0014 31.3693 29.0513 31.4526C29.1012 31.5359 29.1262 31.6276 29.1262 31.7359V41.5804C29.1262 41.8054 29.0652 41.9748 28.9405 42.0887C28.8158 42.2026 28.6412 42.2609 28.4111 42.2609H26.3935C25.9584 42.2609 25.7422 42.0359 25.7422 41.5804V31.7359Z" fill="#00364E"/>
<path d="M30.3578 31.2101C30.4354 31.1462 30.5158 31.1045 30.5989 31.0878C30.6848 31.0712 30.7652 31.0628 30.8428 31.0628H32.1731C32.2784 31.0628 32.3699 31.0823 32.4447 31.1212C32.5223 31.1601 32.5861 31.2101 32.6387 31.2767C32.6914 31.3406 32.733 31.4156 32.7662 31.4962C32.7995 31.5795 32.83 31.6628 32.8577 31.7517L33.0434 32.5267C33.1321 32.3434 33.2734 32.1573 33.4702 31.9628C33.667 31.7684 33.9108 31.5934 34.2018 31.4351C34.4929 31.2767 34.8282 31.1462 35.2107 31.0434C35.5931 30.9406 36.0172 30.8906 36.4883 30.8906C37.159 30.8906 37.7549 31.0212 38.2815 31.2795C38.808 31.5378 39.2543 31.8906 39.6201 32.3351C39.9887 32.7823 40.2658 33.3017 40.4571 33.899C40.6483 34.4962 40.7425 35.1323 40.7425 35.8101V41.5934C40.7425 41.8184 40.6927 41.9851 40.5984 42.1017C40.5014 42.2156 40.3462 42.274 40.1356 42.274H38.1013C37.8491 42.274 37.6745 42.2323 37.5803 42.1462C37.4861 42.0601 37.4389 41.8934 37.4389 41.6462V35.899C37.4389 35.6462 37.3807 35.4045 37.2671 35.1795C37.1535 34.9517 37.001 34.7545 36.8126 34.5795C36.6241 34.4073 36.4107 34.2684 36.1724 34.1684C35.934 34.0684 35.6929 34.0184 35.4462 34.0184C35.2356 34.0184 35.0194 34.0656 34.7977 34.1601C34.5788 34.2545 34.3737 34.3851 34.1908 34.5545C34.0051 34.7212 33.8499 34.9184 33.7224 35.1462C33.5949 35.374 33.5228 35.6184 33.5062 35.8851V41.624C33.5062 41.724 33.4868 41.824 33.448 41.924C33.4092 42.024 33.3538 42.099 33.2762 42.1545C33.1986 42.2017 33.1265 42.2351 33.06 42.2517C32.9935 42.2684 32.9131 42.2767 32.8272 42.2767H30.8373C30.5851 42.2767 30.4021 42.2156 30.2913 42.0906C30.1804 41.9684 30.125 41.8017 30.125 41.5962V31.7212C30.125 31.6101 30.1499 31.5073 30.1998 31.4128C30.2497 31.3184 30.319 31.2462 30.4077 31.1934L30.355 31.2184L30.3578 31.2101Z" fill="#00364E"/>
<path d="M41.9688 27.2665C41.9688 27.0193 42.0214 26.8443 42.1267 26.7415C42.232 26.6387 42.3956 26.5859 42.62 26.5859H44.6654C44.8705 26.5859 45.0368 26.6387 45.1643 26.7415C45.289 26.8443 45.3527 27.0193 45.3527 27.2665V28.9887C45.3527 29.0582 45.3361 29.1359 45.3056 29.2193C45.2724 29.3026 45.228 29.3804 45.1698 29.4582C45.1116 29.5332 45.0395 29.597 44.9536 29.647C44.8677 29.697 44.7735 29.722 44.6682 29.722H42.6228C42.1877 29.722 41.9715 29.4776 41.9715 28.9887V27.2665H41.9688ZM41.9688 31.7359C41.9688 31.547 42.0214 31.3859 42.1267 31.2498C42.232 31.1137 42.3956 31.047 42.62 31.047H44.6377C44.707 31.047 44.7846 31.0637 44.8677 31.0943C44.9509 31.1276 45.0257 31.1748 45.0977 31.2359C45.167 31.297 45.228 31.3693 45.2779 31.4526C45.3278 31.5359 45.3527 31.6276 45.3527 31.7359V41.5804C45.3527 41.8054 45.2918 41.9748 45.167 42.0887C45.0423 42.2026 44.8677 42.2609 44.6377 42.2609H42.62C42.1849 42.2609 41.9688 42.0359 41.9688 41.5804V31.7359Z" fill="#00364E"/>
<path d="M47.492 29.2997C47.492 29.1163 47.553 28.9802 47.6722 28.8885C47.7914 28.7969 47.9632 28.7108 48.1877 28.6274L50.1887 27.9302C50.2164 27.9247 50.2469 27.9219 50.2718 27.9219H50.3467C50.5628 27.9219 50.7097 27.9858 50.7818 28.1108C50.8538 28.2385 50.8926 28.4052 50.8926 28.6108L50.8843 31.0385H52.0927C52.2812 31.0385 52.4336 31.0941 52.55 31.2052C52.6664 31.3163 52.7246 31.4858 52.7246 31.708V33.4108C52.7246 33.658 52.6664 33.8385 52.55 33.9552C52.4308 34.0691 52.2784 34.1274 52.0927 34.1274H50.8843L50.8926 41.5802C50.8926 41.8052 50.8289 41.9747 50.6986 42.0885C50.5684 42.2024 50.391 42.2608 50.161 42.2608H48.171C47.7193 42.2608 47.492 42.0358 47.492 41.5802L47.4837 34.1274H46.5774C46.1257 34.1274 45.8984 33.8885 45.8984 33.4135V31.7108C45.8984 31.2635 46.1257 31.0385 46.5774 31.0385H47.4837L47.492 29.2997Z" fill="#00364E"/>
<path d="M1.91406 46.6701C1.91406 46.5646 1.95009 46.4729 2.01938 46.3951C2.08866 46.3201 2.18567 46.2812 2.31038 46.2812H4.91835C5.01812 46.2812 5.10958 46.3174 5.19272 46.3868C5.27587 46.4563 5.31744 46.5507 5.32575 46.6701V56.2757H10.1703C10.2756 56.2757 10.3671 56.3118 10.4447 56.3813C10.5223 56.4507 10.5583 56.5479 10.5583 56.6729V58.9951C10.5583 59.0951 10.525 59.1868 10.4558 59.2701C10.3892 59.3535 10.2922 59.3979 10.1703 59.4035H2.30484C2.04709 59.4035 1.91683 59.2729 1.91683 59.0146V46.6701H1.91406Z" fill="#348BCB"/>
<path d="M20.7407 58.0628C20.2225 58.5406 19.6432 58.9128 18.9975 59.1795C18.3517 59.4462 17.6672 59.5823 16.9438 59.5823C16.1373 59.5823 15.3779 59.4351 14.6629 59.1406C13.9451 58.8462 13.3187 58.4378 12.7783 57.9184C12.2378 57.399 11.8083 56.7851 11.4923 56.0767C11.1736 55.3712 11.0156 54.6017 11.0156 53.7712C11.0156 53.2517 11.0794 52.7517 11.2041 52.2656C11.3288 51.7795 11.5089 51.3267 11.7418 50.9017C11.9746 50.4767 12.2545 50.0878 12.5871 49.7323C12.9196 49.3767 13.291 49.0712 13.7012 48.8184C14.1114 48.5656 14.5576 48.3684 15.0398 48.2267C15.5193 48.0851 16.0292 48.0156 16.5641 48.0156C17.0519 48.0156 17.5231 48.0795 17.9831 48.2101C18.4404 48.3406 18.8728 48.5212 19.2746 48.7573C19.6765 48.9934 20.0451 49.274 20.3805 49.6045C20.7158 49.9351 21.004 50.2934 21.2424 50.6878C21.4835 51.0795 21.6692 51.4962 21.8022 51.9406C21.9325 52.3851 22.0018 52.8434 22.0018 53.3128C22.0018 53.6184 21.9962 53.8684 21.9879 54.0628C21.9796 54.2573 21.9353 54.4128 21.8521 54.5267C21.769 54.6406 21.6332 54.7212 21.4419 54.7656C21.2507 54.8101 20.9708 54.8323 20.6022 54.8323H14.261C14.3192 55.2101 14.4384 55.524 14.6185 55.7767C14.7987 56.0295 15.0038 56.2323 15.2394 56.3823C15.4749 56.5323 15.7244 56.6406 15.9877 56.7045C16.2509 56.7684 16.5004 56.8017 16.736 56.8017C16.9466 56.8017 17.1655 56.7795 17.3873 56.7351C17.609 56.6906 17.8251 56.6323 18.0358 56.5573C18.2436 56.4851 18.4349 56.399 18.6095 56.3017C18.7841 56.2045 18.9227 56.1017 19.028 55.9962C19.1222 55.9184 19.2026 55.8629 19.2691 55.824C19.3356 55.7851 19.4104 55.7656 19.4853 55.7656C19.5601 55.7656 19.6405 55.7906 19.7181 55.8462C19.7957 55.899 19.8871 55.9767 19.9869 56.0767L20.9209 57.1351C20.9846 57.2129 21.0262 57.2823 21.0428 57.3434C21.0595 57.4045 21.0706 57.4684 21.0706 57.5323C21.0706 57.649 21.0373 57.7517 20.9735 57.8379C20.9098 57.924 20.8322 57.999 20.7463 58.0628H20.7407ZM16.5032 50.7073C16.2731 50.7073 16.0514 50.7545 15.838 50.8434C15.6246 50.9351 15.4223 51.0573 15.2338 51.2101C15.0454 51.3628 14.8763 51.5378 14.7266 51.7295C14.577 51.924 14.455 52.1212 14.3608 52.3212H18.8617C18.737 52.0934 18.6039 51.8795 18.4598 51.6851C18.3157 51.4906 18.1522 51.3212 17.9665 51.174C17.7808 51.0267 17.5702 50.9128 17.3318 50.8295C17.0935 50.7462 16.8163 50.7045 16.5004 50.7045L16.5032 50.7073Z" fill="#348BCB"/>
<path d="M34.4703 58.7439C34.4703 58.8439 34.4537 58.9384 34.4176 59.03C34.3816 59.1217 34.3234 59.1939 34.2403 59.2467C34.1765 59.3106 34.0989 59.3523 34.0102 59.3689C33.9215 59.3856 33.8467 59.3939 33.7802 59.3939H32.0453C31.9233 59.3939 31.8208 59.3773 31.7459 59.3467C31.6683 59.3134 31.6074 59.2689 31.5602 59.2106C31.5131 59.1523 31.4743 59.08 31.4411 58.9939C31.4106 58.9078 31.3746 58.8162 31.3413 58.7162L31.2277 58.3189C31.0697 58.4773 30.8895 58.6328 30.6872 58.7856C30.4849 58.9384 30.2604 59.0745 30.0193 59.1967C29.7754 59.3161 29.5149 59.4162 29.235 59.4884C28.9551 59.5606 28.6668 59.5995 28.3675 59.5995C27.8326 59.5995 27.3199 59.5328 26.8293 59.3967C26.3388 59.2606 25.8815 59.0689 25.4547 58.8189C25.0279 58.5689 24.6426 58.2689 24.2962 57.9189C23.9498 57.5689 23.6504 57.1773 23.4038 56.7495C23.1544 56.3189 22.9603 55.855 22.8273 55.3578C22.6915 54.8606 22.625 54.3411 22.625 53.7995C22.625 52.98 22.7747 52.2217 23.074 51.5161C23.3733 50.8134 23.7807 50.2023 24.299 49.68C24.8172 49.1606 25.4242 48.7495 26.1226 48.4523C26.821 48.155 27.5693 48.0078 28.3703 48.0078C28.7333 48.0078 29.0742 48.0495 29.3874 48.13C29.7006 48.2134 29.9888 48.3245 30.2521 48.4661C30.5126 48.6078 30.7482 48.7773 30.9616 48.9745C31.175 49.1717 31.3579 49.3856 31.5159 49.6134L31.7709 48.8106C31.8291 48.6634 31.879 48.5439 31.9178 48.4523C31.9566 48.3606 31.9981 48.2939 32.0425 48.2495C32.0868 48.205 32.1395 48.1773 32.206 48.1606C32.2697 48.1467 32.3612 48.1384 32.4776 48.1384H33.7885C33.855 48.1384 33.9299 48.1467 34.0185 48.1634C34.1072 48.18 34.1821 48.2217 34.2486 48.2884C34.3317 48.3523 34.3899 48.4273 34.426 48.5106C34.462 48.5939 34.4786 48.6856 34.4786 48.7911V58.7411L34.4703 58.7439ZM25.7928 53.7995C25.7928 54.1884 25.8538 54.5523 25.9729 54.8911C26.0921 55.23 26.264 55.5217 26.4884 55.7689C26.7129 56.0161 26.9818 56.2134 27.2949 56.3578C27.6081 56.5023 27.9573 56.5745 28.3398 56.5745C28.7223 56.5745 29.0992 56.5023 29.4373 56.3578C29.7754 56.2134 30.0692 56.0189 30.3186 55.7689C30.5681 55.5217 30.7621 55.23 30.9034 54.8911C31.0448 54.5523 31.114 54.1884 31.114 53.7995C31.114 53.4106 31.0448 53.0634 30.9034 52.7217C30.7621 52.38 30.5681 52.08 30.3186 51.8217C30.0692 51.5634 29.7754 51.3578 29.4373 51.2078C29.0992 51.0578 28.7333 50.9828 28.3398 50.9828C27.9462 50.9828 27.6109 51.0578 27.2949 51.2078C26.9818 51.3578 26.7129 51.5634 26.4884 51.8217C26.2667 52.08 26.0949 52.3828 25.9729 52.7217C25.8538 53.0634 25.7928 53.4217 25.7928 53.7995Z" fill="#348BCB"/>
<path d="M35.7109 48.8434C35.7109 48.7323 35.7303 48.6351 35.7719 48.5517C35.8135 48.4684 35.8661 48.4017 35.9354 48.349C36.0019 48.2962 36.0795 48.2573 36.1655 48.2295C36.2514 48.2045 36.3345 48.1906 36.4177 48.1906H37.748C37.8949 48.1906 38.0113 48.2351 38.1 48.324C38.1886 48.4128 38.2635 48.524 38.3244 48.6601C38.3854 48.7962 38.4408 48.9462 38.488 49.1101C38.5351 49.274 38.5905 49.4351 38.6543 49.5878C38.8316 49.3934 39.0062 49.2017 39.1781 49.0128C39.3499 48.824 39.5383 48.6573 39.7379 48.5101C39.9374 48.3628 40.1564 48.2434 40.3947 48.1517C40.6331 48.0601 40.9047 48.0156 41.2096 48.0156C41.5144 48.0156 41.811 48.0406 42.0604 48.0851C42.3098 48.1323 42.5454 48.2017 42.7699 48.2934C42.9944 48.3851 43.2161 48.5017 43.4351 48.6434C43.654 48.7851 43.8951 48.949 44.1529 49.1378C44.4051 49.2851 44.5326 49.4573 44.5326 49.6573C44.5326 49.7878 44.4827 49.9378 44.3829 50.1073L43.5819 51.4767C43.424 51.7073 43.2272 51.8212 42.9916 51.8212C42.8752 51.8212 42.7422 51.7878 42.5953 51.724C42.3431 51.4767 42.0853 51.2934 41.8248 51.1712C41.5643 51.0517 41.265 50.9906 40.9296 50.9906C40.6996 50.9906 40.5001 51.024 40.3255 51.0878C40.1536 51.1517 39.9956 51.2434 39.8543 51.3601C39.713 51.4795 39.5827 51.6184 39.458 51.7851C39.336 51.949 39.2113 52.1323 39.0894 52.3323V58.724C39.0894 58.949 39.0339 59.1156 38.9259 59.2323C38.8178 59.3462 38.6376 59.4045 38.3854 59.4045H36.4038C35.9465 59.4045 35.7165 59.1795 35.7165 58.724V48.8434H35.7109Z" fill="#348BCB"/>
<path d="M45.2016 48.3457C45.2792 48.2818 45.3595 48.2401 45.4427 48.2234C45.5286 48.2068 45.609 48.1984 45.6838 48.1984H47.0141C47.1194 48.1984 47.2109 48.2179 47.2857 48.2568C47.3633 48.2957 47.4271 48.3457 47.4797 48.4123C47.5324 48.4762 47.5739 48.5512 47.6072 48.6318C47.6405 48.7151 47.6709 48.7984 47.6987 48.8873L47.8843 49.6623C47.973 49.479 48.1144 49.2929 48.3112 49.0984C48.5079 48.904 48.7518 48.729 49.0428 48.5707C49.3338 48.4123 49.6692 48.2818 50.0516 48.179C50.4341 48.0762 50.8581 48.0234 51.3293 48.0234C52 48.0234 52.5959 48.154 53.1224 48.4095C53.649 48.6679 54.0952 49.0207 54.4611 49.4651C54.8269 49.9123 55.1068 50.4318 55.2981 51.029C55.4893 51.6262 55.5835 52.2623 55.5835 52.9401V58.7234C55.5835 58.9484 55.5364 59.1151 55.4394 59.2318C55.3424 59.3457 55.1872 59.404 54.9766 59.404H52.9423C52.6901 59.404 52.5155 59.3623 52.4213 59.2762C52.327 59.1901 52.2799 59.0234 52.2799 58.779V53.0318C52.2799 52.779 52.2217 52.5401 52.1081 52.3123C51.9945 52.0845 51.842 51.8845 51.6536 51.7123C51.4651 51.5401 51.2517 51.4012 51.0161 51.3012C50.7778 51.2012 50.5367 51.1512 50.29 51.1512C50.0766 51.1512 49.8632 51.1984 49.6415 51.2929C49.4197 51.3873 49.2174 51.5179 49.0317 51.6845C48.8461 51.8512 48.6908 52.0484 48.5661 52.2762C48.4386 52.5012 48.3666 52.7484 48.35 53.0123V58.7512C48.35 58.8512 48.3306 58.9512 48.2918 59.0512C48.253 59.1512 48.1948 59.229 48.1199 59.2818C48.0423 59.329 47.9703 59.3623 47.9037 59.379C47.8372 59.3957 47.7596 59.404 47.6709 59.404H45.681C45.4288 59.404 45.2459 59.3429 45.135 59.2179C45.0242 59.0957 44.9688 58.929 44.9688 58.7234V48.8484C44.9688 48.7373 44.9937 48.6345 45.0436 48.5401C45.0935 48.4457 45.1628 48.3734 45.2514 48.3207L45.1988 48.3457H45.2016Z" fill="#348BCB"/>
<path d="M68.6728 31.9589L58.4211 46.3977C58.4211 46.3977 58.1024 46.8366 58.6982 46.9366H67.6058C67.6058 46.9366 69.4377 46.7811 70.5906 44.6255L79.5841 31.8727C79.5841 31.8727 79.6811 31.7339 79.6589 31.6172H68.9167C68.9167 31.6172 68.7282 31.8811 68.6728 31.9589Z" fill="url(#paint0_linear_3_3139)"/>
<path d="M62.0087 31.9589L51.757 46.3977C51.757 46.3977 51.4383 46.8366 52.0342 46.9366H54.4842C54.4842 46.9366 56.3161 46.7811 57.469 44.6255L66.4625 31.8727C66.4625 31.8727 66.5595 31.7339 66.5373 31.6172H62.2526C62.2526 31.6172 62.0641 31.8811 62.0087 31.9589Z" fill="url(#paint1_linear_3_3139)"/>
<path d="M68.6728 31.2747L58.4211 16.8358C58.4211 16.8358 58.1024 16.3969 58.6982 16.2969H67.6058C67.6058 16.2969 69.4377 16.4524 70.5906 18.608L79.5841 31.3608C79.5841 31.3608 79.6811 31.4997 79.6589 31.6163H68.9167C68.9167 31.6163 68.7282 31.3524 68.6728 31.2747Z" fill="url(#paint2_linear_3_3139)"/>
<path d="M56.189 38.7542L58.4062 35.9125L56.8708 31.6181C56.8708 31.6181 56.7433 31.1264 56.3581 31.0625H53.9275C53.9275 31.0625 53.2679 31.1042 53.351 31.8097L56.1862 38.7514L56.189 38.7542Z" fill="#00364E"/>
<path fill-rule="evenodd" clip-rule="evenodd" d="M59.7321 59.2144C59.746 59.0978 59.7626 58.9811 59.7764 58.8644C59.8152 58.4978 59.8513 58.1339 59.8873 57.7672C59.9233 57.4144 59.9566 57.0589 59.9926 56.7061C60.0009 56.6283 60.0092 56.5533 60.0176 56.4755C60.0287 56.3783 60.0536 56.3589 60.1561 56.37C60.3501 56.3894 60.5442 56.4089 60.7354 56.4283C60.9959 56.4561 61.2564 56.4755 61.5142 56.5117C61.9715 56.5755 62.304 57.0228 62.2403 57.4811C62.2126 57.6839 62.171 57.7755 62.013 57.9672C62.0297 57.9894 62.0491 58.0144 62.0657 58.0394C62.4482 58.5589 62.2237 59.2894 61.6223 59.495C61.4781 59.545 61.3312 59.5422 61.1816 59.5255C60.7631 59.4839 60.3418 59.4422 59.9206 59.3978C59.8541 59.3894 59.7903 59.3617 59.7266 59.3422V59.2117L59.7321 59.2144ZM60.5746 58.8533C60.7686 58.8728 60.9516 58.8978 61.1345 58.9089C61.2869 58.9172 61.4366 58.77 61.4504 58.6089C61.4671 58.4283 61.3562 58.2533 61.201 58.2311C61.0181 58.2061 60.8352 58.1922 60.6467 58.1728C60.6245 58.3978 60.6024 58.62 60.5774 58.8505L60.5746 58.8533ZM60.6994 57.6283C60.8629 57.6422 61.0181 57.6617 61.1733 57.6672C61.334 57.6728 61.456 57.5533 61.4643 57.4005C61.4726 57.2394 61.3673 57.1116 61.2093 57.0894C61.1345 57.0783 61.0569 57.07 60.982 57.0644C60.91 57.0561 60.8352 57.0533 60.7603 57.045C60.7409 57.2422 60.7215 57.4311 60.6994 57.6283Z" fill="#080E14"/>
<path fill-rule="evenodd" clip-rule="evenodd" d="M86.6588 30.6484C86.6782 30.6818 86.7059 30.7151 86.7142 30.7512C86.7447 30.9346 86.7696 31.1207 86.7973 31.3068C86.8084 31.3707 86.7863 31.4123 86.7308 31.4429C86.6227 31.5012 86.5174 31.5651 86.4093 31.6207C86.3678 31.6429 86.3539 31.6651 86.3622 31.7151C86.4121 32.0318 86.4565 32.3457 86.5008 32.6623C86.5063 32.704 86.5202 32.7234 86.5645 32.7346C86.6865 32.7568 86.8084 32.7873 86.9304 32.8151C86.9969 32.829 87.0274 32.8651 87.0385 32.9318C87.0634 33.1179 87.0911 33.3012 87.1188 33.4873C87.1327 33.579 87.1022 33.6068 87.0108 33.5846C86.0407 33.3651 85.0735 33.1457 84.1035 32.929C83.9926 32.904 83.9677 32.8762 83.951 32.7596C83.9316 32.6179 83.915 32.479 83.8873 32.3401C83.8707 32.2595 83.9012 32.2096 83.9649 32.1734C84.2531 32.0068 84.5441 31.8401 84.8324 31.6762C85.4282 31.3373 86.0241 30.9984 86.6227 30.6596C86.6255 30.6596 86.6283 30.654 86.6311 30.6484H86.6588ZM85.7359 31.979C85.4476 32.1262 85.1649 32.2707 84.885 32.4123C84.885 32.4179 84.8878 32.4234 84.8906 32.4262C85.201 32.479 85.5086 32.5346 85.8273 32.5873C85.7968 32.379 85.7664 32.1818 85.7386 31.9762L85.7359 31.979Z" fill="#080E14"/>
<path fill-rule="evenodd" clip-rule="evenodd" d="M85.7277 37.8967C85.5641 37.8745 85.42 37.8578 85.2759 37.8384C84.8962 37.7912 84.5193 37.7412 84.1424 37.6912C84.0814 37.6828 84.0509 37.6412 84.0592 37.5773C84.0814 37.3967 84.1036 37.2134 84.1285 37.0328C84.1424 36.9356 84.1701 36.9134 84.2671 36.9245C84.7133 36.98 85.1567 37.0384 85.6029 37.0939C85.9965 37.1439 86.3873 37.1939 86.7808 37.2439C86.8723 37.255 86.961 37.2689 87.0524 37.28C87.1134 37.2884 87.1439 37.3189 87.1356 37.3828C87.1078 37.5967 87.0857 37.8134 87.0469 38.0245C87.0413 38.0634 86.9831 38.105 86.9388 38.1245C86.6062 38.2773 86.2736 38.4217 85.9411 38.5717C85.6861 38.6856 85.4339 38.7967 85.1789 38.9106C85.1567 38.9189 85.1373 38.9328 85.0957 38.9523C85.2011 38.9662 85.2898 38.98 85.3757 38.9912C85.844 39.0495 86.3124 39.1106 86.7808 39.1689C86.8778 39.18 86.8972 39.2023 86.8861 39.2995C86.864 39.4856 86.839 39.6717 86.8141 39.8578C86.8058 39.9217 86.7642 39.9412 86.7032 39.9328C86.5231 39.9106 86.3401 39.8884 86.16 39.8662C85.8025 39.8217 85.4477 39.7745 85.0902 39.7273C84.7299 39.68 84.3724 39.6356 84.0121 39.5884C83.9788 39.5828 83.9456 39.5828 83.9123 39.5773C83.8236 39.5606 83.8042 39.5412 83.8153 39.4523C83.8347 39.2745 83.8597 39.0995 83.8818 38.9217C83.8818 38.8995 83.8874 38.88 83.8902 38.8578C83.8929 38.7745 83.9317 38.7245 84.0093 38.6884C84.5525 38.4412 85.093 38.1884 85.6362 37.9384C85.6584 37.9273 85.6833 37.9162 85.7249 37.8939L85.7277 37.8967Z" fill="#080E14"/>
<path fill-rule="evenodd" clip-rule="evenodd" d="M71.2939 57.1079C71.3964 57.3802 71.499 57.6468 71.5987 57.9135C71.6459 58.0357 71.6375 58.0552 71.5156 58.0996C71.3521 58.1607 71.1886 58.2246 71.025 58.2857C70.9308 58.3218 70.9003 58.3079 70.8643 58.2163C70.5345 57.3468 70.2075 56.4802 69.8777 55.6107C69.8416 55.5135 69.8555 55.4829 69.9497 55.4468C70.3516 55.294 70.7507 55.1385 71.1525 54.9885C71.7207 54.7774 72.3249 55.0857 72.4745 55.6635C72.5466 55.9441 72.4912 56.2079 72.3332 56.4496C72.3138 56.4774 72.2944 56.5052 72.275 56.5357C72.444 56.6857 72.6131 56.8329 72.7794 56.9802C72.9069 57.0941 73.0371 57.2052 73.1646 57.3163C73.245 57.3885 73.2367 57.4385 73.1369 57.4774C72.9346 57.5552 72.735 57.6302 72.5327 57.7079C72.4745 57.7302 72.4302 57.7218 72.3831 57.6802C72.1336 57.4579 71.8814 57.2385 71.6292 57.019C71.6154 57.0052 71.5849 56.9941 71.5682 56.9996C71.4768 57.0302 71.3853 57.0663 71.2883 57.1052L71.2939 57.1079ZM71.0611 56.4968C71.1802 56.4524 71.2939 56.4079 71.4103 56.3635C71.4408 56.3524 71.4712 56.3385 71.5017 56.3218C71.6763 56.2357 71.7456 56.069 71.6874 55.8829C71.632 55.7052 71.4491 55.5857 71.2717 55.6302C71.111 55.6718 70.9558 55.7357 70.795 55.7885C70.8865 56.0274 70.9724 56.2552 71.0611 56.4913V56.4968Z" fill="#080E14"/>
<path fill-rule="evenodd" clip-rule="evenodd" d="M78.674 51.2535C78.9096 51.009 79.1396 50.7701 79.3503 50.5479C79.2366 50.4229 79.1285 50.3007 79.0149 50.1813C78.9124 50.0729 78.8015 49.9729 78.6934 49.8701C78.6324 49.809 78.6297 49.7701 78.6879 49.709C78.8181 49.5701 78.9512 49.434 79.0842 49.2979C79.1479 49.234 79.184 49.234 79.2477 49.2979C79.9156 49.9451 80.5863 50.5924 81.2543 51.2396C81.3235 51.3063 81.3235 51.3396 81.257 51.409C81.1268 51.5451 80.9965 51.6812 80.8663 51.8146C80.8053 51.8785 80.7692 51.8785 80.7027 51.8146C80.4505 51.5729 80.2011 51.3313 79.9517 51.0868C79.9323 51.0674 79.9129 51.0507 79.8907 51.0285C79.6579 51.2701 79.4279 51.509 79.1784 51.7701C79.2034 51.784 79.2311 51.7951 79.2505 51.8118C79.4999 52.0507 79.7466 52.2896 79.9932 52.5285C80.0764 52.609 80.0764 52.6396 79.9988 52.7201C79.8713 52.8535 79.7466 52.984 79.6191 53.1146C79.5526 53.1813 79.5249 53.1813 79.4583 53.1146C78.796 52.4757 78.1336 51.834 77.4712 51.1951C77.3742 51.1007 77.3742 51.0757 77.4712 50.9757C77.5904 50.8535 77.7068 50.7285 77.8259 50.6063C77.8925 50.5368 77.9396 50.5368 78.0089 50.6063C78.2278 50.8174 78.4467 51.0312 78.674 51.2507V51.2535Z" fill="#080E14"/>
<path fill-rule="evenodd" clip-rule="evenodd" d="M80.0938 48.011C80.1076 47.9777 80.1187 47.9443 80.1353 47.9165C80.224 47.7888 80.3155 47.661 80.4042 47.5332C80.4457 47.4749 80.4956 47.4582 80.5649 47.4749C81.1608 47.6249 81.7539 47.7721 82.3497 47.9221C82.7211 48.0165 83.0925 48.1082 83.4639 48.2027C83.5886 48.2332 83.5997 48.2638 83.5276 48.3665C83.4251 48.511 83.3198 48.6554 83.22 48.8027C83.1756 48.8665 83.1257 48.8832 83.0537 48.861C82.9373 48.8277 82.8209 48.7999 82.7073 48.7693C82.6657 48.7582 82.6435 48.7665 82.6186 48.8027C82.4357 49.0665 82.2472 49.3304 82.0615 49.5915C82.0366 49.6249 82.0338 49.6499 82.0615 49.686C82.1308 49.7832 82.1945 49.886 82.2638 49.9832C82.3082 50.0443 82.3082 50.0999 82.2638 50.161C82.1557 50.3082 82.0532 50.4582 81.9479 50.6082C81.8869 50.6943 81.8536 50.6943 81.7954 50.6054C81.2439 49.7749 80.6952 48.9415 80.1436 48.111C80.1242 48.0832 80.1132 48.0499 80.0938 48.0138V48.011ZM81.0776 48.2888C81.0776 48.2888 81.0693 48.2971 81.0638 48.2999C81.2522 48.5554 81.4379 48.8082 81.6292 49.0665C81.7483 48.8999 81.8647 48.7332 81.9867 48.561C81.6763 48.4665 81.3769 48.3776 81.0804 48.286L81.0776 48.2888Z" fill="#080E14"/>
<path fill-rule="evenodd" clip-rule="evenodd" d="M86.5568 40.7344C86.5984 40.7344 86.6261 40.7594 86.6178 40.8094C86.6122 40.8483 86.6011 40.8844 86.5901 40.9205C86.5457 41.0788 86.4986 41.2344 86.457 41.3927C86.4376 41.4622 86.3961 41.4955 86.324 41.4983C86.202 41.5038 86.0801 41.5149 85.9582 41.5288C85.936 41.5316 85.9027 41.5594 85.8972 41.5816C85.803 41.8955 85.7143 42.2094 85.6256 42.5205C85.6145 42.5594 85.6256 42.5816 85.6561 42.6066C85.7558 42.6788 85.8556 42.7566 85.9554 42.8316C86.008 42.8705 86.0219 42.9149 86.0025 42.976C85.9498 43.1566 85.9 43.3372 85.8473 43.5149C85.8196 43.6122 85.7863 43.6233 85.706 43.5649C84.9105 42.9622 84.1151 42.3566 83.3169 41.751C83.2393 41.6927 83.2283 41.6566 83.256 41.5649C83.2975 41.4205 83.3419 41.276 83.3807 41.1288C83.4001 41.0622 83.4361 41.026 83.5054 41.0205C83.7382 40.9983 83.9738 40.9733 84.2066 40.951C84.553 40.9177 84.8995 40.8872 85.2459 40.8538C85.584 40.8233 85.9249 40.7927 86.263 40.7622C86.3573 40.7538 86.4487 40.7455 86.5513 40.7344H86.5568ZM85.0463 42.1677C85.1045 41.9677 85.16 41.776 85.2154 41.5733C84.8884 41.5872 84.5752 41.601 84.2648 41.6149C84.2648 41.6205 84.2648 41.626 84.262 41.6316C84.5198 41.8094 84.7803 41.9844 85.0463 42.1677Z" fill="#080E14"/>
<path fill-rule="evenodd" clip-rule="evenodd" d="M68.6462 58.9813C68.2665 58.9729 67.9616 58.8785 67.6845 58.684C67.6152 58.6368 67.6069 58.6035 67.6512 58.534C67.7344 58.4007 67.8175 58.2702 67.9034 58.1396C67.9533 58.0646 67.981 58.0618 68.067 58.0952C68.2111 58.1535 68.3524 58.2174 68.5021 58.259C68.6407 58.2979 68.782 58.2674 68.9123 58.1979C68.9815 58.159 69.037 58.1063 69.0481 58.0229C69.0675 57.8868 69.0287 57.8035 68.8956 57.7674C68.7571 57.7285 68.6102 57.7118 68.466 57.6924C68.2332 57.6618 68.0004 57.6229 67.787 57.5146C67.363 57.2952 67.2023 56.7813 67.4351 56.3924C67.557 56.1896 67.7399 56.0618 67.9533 55.9729C68.3607 55.8035 68.7681 55.7924 69.1728 55.9896C69.1866 55.9979 69.2033 56.0035 69.2171 56.0118C69.3474 56.084 69.3585 56.1229 69.2864 56.2507C69.2227 56.3646 69.1589 56.4757 69.0952 56.5896C69.0397 56.6868 69.0148 56.6896 68.9095 56.6479C68.7959 56.6007 68.6767 56.559 68.5575 56.5313C68.43 56.5035 68.3108 56.5479 68.2055 56.6257C68.0836 56.7146 68.1002 56.884 68.2416 56.9396C68.3302 56.9757 68.4328 56.9868 68.527 57.0007C68.746 57.0313 68.9649 57.0479 69.1811 57.0896C69.9266 57.234 70.0375 58.0924 69.6218 58.5396C69.3446 58.8368 68.9982 58.9674 68.6434 58.984L68.6462 58.9813Z" fill="#080E14"/>
<path fill-rule="evenodd" clip-rule="evenodd" d="M77.2182 52.0194C77.2237 52.1028 77.2292 52.1889 77.232 52.2722C77.2348 52.3611 77.2154 52.3806 77.1239 52.3861C76.9659 52.3944 76.8246 52.4472 76.6971 52.5417C76.3451 52.8056 76.2897 53.2889 76.5696 53.65C76.7609 53.9 77.0186 54.025 77.3318 53.9722C77.6422 53.9194 77.8445 53.725 77.9443 53.4278C77.9692 53.35 77.9969 53.3361 78.0745 53.3611C78.2491 53.4167 78.4265 53.4722 78.6011 53.5306C78.6898 53.5583 78.7064 53.5917 78.6759 53.675C78.457 54.2667 78.0413 54.6361 77.4122 54.7306C76.5973 54.85 75.8657 54.3417 75.6744 53.5389C75.4638 52.6583 76.0763 51.7639 76.9743 51.6389C77.0214 51.6333 77.0685 51.6278 77.1184 51.625C77.1766 51.625 77.2071 51.6556 77.2098 51.7139C77.2154 51.8167 77.2209 51.9194 77.2265 52.025C77.2265 52.025 77.2265 52.025 77.2237 52.025L77.2182 52.0194Z" fill="#080E14"/>
<path fill-rule="evenodd" clip-rule="evenodd" d="M85.2429 35.1528C84.8992 35 84.5722 34.85 84.2424 34.7083C84.1537 34.6694 84.1205 34.625 84.1205 34.5278C84.1232 34.3028 84.1121 34.075 84.1094 33.85C84.1094 33.7889 84.126 33.775 84.1759 33.8028C84.7136 34.0944 85.2512 34.3833 85.7889 34.6805C85.8831 34.7333 85.9746 34.7528 86.0827 34.7472C86.3958 34.7333 86.7118 34.7305 87.0277 34.725C87.1303 34.725 87.1552 34.7444 87.158 34.85C87.1635 35.0361 87.1663 35.2194 87.1663 35.4055C87.1663 35.4944 87.1469 35.5166 87.0582 35.5194C86.7035 35.5278 86.3487 35.5361 85.9912 35.5444C85.9579 35.5444 85.9219 35.55 85.897 35.5666C85.3427 35.8944 84.7912 36.2222 84.2369 36.5528C84.1814 36.5861 84.162 36.575 84.1593 36.5055C84.1565 36.3389 84.1537 36.1722 84.1537 36.0083C84.1537 35.95 84.1565 35.8916 84.1482 35.8361C84.1315 35.7389 84.1759 35.6889 84.2618 35.6472C84.5694 35.5 84.8715 35.3444 85.1764 35.1944C85.1958 35.1861 85.2124 35.175 85.2429 35.1583V35.1528Z" fill="#080E14"/>
<path fill-rule="evenodd" clip-rule="evenodd" d="M64.042 57.6767C64.1418 57.4378 64.236 57.2156 64.3303 56.9934C64.3829 56.8684 64.4356 56.7406 64.4882 56.6156C64.5049 56.5712 64.5298 56.5462 64.5825 56.5434C64.8264 56.5351 65.073 56.524 65.3169 56.5156C65.3862 56.5156 65.3945 56.5295 65.364 56.5906C65.0675 57.1628 64.7709 57.7378 64.4744 58.3128C64.4633 58.3378 64.4578 58.3684 64.4578 58.3962C64.4688 58.7406 64.4799 59.0851 64.4966 59.4267C64.5021 59.5628 64.4827 59.5878 64.3469 59.5906C64.1723 59.5962 63.9977 59.6017 63.8203 59.6073C63.7372 59.6073 63.7122 59.5878 63.7095 59.5045C63.6956 59.1462 63.6817 58.7878 63.6679 58.4295C63.6679 58.3934 63.654 58.3545 63.6374 58.324C63.3048 57.7795 62.9695 57.2351 62.6341 56.6906C62.6036 56.6406 62.612 56.6212 62.6785 56.6184C62.9057 56.6073 63.1358 56.6045 63.363 56.5878C63.4545 56.5823 63.5016 56.6184 63.5404 56.6962C63.6928 56.999 63.848 57.299 64.0032 57.599C64.0143 57.6212 64.0254 57.6406 64.0448 57.6767H64.042Z" fill="#080E14"/>
<path fill-rule="evenodd" clip-rule="evenodd" d="M82.9662 44.417C82.8803 44.6226 82.7943 44.8226 82.7112 45.0198C82.6641 45.1281 82.6308 45.142 82.5227 45.0948C82.3869 45.0365 82.2539 44.9809 82.1181 44.9226C82.0377 44.8892 82.0211 44.8504 82.0571 44.7698C82.337 44.1087 82.617 43.4476 82.8969 42.7865C82.9329 42.7004 82.9717 42.6865 83.0549 42.7198C83.1934 42.7781 83.332 42.8365 83.4706 42.8976C83.5565 42.9337 83.5731 42.9781 83.5371 43.0615C83.4623 43.242 83.3847 43.4254 83.3071 43.6059C83.296 43.6309 83.2877 43.6531 83.2766 43.6837C83.3791 43.7281 83.4761 43.7698 83.5759 43.8115C84.144 44.0531 84.7094 44.292 85.2776 44.5337C85.394 44.5837 85.4051 44.6142 85.3552 44.7337C85.2914 44.8865 85.2249 45.0392 85.1612 45.192C85.1168 45.2976 85.078 45.3115 84.97 45.267C84.3214 44.992 83.6729 44.717 83.0244 44.442C83.0077 44.4337 82.9883 44.4281 82.9634 44.417H82.9662Z" fill="#080E14"/>
<path fill-rule="evenodd" clip-rule="evenodd" d="M81.3571 46.0597C81.3737 46.0208 81.3793 45.9986 81.3904 45.9763C81.4763 45.818 81.565 45.6597 81.6509 45.5041C81.7008 45.4125 81.7451 45.4013 81.8366 45.4513C82.6403 45.8958 83.444 46.3402 84.2478 46.7847C84.3448 46.8375 84.3531 46.8652 84.3004 46.9625C84.2117 47.1236 84.123 47.2875 84.0316 47.4486C83.9872 47.5263 83.9595 47.5347 83.8819 47.493C83.0643 47.043 82.2495 46.5902 81.4319 46.1375C81.4015 46.1208 81.3765 46.0847 81.3516 46.0625L81.3571 46.0597Z" fill="#080E14"/>
<path fill-rule="evenodd" clip-rule="evenodd" d="M74.6045 56.6712C74.5823 56.6935 74.5657 56.7268 74.5407 56.7407C74.3634 56.8351 74.186 56.9296 74.0059 57.0213C73.9421 57.0546 73.9116 57.0379 73.8701 56.9601C73.6622 56.5629 73.4571 56.1629 73.252 55.7629C73.0331 55.3407 72.8141 54.9185 72.5979 54.4963C72.5397 54.3824 72.5481 54.3601 72.6617 54.3018C72.8141 54.2212 72.9665 54.1407 73.1218 54.0629C73.2077 54.0185 73.252 54.0351 73.2964 54.1213C73.7204 54.9407 74.1444 55.7629 74.5712 56.5851C74.5851 56.6101 74.5934 56.6379 74.61 56.674L74.6045 56.6712Z" fill="#080E14"/>
<path d="M64.9214 39.8594L64.8826 41.9816L62.9453 40.8844L64.9214 39.8594Z" fill="#2878B7"/>
<path d="M64.2984 45.3931L62.5884 46.6458L62.2891 44.4375L64.2984 45.3931Z" fill="#16498C"/>
<path d="M60.8069 42.8076L59.7344 42.3688L60.6767 41.5938L60.8069 42.8076Z" fill="#69CDEC"/>
<path d="M69.1116 47.7139L68.0391 47.2722L68.9814 46.5L69.1116 47.7139Z" fill="#69CDEC"/>
<path d="M70.9909 41.9087L69.2809 43.1615L68.9844 40.9531L70.9909 41.9087Z" fill="#69CDEC"/>
<path d="M67.7471 39.0234L67.7277 40.1373L67.0625 39.8901L67.7471 39.0234Z" fill="#69CDEC"/>
<path d="M64.0184 35.9531L64.4563 37.0337L63.4253 37.9031L63.0234 36.9142L64.0184 35.9531Z" fill="#69CDEC"/>
<path d="M59.5176 45.6094L60.1662 47.3205L59.4844 47.3066L59.5176 45.6094Z" fill="#69CDEC"/>
<path d="M60.5381 36.5227L58.8281 37.1755L58.842 36.4922L60.5381 36.5227Z" fill="#69CDEC"/>
<path d="M65.0781 43.7656L66.8907 43.999L66.5581 44.5934L65.0781 43.7656Z" fill="#69CDEC"/>
<path d="M61.7323 39.0852L61.5938 38.1797L61.9263 38.2575L61.7323 39.0852Z" fill="#16498C"/>
<path d="M73.0315 35.5469L72.5326 37.3108L71.9922 36.8913L73.0315 35.5469Z" fill="#16498C"/>
<path d="M66.8594 33.5469L68.0206 33.8302L67.7629 34.1941L66.8594 33.5469Z" fill="#2878B7"/>
<path d="M57.9752 40.7917L56.3178 41.8222L55.4531 40.7056L56.1571 39.375L57.9752 40.7917Z" fill="#69CDEC"/>
<path d="M57.3206 46.4179L57.2984 47.6345L56.2812 47.2484L56.2979 46.3984L57.3206 46.4179Z" fill="#69CDEC"/>
<path d="M52.5489 42.4531L52.5156 44.1476L53.9513 43.6615L53.9734 42.4781L52.5489 42.4531Z" fill="#2878B7"/>
<path d="M70.6331 34.2694L70.6109 35.4861L69.5938 35.1L69.6104 34.25L70.6331 34.2694Z" fill="#2878B7"/>
<path d="M74.3284 45.9375L75.1128 46.8653L74.0984 47.2486L73.5469 46.6014L74.3284 45.9375Z" fill="#2878B7"/>
<path d="M71.0107 38.7812L71.4985 39.3562L70.8694 39.5924L70.5312 39.1924L71.0107 38.7812Z" fill="#2878B7"/>
<path d="M58.49 50.2969L58.9778 50.8719L58.3487 51.108L58.0078 50.708L58.49 50.2969Z" fill="#2878B7"/>
<path d="M77.9683 30.8203L77.9267 32.9425L75.9922 31.8453L77.9683 30.8203Z" fill="#2878B7"/>
<path d="M77.3425 36.354L75.6325 37.6068L75.3359 35.3984L77.3425 36.354Z" fill="#16498C"/>
<path d="M73.8538 33.7608L72.7812 33.3219L73.7236 32.5469L73.8538 33.7608Z" fill="#69CDEC"/>
<path d="M82.1585 38.667L81.0859 38.2253L82.0282 37.4531L82.1585 38.667Z" fill="#69CDEC"/>
<path d="M84.0378 32.8696L82.3278 34.1224L82.0312 31.9141L84.0378 32.8696Z" fill="#69CDEC"/>
<path d="M80.7939 29.9844L80.7745 31.0983L80.1094 30.851L80.7939 29.9844Z" fill="#69CDEC"/>
<path d="M77.0653 26.9141L77.5032 27.9946L76.4722 28.8641L76.0703 27.8752L77.0653 26.9141Z" fill="#69CDEC"/>
<path d="M72.5645 36.5625L73.213 38.2736L72.5312 38.2597L72.5645 36.5625Z" fill="#69CDEC"/>
<path d="M73.585 27.4837L71.875 28.1365L71.8889 27.4531L73.585 27.4837Z" fill="#69CDEC"/>
<path d="M78.125 34.7344L79.9403 34.9677L79.605 35.5622L78.125 34.7344Z" fill="#69CDEC"/>
<path d="M74.7792 30.0462L74.6406 29.1406L74.9732 29.2184L74.7792 30.0462Z" fill="#16498C"/>
<path d="M86.0756 26.5L85.5795 28.2639L85.0391 27.8444L86.0756 26.5Z" fill="#16498C"/>
<path d="M79.9062 24.5078L81.0675 24.7911L80.8098 25.155L79.9062 24.5078Z" fill="#2878B7"/>
<path d="M71.022 31.7476L69.3675 32.7781L68.5 31.6615L69.2067 30.3281L71.022 31.7476Z" fill="#69CDEC"/>
<path d="M70.3674 37.3788L70.3453 38.5955L69.3281 38.2094L69.3448 37.3594L70.3674 37.3788Z" fill="#69CDEC"/>
<path d="M65.5958 33.4062L65.5625 35.1035L66.9981 34.6174L67.0203 33.434L65.5958 33.4062Z" fill="#2878B7"/>
<path d="M83.6772 25.2276L83.655 26.447L82.6406 26.0609L82.6573 25.2109L83.6772 25.2276Z" fill="#2878B7"/>
<path d="M84.0576 29.7344L84.5426 30.3094L83.9162 30.5455L83.5781 30.1455L84.0576 29.7344Z" fill="#2878B7"/>
<path d="M71.5369 41.25L72.0219 41.825L71.3956 42.0611L71.0547 41.6611L71.5369 41.25Z" fill="#2878B7"/>
<path d="M55.8125 21.5212L56.8296 20.6406L57.1345 22.0212L55.8125 21.5212Z" fill="#2878B7"/>
<path d="M58.6953 19.4609L60.009 19.7387L59.0972 20.8165L58.6953 19.4609Z" fill="#16498C"/>
<path d="M58.953 22.2188L59.2024 22.9132L58.4375 22.7965L58.953 22.2188Z" fill="#69CDEC"/>
<path d="M57.7342 16.2031L57.9837 16.9003L57.2188 16.7837L57.7342 16.2031Z" fill="#69CDEC"/>
<path d="M54.2031 17.7812L55.5196 18.059L54.605 19.1368L54.2031 17.7812Z" fill="#69CDEC"/>
<path d="M54.2266 20.542L54.7615 20.0781L54.9277 20.4976L54.2266 20.542Z" fill="#69CDEC"/>
<path d="M54.3672 23.6092L54.6887 22.9453L55.5367 23.062L55.243 23.6731L54.3672 23.6092Z" fill="#69CDEC"/>
<path d="M60.8203 21.6377L61.3524 20.6016L61.6351 20.9293L60.8203 21.6377Z" fill="#69CDEC"/>
<path d="M56.1094 25.0156L57.1431 25.5462L56.8161 25.8323L56.1094 25.0156Z" fill="#69CDEC"/>
<path d="M57.5971 19.7793L56.9375 18.8238L57.3588 18.7266L57.5971 19.7793Z" fill="#69CDEC"/>
<path d="M56.8071 23.3594L56.4413 23.8094L56.3359 23.6205L56.8071 23.3594Z" fill="#16498C"/>
<path d="M50.3438 19.5217L51.3858 19.0078L51.4191 19.4411L50.3438 19.5217Z" fill="#16498C"/>
<path d="M52.0165 23.2859L51.6562 22.6165L51.9389 22.5859L52.0165 23.2859Z" fill="#2878B7"/>
<path d="M59.2109 24.4141L60.3999 24.7613L60.2419 25.6446L59.3135 25.8779L59.2109 24.4141Z" fill="#69CDEC"/>
<path d="M62.1406 22.3259L62.7226 21.8203L62.9721 22.4648L62.5647 22.8203L62.1406 22.3259Z" fill="#69CDEC"/>
<path d="M62.2962 26.2793L63.1083 25.5738L62.2713 25.1016L61.7031 25.5932L62.2962 26.2793Z" fill="#2878B7"/>
<path d="M50.7578 21.1958L51.3398 20.6875L51.5893 21.3347L51.1818 21.6875L50.7578 21.1958Z" fill="#2878B7"/>
<path d="M54.6875 14.4932L54.79 13.7266L55.4053 14.0432L55.3333 14.5793L54.6875 14.4932Z" fill="#2878B7"/>
<path d="M52.7188 19.105L52.7825 18.6328L53.1594 18.83L53.1151 19.1578L52.7188 19.105Z" fill="#2878B7"/>
<path d="M63.4688 20.1363L63.5325 19.6641L63.9094 19.8613L63.8651 20.1891L63.4688 20.1363Z" fill="#2878B7"/>
<path d="M66.8044 15.7969L66.7656 17.9191L68.7389 16.8969L66.8044 15.7969Z" fill="#2878B7"/>
<path d="M67.2188 21.3571L68.8816 22.671L69.2613 20.4766L67.2188 21.3571Z" fill="#16498C"/>
<path d="M70.7969 18.9036L71.8888 18.5036L70.9743 17.6953L70.7969 18.9036Z" fill="#69CDEC"/>
<path d="M62.3203 23.4896L63.4095 23.0896L62.4977 22.2812L62.3203 23.4896Z" fill="#69CDEC"/>
<path d="M60.6562 17.6306L62.3191 18.9444L62.6988 16.75L60.6562 17.6306Z" fill="#69CDEC"/>
<path d="M64.0038 14.8594L63.9844 15.976L64.6579 15.7538L64.0038 14.8594Z" fill="#69CDEC"/>
<path d="M67.8517 11.9375L67.375 13.0014L68.37 13.9069L68.8106 12.9347L67.8517 11.9375Z" fill="#69CDEC"/>
<path d="M71.9857 21.7422L71.2734 23.4311L71.9552 23.4422L71.9857 21.7422Z" fill="#69CDEC"/>
<path d="M71.3047 12.6406L72.9898 13.3545L73.0008 12.6712L71.3047 12.6406Z" fill="#69CDEC"/>
<path d="M66.49 19.7031L64.6719 19.8698L64.9823 20.4781L66.49 19.7031Z" fill="#69CDEC"/>
<path d="M70.0073 15.1472L70.1791 14.25L69.8438 14.3139L70.0073 15.1472Z" fill="#16498C"/>
<path d="M58.8594 11.1875L59.2917 12.9653L59.846 12.5681L58.8594 11.1875Z" fill="#16498C"/>
<path d="M65.0914 9.42188L63.9219 9.66076L64.1685 10.033L65.0914 9.42188Z" fill="#2878B7"/>
<path d="M73.7109 16.9906L75.3267 18.0823L76.233 16.999L75.5789 15.6406L73.7109 16.9906Z" fill="#69CDEC"/>
<path d="M74.1472 22.6406L74.125 23.8573L75.1532 23.5101L75.1699 22.6601L74.1472 22.6406Z" fill="#69CDEC"/>
<path d="M79.0717 18.8559L79.0385 20.5503L77.625 20.0115L77.6472 18.8281L79.0717 18.8559Z" fill="#2878B7"/>
<path d="M61.3034 10L61.2812 11.2167L62.3122 10.8667L62.3261 10.0194L61.3034 10Z" fill="#2878B7"/>
<path d="M57.1797 21.5234L56.3594 22.4207L57.3599 22.8429L57.9336 22.2179L57.1797 21.5234Z" fill="#2878B7"/>
<path d="M60.7572 14.5L60.25 15.0556L60.8708 15.3167L61.2228 14.9278L60.7572 14.5Z" fill="#2878B7"/>
<path d="M72.8353 26.4688L72.3281 27.0215L72.9462 27.2826L73.3009 26.8965L72.8353 26.4688Z" fill="#2878B7"/>
<path d="M67.5156 11.4927L68.5328 10.6094L68.8376 11.9927L67.5156 11.4927Z" fill="#2878B7"/>
<path d="M70.3906 9.4375L71.7071 9.71528L70.7925 10.7931L70.3906 9.4375Z" fill="#16498C"/>
<path d="M70.6561 12.1875L70.9055 12.8819L70.1406 12.7653L70.6561 12.1875Z" fill="#69CDEC"/>
<path d="M69.4374 6.17188L69.684 6.86632L68.9219 6.74965L69.4374 6.17188Z" fill="#69CDEC"/>
<path d="M65.9062 7.75L67.2199 8.025L66.3081 9.10556L65.9062 7.75Z" fill="#69CDEC"/>
<path d="M65.9219 10.5108L66.4568 10.0469L66.6231 10.4663L65.9219 10.5108Z" fill="#69CDEC"/>
<path d="M66.0625 13.5807L66.3868 12.9141L67.2321 13.0335L66.9383 13.6446L66.0625 13.5807Z" fill="#69CDEC"/>
<path d="M72.5234 11.6064L73.0528 10.5703L73.3355 10.8981L72.5234 11.6064Z" fill="#69CDEC"/>
<path d="M67.8125 14.9844L68.8435 15.5149L68.5165 15.801L67.8125 14.9844Z" fill="#69CDEC"/>
<path d="M69.2924 9.7559L68.6328 8.80034L69.0541 8.70312L69.2924 9.7559Z" fill="#69CDEC"/>
<path d="M68.5024 13.3281L68.1366 13.7781L68.0312 13.5892L68.5024 13.3281Z" fill="#16498C"/>
<path d="M62.0469 9.49045L63.0862 8.97656L63.1194 9.4099L62.0469 9.49045Z" fill="#16498C"/>
<path d="M63.7197 13.2469L63.3594 12.5802L63.6393 12.5469L63.7197 13.2469Z" fill="#2878B7"/>
<path d="M70.9141 14.3828L72.103 14.73L71.9423 15.6134L71.0166 15.8439L70.9141 14.3828Z" fill="#69CDEC"/>
<path d="M73.8359 12.3024L74.4179 11.7969L74.6674 12.4413L74.2627 12.7941L73.8359 12.3024Z" fill="#69CDEC"/>
<path d="M73.9993 16.2431L74.8114 15.5375L73.9744 15.0625L73.4062 15.5569L73.9993 16.2431Z" fill="#2878B7"/>
<path d="M62.4609 11.1618L63.0457 10.6562L63.2924 11.3007L62.8877 11.6535L62.4609 11.1618Z" fill="#2878B7"/>
<path d="M66.3906 4.4592L66.4932 3.69531L67.1057 4.01198L67.0336 4.54809L66.3906 4.4592Z" fill="#2878B7"/>
<path d="M64.4219 9.07379L64.4856 8.60156L64.8653 8.79601L64.821 9.12657L64.4219 9.07379Z" fill="#2878B7"/>
<path d="M75.1641 10.0972L75.2278 9.625L75.6075 9.81944L75.5632 10.15L75.1641 10.0972Z" fill="#2878B7"/>
<path d="M61.7888 7.8375L61.0932 7.1875L60.8438 8.15417L61.7888 7.8375Z" fill="#2878B7"/>
<path d="M59.8118 6.30469L58.875 6.4658L59.4903 7.24913L59.8118 6.30469Z" fill="#16498C"/>
<path d="M59.5534 8.23438L59.3594 8.71771L59.9026 8.6566L59.5534 8.23438Z" fill="#69CDEC"/>
<path d="M60.569 4.03125L60.375 4.51458L60.9182 4.4507L60.569 4.03125Z" fill="#69CDEC"/>
<path d="M63.0121 5.23438L62.0781 5.39549L62.6934 6.1816L63.0121 5.23438Z" fill="#69CDEC"/>
<path d="M62.9281 7.17761L62.565 6.83594L62.4375 7.1276L62.9281 7.17761Z" fill="#69CDEC"/>
<path d="M62.7468 9.33715L62.5389 8.85938L61.9375 8.92049L62.1287 9.35937L62.7468 9.33715Z" fill="#69CDEC"/>
<path d="M58.2524 7.77569L57.9059 7.03125L57.6953 7.25625L58.2524 7.77569Z" fill="#69CDEC"/>
<path d="M61.485 10.2891L60.7422 10.6363L60.9639 10.8446L61.485 10.2891Z" fill="#69CDEC"/>
<path d="M60.5781 6.55642L61.0687 5.89809L60.7749 5.82031L60.5781 6.55642Z" fill="#69CDEC"/>
<path d="M61.0391 9.09375L61.2857 9.41875L61.3633 9.28819L61.0391 9.09375Z" fill="#16498C"/>
<path d="M65.6913 6.56077L64.9708 6.17188L64.9375 6.47465L65.6913 6.56077Z" fill="#16498C"/>
<path d="M64.4141 9.17413L64.6857 8.71024L64.4889 8.67969L64.4141 9.17413Z" fill="#2878B7"/>
<path d="M59.3168 9.78125L58.4688 9.99236L58.5574 10.6201L59.206 10.809L59.3168 9.78125Z" fill="#69CDEC"/>
<path d="M57.3091 8.2316L56.91 7.85938L56.7188 8.3066L56.9959 8.56771L57.3091 8.2316Z" fill="#69CDEC"/>
<path d="M57.0934 11.0075L56.5391 10.4908L57.1432 10.1797L57.5285 10.5408L57.0934 11.0075Z" fill="#2878B7"/>
<path d="M65.3587 7.7316L64.9596 7.35938L64.7656 7.8066L65.0455 8.06771L65.3587 7.7316Z" fill="#2878B7"/>
<path d="M62.7668 2.90382L62.7141 2.35938L62.2734 2.56771L62.3095 2.94826L62.7668 2.90382Z" fill="#2878B7"/>
<path d="M64.0236 6.20052L63.9931 5.86719L63.7188 5.99497L63.7437 6.2283L64.0236 6.20052Z" fill="#2878B7"/>
<path d="M56.4299 6.64861L56.3966 6.3125L56.125 6.44028L56.1472 6.67639L56.4299 6.64861Z" fill="#2878B7"/>
<defs>
<linearGradient id="paint0_linear_3_3139" x1="59.0918" y1="47.5533" x2="76.1971" y2="32.8528" gradientUnits="userSpaceOnUse">
<stop offset="0.22" stop-color="#36C3F2"/>
<stop offset="0.58" stop-color="#1579A8"/>
<stop offset="0.99" stop-color="#0B1F25"/>
</linearGradient>
<linearGradient id="paint1_linear_3_3139" x1="51.0475" y1="45.9589" x2="64.9345" y2="34.0234" gradientUnits="userSpaceOnUse">
<stop offset="0.22" stop-color="#36C3F2"/>
<stop offset="0.58" stop-color="#1579A8"/>
<stop offset="0.99" stop-color="#0B1F25"/>
</linearGradient>
<linearGradient id="paint2_linear_3_3139" x1="79.9444" y1="32.0969" x2="58.8127" y2="17.0173" gradientUnits="userSpaceOnUse">
<stop offset="0.22" stop-color="#36C3F2"/>
<stop offset="0.58" stop-color="#1579A8"/>
<stop offset="0.99" stop-color="#0B1F25"/>
</linearGradient>
</defs>
</svg>
