<svg width="15" height="15" viewBox="0 0 15 15" fill="none" xmlns="http://www.w3.org/2000/svg">
<path fill-rule="evenodd" clip-rule="evenodd" d="M14.2991 12.652C13.8601 13.986 12.1402 14.6513 10.9114 14.5404C9.23314 14.3887 7.40699 13.4986 6.02079 12.5182C3.9832 11.0771 2.07456 8.84782 0.962375 6.48225C0.176354 4.81071 -7.7486e-07 2.75557 1.16908 1.23193C1.60143 0.668747 2.06887 0.367963 2.77146 0.332882C3.74616 0.285476 3.8827 0.843068 4.2174 1.71155C4.46676 2.36101 4.79956 3.02351 4.9854 3.69668C5.33337 4.95294 4.11689 5.00545 3.96329 6.03227C3.86752 6.67983 4.6526 7.54826 5.00721 8.00999C5.70221 8.9145 6.53753 9.69465 7.48 10.2882C8.0195 10.6285 8.89085 11.2419 9.50905 10.9034C10.461 10.382 10.3709 8.77687 11.7021 9.32014C12.3914 9.60079 13.0589 10.0058 13.717 10.3604C14.7343 10.9075 14.6869 11.4744 14.2991 12.652C14.5893 11.7721 14.009 13.5319 14.2991 12.652Z" fill="#017BFF"/>
</svg>
