<svg width="7" height="13" viewBox="0 0 7 13" fill="none" xmlns="http://www.w3.org/2000/svg">
<path d="M0.00520849 6.66818C0.00520849 6.80354 0.0265036 6.92954 0.0690942 7.04616C0.111685 7.16281 0.184789 7.27369 0.288405 7.3788L5.26447 12.4267C5.41776 12.5823 5.61045 12.6618 5.84254 12.6654C6.07464 12.669 6.27088 12.5895 6.43128 12.4267C6.59168 12.264 6.67188 12.0667 6.67188 11.8349C6.67188 11.6031 6.59168 11.4058 6.43128 11.2431L1.92149 6.66818L6.43128 2.09326C6.58457 1.93775 6.663 1.74228 6.66656 1.50683C6.6701 1.27141 6.59168 1.07234 6.43128 0.909628C6.27088 0.746895 6.07641 0.665527 5.84786 0.665527C5.61933 0.665527 5.42487 0.746895 5.26447 0.909628L0.288405 5.95756C0.184789 6.06267 0.111685 6.17355 0.0690942 6.29019C0.0265036 6.40682 0.00520849 6.53281 0.00520849 6.66818Z" fill="#007BFF"/>
</svg>
