<svg width="9" height="5" viewBox="0 0 9 5" fill="none" xmlns="http://www.w3.org/2000/svg">
<path d="M4.49801 5C4.39649 5 4.30199 4.98403 4.21452 4.95209C4.12704 4.92014 4.04388 4.86531 3.96504 4.7876L0.179099 1.05555C0.0624541 0.940584 0.00278397 0.796065 8.82812e-05 0.621998C-0.00262145 0.44793 0.0570487 0.300746 0.179099 0.180447C0.301135 0.0601484 0.449089 0 0.62296 0C0.796832 0 0.944786 0.0601484 1.06682 0.180447L4.49801 3.56279L7.9292 0.180447C8.04583 0.0654769 8.19244 0.0066562 8.36902 0.00398504C8.54559 0.00132773 8.69489 0.0601484 8.81692 0.180447C8.93897 0.300746 9 0.446601 9 0.618011C9 0.789408 8.93897 0.935255 8.81692 1.05555L5.03098 4.7876C4.95214 4.86531 4.86898 4.92014 4.7815 4.95209C4.69403 4.98403 4.59954 5 4.49801 5Z" fill="#080E14"/>
</svg>
