<svg width="24" height="28" viewBox="0 0 24 28" fill="none" xmlns="http://www.w3.org/2000/svg">
<path d="M23.0174 0.00146484H0.98257C0.721987 0.00146484 0.472076 0.108479 0.287816 0.298966C0.103556 0.489452 4.00938e-05 0.747806 4.00938e-05 1.01719V19.5712C-0.00147508 19.7423 0.0399781 19.9108 0.120347 20.0604C0.200716 20.2099 0.317249 20.3354 0.458554 20.4244L11.476 27.6293C11.6317 27.7348 11.8138 27.7909 12 27.7909C12.1862 27.7909 12.3683 27.7348 12.524 27.6293L23.5414 20.4244C23.6827 20.3354 23.7993 20.2099 23.8797 20.0604C23.96 19.9108 24.0015 19.7423 24 19.5712V1.01719C24 0.747806 23.8964 0.489452 23.7122 0.298966C23.5279 0.108479 23.278 0.00146484 23.0174 0.00146484Z" fill="#007BFF"/>
<path d="M7.88137 13.1735L7.29993 16.4773C7.2654 16.6682 7.28782 16.8646 7.36464 17.044C7.44146 17.2234 7.56962 17.3788 7.73458 17.4925C7.89953 17.6062 8.09469 17.6737 8.29791 17.6873C8.50114 17.7008 8.7043 17.66 8.88436 17.5694L11.9951 16.0211L15.1058 17.5694C15.2628 17.6465 15.4379 17.6845 15.6145 17.68C15.8446 17.6861 16.0701 17.6179 16.2541 17.4864C16.4183 17.3734 16.546 17.2191 16.623 17.0408C16.7001 16.8626 16.7233 16.6674 16.6902 16.4773L16.1088 13.1735L18.6235 10.8373C18.767 10.7007 18.8676 10.5286 18.9138 10.3406C18.96 10.1525 18.9501 9.9559 18.8851 9.77291C18.8243 9.58924 18.7102 9.42564 18.5559 9.30093C18.4016 9.17621 18.2134 9.09544 18.013 9.06791L14.5389 8.58409L12.969 5.58439C12.8684 5.424 12.7258 5.29118 12.5551 5.19895C12.3844 5.10672 12.1914 5.05823 11.9951 5.05823C11.7987 5.05823 11.6057 5.10672 11.435 5.19895C11.2643 5.29118 11.1217 5.424 11.0212 5.58439L9.45126 8.58409L5.97715 9.06791C5.77674 9.09544 5.58856 9.17621 5.43427 9.30093C5.27998 9.42564 5.16585 9.58924 5.10499 9.77291C5.04002 9.9559 5.03009 10.1525 5.07632 10.3406C5.12255 10.5286 5.2231 10.7007 5.36664 10.8373L7.88137 13.1735Z" fill="white"/>
</svg>
