<svg width="53" height="41" viewBox="0 0 53 41" fill="none" xmlns="http://www.w3.org/2000/svg">
<path d="M16.9696 18.1833L2.4241 18.1833L2.4241 15.7591C2.4241 8.40709 8.40557 2.42577 15.7575 2.42577L15.7575 0.00146622C7.06898 0.00146546 -6.18001e-07 7.07057 -1.37757e-06 15.7591L-1.58951e-06 18.1833L-1.69547e-06 19.3954L-3.07304e-06 35.153C-3.30682e-06 37.8271 2.17436 40.0015 4.84847 40.0015L16.9696 40.0015C19.6437 40.0015 21.8181 37.8271 21.8181 35.153L21.8181 23.0318C21.8181 20.3577 19.6437 18.1833 16.9696 18.1833Z" fill="#FCDE5A"/>
<path d="M47.2665 18.1833L32.7211 18.1833L32.7211 15.7591C32.7211 8.40709 38.7024 2.42577 46.0545 2.42577L46.0545 0.00146622C37.366 0.00146546 30.2969 7.07057 30.2969 15.7591L30.2969 18.1833L30.2969 19.3954L30.2969 35.153C30.2969 37.8271 32.4712 40.0015 35.1453 40.0015L47.2665 40.0015C49.9406 40.0015 52.115 37.8271 52.115 35.153L52.115 23.0318C52.115 20.3577 49.9406 18.1833 47.2665 18.1833Z" fill="#FCDE5A"/>
</svg>
