<svg width="220" height="55" viewBox="0 0 220 55" fill="none" xmlns="http://www.w3.org/2000/svg">
<path d="M109.116 25.5764H104.907V24.5143C104.907 24.0187 104.852 23.6962 104.742 23.5624C104.632 23.4287 104.459 23.3579 104.207 23.3579C103.932 23.3579 103.727 23.4523 103.593 23.6332C103.452 23.8142 103.381 24.0895 103.381 24.4671C103.381 24.947 103.46 25.3089 103.617 25.5528C103.774 25.7888 104.199 26.0878 104.899 26.434C106.913 27.4252 108.18 28.2434 108.699 28.8728C109.226 29.5101 109.486 30.5328 109.486 31.9332C109.486 32.9559 109.337 33.7112 109.046 34.199C108.754 34.6867 108.196 35.088 107.362 35.4184C106.528 35.7488 105.568 35.914 104.459 35.914C103.247 35.914 102.209 35.7252 101.351 35.3476C100.494 34.97 99.9352 34.4901 99.6677 33.9C99.4002 33.31 99.2744 32.476 99.2744 31.3982V30.4541H103.483V32.2007C103.483 32.7435 103.538 33.0897 103.656 33.2391C103.774 33.3965 103.987 33.4673 104.286 33.4673C104.585 33.4673 104.813 33.3729 104.962 33.1762C105.112 32.9795 105.183 32.6884 105.183 32.3108C105.183 31.4611 105.041 30.9104 104.766 30.6508C104.475 30.3912 103.767 29.9506 102.642 29.337C101.517 28.7233 100.777 28.2749 100.407 27.9917C100.045 27.7163 99.7385 27.3308 99.5025 26.8352C99.2665 26.3474 99.1406 25.718 99.1406 24.9549C99.1406 23.8535 99.3137 23.0432 99.652 22.5397C99.9903 22.0283 100.541 21.6349 101.304 21.3438C102.067 21.0527 102.98 20.9111 104.058 20.9111C105.238 20.9111 106.237 21.0685 107.063 21.3832C107.889 21.6979 108.44 22.0912 108.707 22.5711C108.975 23.051 109.108 23.8535 109.108 25.0021V25.5686L109.116 25.5764ZM115.119 23.8142L114.962 25.364C115.599 24.2469 116.519 23.6568 117.715 23.5939V27.7399C116.921 27.7399 116.331 27.8265 115.953 28.0074C115.575 28.1884 115.347 28.4323 115.261 28.7469C115.174 29.0616 115.135 29.7933 115.135 30.9419V35.5993H110.792V23.8063H115.111L115.119 23.8142ZM123.167 21.2101V23.0825H118.691V21.2101H123.167ZM123.167 23.8142V35.6072H118.691V23.8142H123.167ZM139.342 27.4882H134.803V24.9864C134.803 24.2547 134.756 23.8063 134.661 23.6253C134.567 23.4444 134.355 23.3579 134.024 23.3579C133.654 23.3579 133.418 23.468 133.324 23.6883C133.222 23.9086 133.174 24.3806 133.174 25.1123V31.7916C133.174 32.4918 133.23 32.9481 133.324 33.1605C133.426 33.3729 133.646 33.4752 133.993 33.4752C134.339 33.4752 134.551 33.3729 134.653 33.1526C134.756 32.9402 134.811 32.4367 134.811 31.6421V29.8326H139.35V30.3912C139.35 31.886 139.224 32.9402 138.965 33.5617C138.713 34.1832 138.147 34.7339 137.273 35.206C136.4 35.678 135.322 35.9062 134.048 35.9062C132.773 35.9062 131.625 35.7095 130.759 35.3082C129.902 34.907 129.327 34.3642 129.044 33.6561C128.761 32.9559 128.627 31.8938 128.627 30.4856V26.2845C128.627 25.246 128.674 24.4671 128.753 23.9558C128.84 23.4365 129.091 22.933 129.524 22.461C129.949 21.9811 130.539 21.6035 131.302 21.3281C132.057 21.0527 132.931 20.919 133.914 20.919C135.251 20.919 136.353 21.1314 137.226 21.5563C138.091 21.9811 138.666 22.5082 138.941 23.1454C139.217 23.7827 139.35 24.774 139.35 26.1114V27.4803L139.342 27.4882ZM145.18 21.2101V24.4514C145.558 24.1682 145.959 23.9479 146.391 23.8063C146.824 23.6647 147.288 23.5939 147.792 23.5939C148.555 23.5939 149.2 23.7512 149.735 24.0738C150.27 24.3963 150.593 24.7661 150.718 25.1831C150.836 25.6 150.892 26.3631 150.892 27.4724V35.6072H146.549V27.3072C146.549 26.6228 146.509 26.1822 146.423 25.9855C146.336 25.7888 146.155 25.6944 145.864 25.6944C145.597 25.6944 145.416 25.7967 145.321 26.0013C145.227 26.1979 145.18 26.5992 145.18 27.1971V35.6151H140.837V21.218H145.18V21.2101ZM156.273 28.3772H152.19V27.5826C152.19 26.67 152.316 25.9698 152.575 25.4663C152.827 24.9707 153.346 24.538 154.109 24.1525C154.88 23.7748 155.872 23.586 157.107 23.586C158.578 23.586 159.687 23.7984 160.435 24.2311C161.182 24.656 161.63 25.1831 161.78 25.8125C161.929 26.434 162.008 27.7242 162.008 29.6753V35.5993H157.775V34.5451C157.508 34.97 157.162 35.2846 156.745 35.4971C156.328 35.7095 155.824 35.8117 155.242 35.8117C154.479 35.8117 153.787 35.6387 153.149 35.2846C152.512 34.9306 152.198 34.1596 152.198 32.9638V31.9961C152.198 31.115 152.371 30.5092 152.701 30.1945C153.039 29.872 153.881 29.5022 155.219 29.0774C156.65 28.6132 157.413 28.3064 157.516 28.1412C157.618 27.9838 157.665 27.6534 157.665 27.1577C157.665 26.5441 157.61 26.1429 157.5 25.9541C157.39 25.7652 157.201 25.6787 156.941 25.6787C156.643 25.6787 156.462 25.7574 156.391 25.9147C156.32 26.0721 156.281 26.4812 156.281 27.1341V28.3693L156.273 28.3772ZM157.665 29.99C156.965 30.4148 156.556 30.761 156.446 31.052C156.336 31.3353 156.281 31.7444 156.281 32.2793C156.281 32.893 156.328 33.2864 156.43 33.4594C156.525 33.6404 156.721 33.7269 157.012 33.7269C157.303 33.7269 157.461 33.6561 157.547 33.5145C157.634 33.3729 157.673 33.011 157.673 32.4131V29.99H157.665ZM167.987 21.2022V23.0746H163.511V21.2022H167.987ZM167.987 23.8063V35.5993H163.511V23.8063H167.987ZM174.116 22.2407V24.0974H175.327V25.9698H174.116V32.2793C174.116 33.0503 174.171 33.483 174.265 33.5774C174.367 33.664 174.777 33.7112 175.5 33.7112V35.6072H173.738C172.747 35.6072 172.039 35.5757 171.606 35.5049C171.181 35.442 170.811 35.2768 170.481 35.0329C170.158 34.789 169.954 34.5058 169.875 34.1911C169.797 33.8764 169.757 33.129 169.757 31.9647V25.9855H168.829V24.1131H169.757V22.2564H174.1L174.116 22.2407ZM180.15 28.3772H176.067V27.5826C176.067 26.67 176.193 25.9698 176.452 25.4663C176.704 24.9707 177.223 24.538 177.986 24.1525C178.757 23.7748 179.749 23.586 180.984 23.586C182.455 23.586 183.564 23.7984 184.312 24.2311C185.059 24.656 185.508 25.1831 185.657 25.8125C185.807 26.434 185.885 27.7242 185.885 29.6753V35.5993H181.653V34.5451C181.385 34.97 181.039 35.2846 180.622 35.4971C180.205 35.7095 179.701 35.8117 179.119 35.8117C178.356 35.8117 177.664 35.6387 177.027 35.2846C176.389 34.9306 176.075 34.1596 176.075 32.9638V31.9961C176.075 31.115 176.248 30.5092 176.578 30.1945C176.916 29.872 177.758 29.5022 179.096 29.0774C180.528 28.6132 181.291 28.3064 181.393 28.1412C181.495 27.9838 181.542 27.6534 181.542 27.1577C181.542 26.5441 181.487 26.1429 181.377 25.9541C181.267 25.7652 181.078 25.6787 180.819 25.6787C180.52 25.6787 180.339 25.7574 180.268 25.9147C180.197 26.0721 180.158 26.4812 180.158 27.1341V28.3693L180.15 28.3772ZM181.542 29.99C180.842 30.4148 180.433 30.761 180.323 31.052C180.213 31.3353 180.158 31.7444 180.158 32.2793C180.158 32.893 180.205 33.2864 180.307 33.4594C180.402 33.6404 180.598 33.7269 180.889 33.7269C181.181 33.7269 181.338 33.6561 181.424 33.5145C181.511 33.3729 181.55 33.011 181.55 32.4131V29.99H181.542ZM191.793 23.8063L191.731 24.8998C192.045 24.4593 192.431 24.1367 192.887 23.9164C193.343 23.6962 193.87 23.586 194.468 23.586C195.216 23.586 195.822 23.7355 196.301 24.0266C196.773 24.3177 197.08 24.6796 197.214 25.128C197.348 25.5686 197.419 26.3081 197.419 27.3387V35.6072H193.076V27.441C193.076 26.6306 193.044 26.135 192.974 25.9541C192.911 25.7731 192.73 25.6866 192.431 25.6866C192.116 25.6866 191.927 25.7888 191.841 25.9934C191.762 26.1979 191.723 26.7487 191.723 27.6377V35.6072H187.38V23.8142H191.793V23.8063ZM208.024 23.8063L206.781 32.3423C206.584 33.6954 206.419 34.6159 206.285 35.1116C206.151 35.5993 205.931 36.0084 205.624 36.331C205.317 36.6536 204.893 36.8896 204.342 37.039C203.791 37.1885 202.918 37.2672 201.714 37.2672H199.079V35.3712C199.755 35.3712 200.188 35.3476 200.377 35.2846C200.573 35.2296 200.668 35.1037 200.668 34.907C200.668 34.8126 200.573 34.4035 200.392 33.6719L198.009 23.8142H201.95L203.374 31.7916L204.074 23.8142H208.008L208.024 23.8063ZM212.681 28.3772H208.598V27.5826C208.598 26.67 208.724 25.9698 208.983 25.4663C209.235 24.9707 209.754 24.538 210.518 24.1525C211.289 23.7748 212.28 23.586 213.515 23.586C214.986 23.586 216.095 23.7984 216.843 24.2311C217.59 24.656 218.039 25.1831 218.188 25.8125C218.338 26.434 218.416 27.7242 218.416 29.6753V35.5993H214.184V34.5451C213.916 34.97 213.57 35.2846 213.153 35.4971C212.736 35.7095 212.233 35.8117 211.65 35.8117C210.887 35.8117 210.195 35.6387 209.558 35.2846C208.921 34.9306 208.606 34.1596 208.606 32.9638V31.9961C208.606 31.115 208.779 30.5092 209.109 30.1945C209.448 29.872 210.289 29.5022 211.627 29.0774C213.059 28.6132 213.822 28.3064 213.924 28.1412C214.026 27.9838 214.074 27.6534 214.074 27.1577C214.074 26.5441 214.019 26.1429 213.908 25.9541C213.798 25.7652 213.609 25.6787 213.35 25.6787C213.051 25.6787 212.87 25.7574 212.799 25.9147C212.728 26.0721 212.689 26.4812 212.689 27.1341V28.3693L212.681 28.3772ZM214.074 29.99C213.373 30.4148 212.964 30.761 212.854 31.052C212.744 31.3353 212.689 31.7444 212.689 32.2793C212.689 32.893 212.736 33.2864 212.838 33.4594C212.933 33.6404 213.13 33.7269 213.421 33.7269C213.712 33.7269 213.869 33.6561 213.956 33.5145C214.042 33.3729 214.081 33.011 214.081 32.4131V29.99H214.074Z" fill="#DF2A2B"/>
<path d="M98.5938 47.3143V38.7862H104.714V39.7853H99.7188V42.4051H104.416V43.4043H99.7188V46.3073H104.919V47.3064H98.5938V47.3143ZM110.3 47.3143V46.5433C110.111 46.8423 109.868 47.0704 109.576 47.2278C109.278 47.3851 108.963 47.4638 108.617 47.4638C107.893 47.4638 107.263 47.1806 106.736 46.6141C106.209 46.0477 105.942 45.2531 105.942 44.2303C105.942 43.5301 106.06 42.9322 106.296 42.4445C106.532 41.9567 106.847 41.5948 107.24 41.3588C107.633 41.1228 108.066 41.0048 108.546 41.0048C108.884 41.0048 109.207 41.0756 109.498 41.225C109.789 41.3745 110.033 41.5791 110.229 41.8466V38.7862H111.268V47.3143H110.3ZM107.012 44.2382C107.012 45.0407 107.177 45.6307 107.515 46.0241C107.854 46.4096 108.247 46.6063 108.687 46.6063C109.128 46.6063 109.514 46.4174 109.836 46.0477C110.159 45.6779 110.324 45.1115 110.324 44.3562C110.324 43.4908 110.167 42.8536 109.836 42.4602C109.514 42.059 109.104 41.8623 108.609 41.8623C108.168 41.8623 107.798 42.0511 107.484 42.4366C107.169 42.8221 107.012 43.42 107.012 44.2382ZM116.917 47.3143V46.4096C116.681 46.7557 116.397 47.0232 116.075 47.1963C115.752 47.3694 115.383 47.4559 114.973 47.4559C114.494 47.4559 114.077 47.3458 113.73 47.1334C113.392 46.9209 113.156 46.6456 113.046 46.3152C112.928 45.9847 112.873 45.5363 112.873 44.962V41.1306H113.911V44.5608C113.911 45.198 113.951 45.6228 114.029 45.8431C114.108 46.0555 114.25 46.2286 114.454 46.3624C114.667 46.4882 114.903 46.5591 115.17 46.5591C115.666 46.5591 116.075 46.3938 116.39 46.0555C116.665 45.7645 116.799 45.2295 116.799 44.4506V41.1385H117.837V47.3222H116.917V47.3143ZM123.502 45.0643L124.54 45.198C124.422 45.9297 124.123 46.4961 123.651 46.8816C123.179 47.2671 122.613 47.4638 121.944 47.4638C121.141 47.4638 120.473 47.1884 119.953 46.6456C119.434 46.1028 119.175 45.2924 119.175 44.2303C119.175 43.1683 119.434 42.3501 119.961 41.8151C120.488 41.2801 121.165 41.0126 121.983 41.0126C122.62 41.0126 123.155 41.1778 123.588 41.5004C124.021 41.8229 124.304 42.3107 124.422 42.9637L123.415 43.1211C123.313 42.7041 123.148 42.3894 122.904 42.1849C122.66 41.9803 122.361 41.8702 122.022 41.8702C121.511 41.8702 121.086 42.059 120.748 42.4287C120.41 42.8064 120.244 43.3964 120.244 44.2146C120.244 45.0328 120.402 45.67 120.724 46.0398C121.047 46.4174 121.456 46.6063 121.952 46.6063C122.345 46.6063 122.683 46.4804 122.959 46.2365C123.234 45.9847 123.415 45.5992 123.486 45.0721L123.502 45.0643ZM129.41 46.5591C129.064 46.858 128.702 47.0862 128.324 47.2356C127.947 47.3851 127.553 47.4638 127.152 47.4638C126.515 47.4638 126.003 47.3064 125.618 46.9839C125.232 46.6692 125.044 46.2365 125.044 45.6936C125.044 45.3396 125.13 45.0171 125.311 44.7417C125.492 44.4664 125.736 44.2461 126.043 44.0966C126.349 43.9392 126.822 43.8291 127.459 43.7504C128.308 43.6482 128.93 43.5301 129.323 43.3964V43.1289C129.323 42.7041 129.237 42.4051 129.056 42.2321C128.796 41.9803 128.403 41.8623 127.868 41.8623C127.388 41.8623 127.026 41.9488 126.782 42.114C126.546 42.2792 126.365 42.5939 126.255 43.0424L125.217 42.885C125.366 42.2242 125.657 41.7521 126.106 41.4532C126.554 41.1542 127.191 41.0048 128.017 41.0048C128.662 41.0048 129.166 41.107 129.536 41.3037C129.905 41.5004 130.134 41.7521 130.228 42.0432C130.322 42.3422 130.37 42.767 130.37 43.3335V44.726C130.37 45.7015 130.393 46.3152 130.44 46.5748C130.488 46.8265 130.574 47.0783 130.708 47.3143H129.622C129.512 47.1019 129.441 46.8501 129.402 46.5512L129.41 46.5591ZM129.331 44.2225C128.954 44.3798 128.379 44.5057 127.632 44.6158C127.191 44.6788 126.884 44.7496 126.711 44.8283C126.538 44.9069 126.405 45.0171 126.302 45.1665C126.208 45.3082 126.161 45.4812 126.161 45.67C126.161 45.9611 126.271 46.1972 126.491 46.3781C126.711 46.5512 127.018 46.6456 127.412 46.6456C127.805 46.6456 128.12 46.5669 128.426 46.4096C128.733 46.2522 128.961 46.0398 129.111 45.7723C129.26 45.5048 129.339 45.1193 129.339 44.6158V44.2303L129.331 44.2225ZM134.319 46.3781L134.461 47.3064C134.17 47.3694 133.91 47.4008 133.682 47.4008C133.32 47.4008 133.029 47.3379 132.801 47.2199C132.58 47.1019 132.431 46.9367 132.344 46.7321C132.258 46.5276 132.218 46.1185 132.218 45.5048V41.941H131.455V41.1306H132.218V39.6044L133.257 38.975V41.1306H134.311V41.941H133.257V45.5599C133.257 45.8982 133.288 46.1106 133.351 46.205C133.438 46.3466 133.611 46.4174 133.855 46.4174C133.973 46.4174 134.13 46.4017 134.311 46.3702L134.319 46.3781ZM135.287 39.9899V38.7862H136.325V39.9899H135.287ZM135.287 47.3143V41.1306H136.325V47.3143H135.287ZM137.529 44.2303C137.529 43.1604 137.804 42.3579 138.339 41.8151C138.882 41.2722 139.567 41.0048 140.4 41.0048C141.234 41.0048 141.903 41.2801 142.454 41.8151C143.005 42.3579 143.28 43.1446 143.28 44.1674C143.28 45.2767 143.012 46.1028 142.47 46.6456C141.927 47.1884 141.242 47.4559 140.408 47.4559C139.574 47.4559 138.898 47.1806 138.355 46.6377C137.812 46.0949 137.537 45.2924 137.537 44.2303H137.529ZM138.599 44.2303C138.599 45.0328 138.772 45.6307 139.126 46.0162C139.48 46.4096 139.913 46.5984 140.432 46.5984C140.92 46.5984 141.337 46.4017 141.683 46.0083C142.029 45.615 142.202 45.0171 142.202 44.2225C142.202 43.4279 142.029 42.83 141.675 42.4445C141.321 42.0511 140.888 41.8623 140.369 41.8623C139.881 41.8623 139.456 42.059 139.11 42.4523C138.764 42.8457 138.591 43.4357 138.591 44.2303H138.599ZM144.507 47.3222V41.1385H145.443V42.0275C145.672 41.6892 145.947 41.4296 146.269 41.2644C146.6 41.0992 146.97 41.0126 147.394 41.0126C147.725 41.0126 148.024 41.0677 148.307 41.17C148.582 41.2722 148.811 41.4139 148.984 41.5869C149.157 41.76 149.283 41.9803 149.369 42.2635C149.456 42.5389 149.495 42.9637 149.495 43.5301V47.33H148.457V43.5773C148.457 43.121 148.409 42.7906 148.315 42.5861C148.221 42.3815 148.071 42.2163 147.874 42.0983C147.678 41.9882 147.45 41.9252 147.182 41.9252C146.686 41.9252 146.293 42.0747 145.994 42.3815C145.695 42.6884 145.553 43.2155 145.553 43.955V47.33H144.515L144.507 47.3222ZM155.089 46.5591C154.742 46.858 154.381 47.0862 154.003 47.2356C153.625 47.3851 153.232 47.4638 152.831 47.4638C152.193 47.4638 151.682 47.3064 151.297 46.9839C150.911 46.6692 150.722 46.2365 150.722 45.6936C150.722 45.3396 150.809 45.0171 150.99 44.7417C151.171 44.4664 151.415 44.2461 151.721 44.0966C152.028 43.9392 152.5 43.8291 153.138 43.7504C153.987 43.6482 154.609 43.5301 155.002 43.3964V43.1289C155.002 42.7041 154.916 42.4051 154.735 42.2321C154.475 41.9803 154.082 41.8623 153.547 41.8623C153.067 41.8623 152.705 41.9488 152.461 42.114C152.225 42.2792 152.044 42.5939 151.934 43.0424L150.895 42.885C151.045 42.2242 151.336 41.7521 151.784 41.4532C152.233 41.1542 152.87 41.0048 153.696 41.0048C154.341 41.0048 154.845 41.107 155.215 41.3037C155.584 41.5004 155.812 41.7521 155.907 42.0432C156.001 42.3422 156.048 42.767 156.048 43.3335V44.726C156.048 45.7015 156.072 46.3152 156.119 46.5748C156.166 46.8265 156.253 47.0783 156.387 47.3143H155.301C155.191 47.1019 155.12 46.8501 155.081 46.5512L155.089 46.5591ZM155.01 44.2225C154.632 44.3798 154.058 44.5057 153.311 44.6158C152.87 44.6788 152.563 44.7496 152.39 44.8283C152.217 44.9069 152.083 45.0171 151.981 45.1665C151.887 45.3082 151.839 45.4812 151.839 45.67C151.839 45.9611 151.95 46.1972 152.17 46.3781C152.39 46.5512 152.697 46.6456 153.09 46.6456C153.484 46.6456 153.798 46.5669 154.105 46.4096C154.412 46.2522 154.64 46.0398 154.79 45.7723C154.939 45.5048 155.018 45.1193 155.018 44.6158V44.2303L155.01 44.2225ZM157.645 47.3222V38.7941H158.684V47.3222H157.645ZM163.955 47.3222V38.7941H165.08V47.3222H163.955ZM166.89 47.3222V41.1385H167.826V42.0275C168.054 41.6892 168.329 41.4296 168.652 41.2644C168.982 41.0992 169.352 41.0126 169.777 41.0126C170.107 41.0126 170.406 41.0677 170.689 41.17C170.965 41.2722 171.193 41.4139 171.366 41.5869C171.539 41.76 171.665 41.9803 171.752 42.2635C171.838 42.5389 171.877 42.9637 171.877 43.5301V47.33H170.839V43.5773C170.839 43.121 170.792 42.7906 170.697 42.5861C170.603 42.3815 170.453 42.2163 170.257 42.0983C170.06 41.9882 169.832 41.9252 169.564 41.9252C169.069 41.9252 168.675 42.0747 168.376 42.3815C168.078 42.6884 167.936 43.2155 167.936 43.955V47.33H166.897L166.89 47.3222ZM173.073 45.4734L174.112 45.316C174.175 45.7487 174.34 46.0713 174.607 46.2837C174.883 46.4961 175.237 46.5984 175.685 46.5984C176.134 46.5984 176.48 46.504 176.724 46.323C176.968 46.1421 177.093 45.9061 177.093 45.6228C177.093 45.379 176.991 45.1901 176.787 45.0485C176.645 44.9541 176.291 44.844 175.732 44.7024C174.922 44.4978 174.379 44.3247 174.112 44.1831C173.836 44.0415 173.624 43.8448 173.474 43.6088C173.325 43.3649 173.246 43.0974 173.246 42.7906C173.246 42.2635 173.451 41.8387 173.86 41.5083C174.269 41.1778 174.835 41.0126 175.559 41.0126C176.016 41.0126 176.417 41.0834 176.763 41.2172C177.109 41.3509 177.369 41.5397 177.558 41.7679C177.739 41.996 177.864 42.3265 177.935 42.7513L176.928 42.9086C176.834 42.2163 176.385 41.8702 175.591 41.8702C175.134 41.8702 174.796 41.9488 174.576 42.0983C174.356 42.2478 174.245 42.4366 174.245 42.6726C174.245 42.9086 174.348 43.0817 174.568 43.2155C174.694 43.2941 175.079 43.42 175.709 43.5852C176.574 43.8055 177.125 43.9786 177.384 44.1123C177.636 44.2461 177.833 44.427 177.967 44.663C178.108 44.8991 178.179 45.1744 178.179 45.4891C178.179 46.0791 177.951 46.559 177.495 46.9209C177.038 47.2907 176.425 47.4717 175.638 47.4717C174.167 47.4717 173.317 46.8108 173.081 45.4812L173.073 45.4734ZM181.727 46.3781L181.869 47.3064C181.578 47.3694 181.318 47.4008 181.09 47.4008C180.728 47.4008 180.437 47.3379 180.209 47.2199C179.989 47.1019 179.839 46.9367 179.753 46.7321C179.666 46.5276 179.627 46.1185 179.627 45.5048V41.941H178.864V41.1306H179.627V39.6044L180.665 38.975V41.1306H181.719V41.941H180.665V45.5599C180.665 45.8982 180.697 46.1106 180.76 46.205C180.846 46.3466 181.019 46.4174 181.263 46.4174C181.381 46.4174 181.538 46.4017 181.719 46.3702L181.727 46.3781ZM182.695 39.9899V38.7862H183.733V39.9899H182.695ZM182.695 47.3143V41.1306H183.733V47.3143H182.695ZM187.651 46.3702L187.793 47.2986C187.502 47.3615 187.242 47.393 187.014 47.393C186.652 47.393 186.361 47.33 186.133 47.212C185.913 47.094 185.763 46.9288 185.677 46.7243C185.59 46.5197 185.551 46.1106 185.551 45.497V41.9331H184.788V41.1228H185.551V39.5965L186.589 38.9671V41.1228H187.643V41.9331H186.589V45.552C186.589 45.8903 186.621 46.1027 186.684 46.1972C186.77 46.3388 186.943 46.4096 187.187 46.4096C187.305 46.4096 187.462 46.3938 187.643 46.3624L187.651 46.3702ZM192.631 47.3143V46.4096C192.395 46.7557 192.112 47.0232 191.789 47.1963C191.467 47.3694 191.097 47.4559 190.688 47.4559C190.208 47.4559 189.791 47.3458 189.445 47.1334C189.107 46.9209 188.871 46.6456 188.761 46.3152C188.643 45.9847 188.587 45.5363 188.587 44.962V41.1306H189.626V44.5608C189.626 45.198 189.665 45.6228 189.744 45.8431C189.823 46.0555 189.964 46.2286 190.169 46.3624C190.381 46.4882 190.617 46.5591 190.885 46.5591C191.38 46.5591 191.789 46.3938 192.104 46.0555C192.38 45.7645 192.513 45.2295 192.513 44.4506V41.1385H193.552V47.3222H192.631V47.3143ZM197.525 46.3702L197.666 47.2986C197.375 47.3615 197.116 47.393 196.887 47.393C196.526 47.393 196.234 47.33 196.006 47.212C195.786 47.094 195.637 46.9288 195.55 46.7243C195.463 46.5197 195.424 46.1106 195.424 45.497V41.9331H194.661V41.1228H195.424V39.5965L196.463 38.9671V41.1228H197.517V41.9331H196.463V45.552C196.463 45.8903 196.494 46.1027 196.557 46.1972C196.644 46.3388 196.817 46.4096 197.061 46.4096C197.179 46.4096 197.336 46.3938 197.517 46.3624L197.525 46.3702ZM198.492 39.982V38.7783H199.531V39.982H198.492ZM198.492 47.3064V41.1228H199.531V47.3064H198.492ZM200.735 44.2225C200.735 43.1525 201.01 42.3501 201.545 41.8072C202.088 41.2644 202.772 40.9969 203.606 40.9969C204.44 40.9969 205.109 41.2722 205.659 41.8072C206.21 42.3501 206.486 43.1368 206.486 44.1595C206.486 45.2688 206.218 46.0949 205.675 46.6377C205.132 47.1806 204.448 47.4481 203.614 47.4481C202.78 47.4481 202.103 47.1727 201.561 46.6299C201.018 46.087 200.742 45.2846 200.742 44.2225H200.735ZM201.804 44.2225C201.804 45.0249 201.978 45.6228 202.332 46.0083C202.686 46.4017 203.118 46.5905 203.638 46.5905C204.125 46.5905 204.542 46.3938 204.888 46.0005C205.235 45.6071 205.408 45.0092 205.408 44.2146C205.408 43.42 205.235 42.8221 204.881 42.4366C204.527 42.0432 204.094 41.8544 203.575 41.8544C203.087 41.8544 202.662 42.0511 202.316 42.4445C201.97 42.8378 201.797 43.4279 201.797 44.2225H201.804ZM207.713 47.3143V41.1306H208.649V42.0196C208.877 41.6813 209.153 41.4217 209.475 41.2565C209.806 41.0913 210.175 41.0048 210.6 41.0048C210.931 41.0048 211.229 41.0598 211.513 41.1621C211.788 41.2644 212.016 41.406 212.189 41.5791C212.362 41.7521 212.488 41.9724 212.575 42.2557C212.661 42.531 212.701 42.9558 212.701 43.5223V47.3222H211.662V43.5695C211.662 43.1132 211.615 42.7828 211.521 42.5782C211.426 42.3737 211.277 42.2084 211.08 42.0904C210.883 41.9803 210.655 41.9174 210.388 41.9174C209.892 41.9174 209.499 42.0668 209.2 42.3737C208.901 42.6805 208.759 43.2076 208.759 43.9471V47.3222H207.721L207.713 47.3143ZM213.896 45.4655L214.935 45.3082C214.998 45.7409 215.163 46.0634 215.431 46.2758C215.706 46.4882 216.06 46.5905 216.508 46.5905C216.957 46.5905 217.303 46.4961 217.547 46.3152C217.791 46.1342 217.917 45.8982 217.917 45.615C217.917 45.3711 217.814 45.1823 217.61 45.0407C217.468 44.9463 217.114 44.8361 216.556 44.6945C215.745 44.49 215.202 44.3169 214.935 44.1753C214.66 44.0337 214.447 43.837 214.298 43.601C214.148 43.3571 214.07 43.0896 214.07 42.7828C214.07 42.2557 214.274 41.8308 214.683 41.5004C215.092 41.17 215.659 41.0048 216.383 41.0048C216.839 41.0048 217.24 41.0756 217.586 41.2093C217.932 41.343 218.192 41.5319 218.381 41.76C218.562 41.9882 218.688 42.3186 218.758 42.7434L217.751 42.9008C217.657 42.2084 217.209 41.8623 216.414 41.8623C215.958 41.8623 215.619 41.941 215.399 42.0904C215.179 42.2399 215.069 42.4287 215.069 42.6648C215.069 42.9008 215.171 43.0738 215.391 43.2076C215.517 43.2863 215.903 43.4121 216.532 43.5773C217.397 43.7976 217.948 43.9707 218.208 44.1045C218.46 44.2382 218.656 44.4192 218.79 44.6552C218.932 44.8912 219.002 45.1665 219.002 45.4812C219.002 46.0713 218.774 46.5512 218.318 46.9131C217.862 47.2828 217.248 47.4638 216.461 47.4638C214.99 47.4638 214.14 46.8029 213.904 45.4734L213.896 45.4655Z" fill="#5B5C5E"/>
<path d="M0.00786895 25.9528C0.00786895 25.8505 0.0393342 25.764 0.102272 25.6931C0.165211 25.6223 0.259617 25.583 0.377626 25.583H2.85582C2.94236 25.583 3.0289 25.6145 3.12331 25.6853C3.21772 25.7561 3.26492 25.8426 3.26492 25.9528V37.7301C3.26492 37.974 3.12331 38.0998 2.84795 38.0998H0.369763C0.125877 38.0998 0 37.974 0 37.7301V25.9528H0.00786895Z" fill="#00364E"/>
<path d="M5.01704 27.5461C5.08785 27.4831 5.16652 27.4438 5.2452 27.4281C5.32387 27.4123 5.40254 27.4045 5.48122 27.4045H6.75571C6.85799 27.4045 6.94453 27.4202 7.01533 27.4595C7.08614 27.4989 7.14907 27.5461 7.20415 27.609C7.25135 27.672 7.29856 27.7428 7.33002 27.8214C7.36149 27.9001 7.39296 27.9788 7.41657 28.0653L7.58965 28.8048C7.67619 28.6318 7.80993 28.4508 7.99874 28.2699C8.18756 28.0811 8.42357 27.9158 8.69893 27.7664C8.97428 27.6169 9.29684 27.491 9.66661 27.3887C10.0285 27.2943 10.4376 27.2393 10.886 27.2393C11.5311 27.2393 12.0976 27.3651 12.6011 27.609C13.1046 27.8529 13.5294 28.1912 13.8835 28.616C14.2375 29.0409 14.505 29.5365 14.6859 30.1108C14.8669 30.6773 14.9613 31.2909 14.9613 31.936V37.4588C14.9613 37.6713 14.9141 37.8365 14.8197 37.9466C14.7253 38.0568 14.5758 38.1118 14.3791 38.1118H12.428C12.1841 38.1118 12.0189 38.0725 11.9324 37.9938C11.8458 37.9151 11.7986 37.7499 11.7986 37.5218V32.0383C11.7986 31.7944 11.7436 31.5663 11.6334 31.3538C11.5233 31.1414 11.3817 30.9447 11.2007 30.7795C11.0198 30.6143 10.8152 30.4806 10.5871 30.3862C10.3589 30.2918 10.1308 30.2446 9.89476 30.2446C9.69021 30.2446 9.48566 30.2918 9.27324 30.3783C9.06083 30.4648 8.87201 30.5907 8.69107 30.7559C8.51799 30.9133 8.3685 31.1021 8.24262 31.3224C8.12462 31.5348 8.05381 31.7708 8.03808 32.0226V37.4982C8.03808 37.5926 8.02235 37.687 7.98301 37.7814C7.94367 37.8758 7.8886 37.9466 7.8178 38.0017C7.74699 38.0489 7.67619 38.0804 7.61325 38.0961C7.55031 38.1118 7.47164 38.1197 7.39296 38.1197H5.48908C5.24519 38.1197 5.07212 38.0568 4.96984 37.9466C4.8597 37.8286 4.8125 37.6713 4.8125 37.4746V28.0496C4.8125 27.9394 4.8361 27.845 4.8833 27.7585C4.93051 27.672 4.99344 27.6012 5.07998 27.5461L5.03278 27.5697L5.01704 27.5461Z" fill="#00364E"/>
<path d="M17.1591 27.547C17.1591 27.0277 17.2692 26.5321 17.4974 26.0758C17.7255 25.6116 18.0245 25.2104 18.4021 24.8642C18.7797 24.5181 19.2124 24.2427 19.7002 24.046C20.188 23.8493 20.6993 23.7471 21.2343 23.7471H21.3995C21.5883 23.7471 21.7378 23.8021 21.8401 23.9202C21.9424 24.0382 21.9974 24.1955 21.9974 24.4001V26.0128C21.9974 26.2174 21.9424 26.3905 21.8322 26.5321C21.7221 26.6658 21.5805 26.7366 21.3995 26.7366H21.2343C21.1163 26.7366 21.0062 26.7602 20.896 26.7996C20.7859 26.8389 20.6915 26.9019 20.6128 26.9727C20.5263 27.0435 20.4633 27.13 20.4082 27.2323C20.361 27.3267 20.3296 27.4368 20.3296 27.5548V28.5225H21.6513C21.8401 28.5225 21.9896 28.5776 22.0918 28.6799C22.1941 28.7821 22.2492 28.9473 22.2492 29.1755V30.7175C22.2492 30.9614 22.1941 31.1344 22.0918 31.2446C21.9896 31.3547 21.8401 31.4098 21.6513 31.4098H20.3296V37.4519C20.3296 37.6643 20.2588 37.8295 20.1172 37.9396C19.9755 38.0498 19.8182 38.1048 19.6451 38.1048H17.8199C17.6154 38.1048 17.458 38.0419 17.3321 37.916C17.2141 37.7902 17.1512 37.6328 17.1512 37.4597V31.4177H16.2858C16.0891 31.4177 15.9318 31.3626 15.8138 31.2525C15.6957 31.1423 15.6328 30.9614 15.6328 30.7175V29.1755C15.6328 28.9473 15.6957 28.79 15.8138 28.6799C15.9318 28.5776 16.0891 28.5225 16.2858 28.5225H17.1512V27.5548L17.1591 27.547Z" fill="#00364E"/>
<path d="M22.8281 23.7907C22.8281 23.5547 22.8753 23.3894 22.9776 23.2872C23.0799 23.1928 23.2372 23.1377 23.4496 23.1377H25.4086C25.6053 23.1377 25.7626 23.1849 25.8885 23.2872C26.0065 23.3894 26.0694 23.5547 26.0694 23.7907V25.4349C26.0694 25.5057 26.0537 25.5765 26.0222 25.6552C25.9908 25.7339 25.9514 25.8126 25.8885 25.8834C25.8334 25.9542 25.7626 26.0171 25.6839 26.0643C25.6053 26.1115 25.5109 26.1351 25.4086 26.1351H23.4496C23.0327 26.1351 22.8281 25.8991 22.8281 25.4349V23.7907ZM22.8281 28.0547C22.8281 27.8738 22.8753 27.7165 22.9776 27.5906C23.0799 27.4647 23.2372 27.3939 23.4496 27.3939H25.3771C25.4479 27.3939 25.5187 27.4096 25.5974 27.4411C25.6761 27.4726 25.7469 27.5198 25.8177 27.5748C25.8885 27.6299 25.9436 27.7007 25.9908 27.7794C26.038 27.8581 26.0616 27.9446 26.0616 28.0469V37.4404C26.0616 37.6528 26.0065 37.818 25.8885 37.9282C25.7705 38.0383 25.6053 38.0934 25.385 38.0934H23.4575C23.0405 38.0934 22.836 37.881 22.836 37.4483V28.0547H22.8281Z" fill="#00364E"/>
<path d="M27.2436 27.5461C27.3144 27.4831 27.393 27.4438 27.4717 27.4281C27.5504 27.4123 27.6291 27.4045 27.7077 27.4045H28.9822C29.0845 27.4045 29.171 27.4202 29.2418 27.4595C29.3126 27.4989 29.3756 27.5461 29.4307 27.609C29.4779 27.672 29.5251 27.7428 29.5565 27.8214C29.588 27.9001 29.6195 27.9788 29.6431 28.0653L29.824 28.8048C29.9106 28.6318 30.0443 28.4508 30.2331 28.2699C30.4219 28.0811 30.6579 27.9158 30.9333 27.7664C31.2087 27.6169 31.5312 27.491 31.901 27.3887C32.2629 27.2943 32.672 27.2393 33.1204 27.2393C33.7577 27.2393 34.332 27.3651 34.8355 27.609C35.339 27.8529 35.7638 28.1912 36.1178 28.616C36.4719 29.0409 36.7394 29.5365 36.9203 30.1108C37.1012 30.6773 37.1957 31.2909 37.1957 31.936V37.4588C37.1957 37.6713 37.1484 37.8365 37.054 37.9466C36.9596 38.0568 36.8102 38.1118 36.6135 38.1118H34.6624C34.4185 38.1118 34.2533 38.0725 34.1668 37.9938C34.0802 37.9151 34.033 37.7499 34.033 37.5218V32.0383C34.033 31.7944 33.9779 31.5663 33.8678 31.3538C33.7577 31.1414 33.616 30.9447 33.4351 30.7795C33.2541 30.6143 33.0496 30.4806 32.8214 30.3862C32.5933 30.2918 32.3651 30.2446 32.1291 30.2446C31.9246 30.2446 31.72 30.2918 31.5076 30.3783C31.2952 30.4648 31.1064 30.5907 30.9254 30.7559C30.7445 30.9133 30.595 31.1021 30.477 31.3224C30.359 31.5427 30.2882 31.7708 30.2725 32.0226V37.4982C30.2725 37.5926 30.2567 37.687 30.2174 37.7814C30.178 37.8758 30.123 37.9466 30.0522 38.0017C29.9814 38.0489 29.9106 38.0804 29.8476 38.0961C29.7847 38.1118 29.706 38.1197 29.6273 38.1197H27.7235C27.4796 38.1197 27.3065 38.0568 27.2042 37.9466C27.0941 37.8286 27.0469 37.6713 27.0469 37.4746V28.0496C27.0469 27.9394 27.0705 27.845 27.1177 27.7585C27.1649 27.672 27.2357 27.6012 27.3144 27.5461L27.2672 27.5697L27.2436 27.5461Z" fill="#00364E"/>
<path d="M38.3594 23.7907C38.3594 23.5547 38.4066 23.3894 38.5089 23.2872C38.6111 23.1928 38.7685 23.1377 38.9809 23.1377H40.9398C41.1365 23.1377 41.2939 23.1849 41.4197 23.2872C41.5378 23.3894 41.6007 23.5547 41.6007 23.7907V25.4349C41.6007 25.5057 41.585 25.5765 41.5535 25.6552C41.522 25.7339 41.4748 25.8126 41.4197 25.8834C41.3647 25.9542 41.2939 26.0171 41.2152 26.0643C41.1365 26.1115 41.0421 26.1351 40.9398 26.1351H38.9809C38.5639 26.1351 38.3594 25.8991 38.3594 25.4349V23.7907ZM38.3594 28.0547C38.3594 27.8738 38.4066 27.7165 38.5089 27.5906C38.6111 27.4647 38.7685 27.3939 38.9809 27.3939H40.9162C40.987 27.3939 41.0578 27.4096 41.1365 27.4411C41.2152 27.4726 41.286 27.5198 41.3568 27.5748C41.4276 27.6299 41.4827 27.7007 41.5299 27.7794C41.5771 27.8581 41.6007 27.9446 41.6007 28.0469V37.4404C41.6007 37.6528 41.5377 37.818 41.4276 37.9282C41.3096 38.0383 41.1444 38.0934 40.9241 38.0934H38.9966C38.5797 38.0934 38.3751 37.881 38.3751 37.4483V28.0547H38.3594Z" fill="#00364E"/>
<path d="M43.6435 25.725C43.6435 25.5519 43.6986 25.4182 43.8166 25.3317C43.9346 25.2451 44.0998 25.1586 44.3122 25.0799L46.224 24.4112C46.224 24.4112 46.279 24.4033 46.3026 24.4033H46.3734C46.578 24.4033 46.7196 24.4663 46.7904 24.5843C46.8612 24.7023 46.8927 24.8675 46.8927 25.0642V27.385H48.0413C48.2222 27.385 48.3639 27.4401 48.4819 27.5424C48.592 27.6525 48.6471 27.8099 48.6471 28.0223V29.6508C48.6471 29.8868 48.592 30.0599 48.4819 30.17C48.3717 30.2802 48.2222 30.3353 48.0413 30.3353H46.8848V37.4473C46.8927 37.6597 46.8297 37.8249 46.7117 37.935C46.5859 38.0452 46.4128 38.1002 46.2004 38.1002H44.2965C43.8638 38.1002 43.6435 37.8878 43.6435 37.4551V30.3431H42.7624C42.3297 30.3431 42.1094 30.115 42.1094 29.6587V28.0301C42.1094 27.6053 42.3218 27.3929 42.7624 27.3929H43.6278V25.7329L43.6435 25.725Z" fill="#00364E"/>
<path d="M0.015625 42.3121C0.015625 42.2099 0.0470979 42.1233 0.117903 42.0525C0.188709 41.9817 0.275248 41.9424 0.393257 41.9424H2.88718C2.98159 41.9424 3.06813 41.9738 3.1468 42.0446C3.22547 42.1155 3.26481 42.202 3.27268 42.3121V51.4854H7.91437C8.01664 51.4854 8.10318 51.5168 8.17399 51.5877C8.24479 51.6585 8.28413 51.745 8.28413 51.863V54.0816C8.28413 54.176 8.25266 54.2625 8.18972 54.3412C8.12678 54.4199 8.03238 54.4592 7.91437 54.4671H0.385388C0.141502 54.4671 0.015625 54.3412 0.015625 54.0973V42.3121Z" fill="#3282C5"/>
<path d="M18.0414 53.1811C17.5457 53.6374 16.9871 53.9914 16.3735 54.251C15.752 54.5028 15.099 54.6365 14.4067 54.6365C13.6357 54.6365 12.9119 54.4949 12.2196 54.2117C11.5351 53.9285 10.9293 53.543 10.418 53.0473C9.89873 52.5517 9.48963 51.9617 9.19068 51.2929C8.88385 50.6164 8.73438 49.8847 8.73438 49.0901C8.73438 48.5945 8.79732 48.1146 8.91532 47.6504C9.03333 47.1862 9.20641 46.7535 9.42669 46.3444C9.64698 45.9432 9.92234 45.5656 10.237 45.2273C10.5517 44.889 10.9057 44.5979 11.307 44.354C11.7003 44.1101 12.1252 43.9213 12.5893 43.7876C13.0535 43.6538 13.5334 43.583 14.0448 43.583C14.509 43.583 14.9653 43.6459 15.4058 43.7718C15.8464 43.8977 16.2555 44.0708 16.641 44.2911C17.0265 44.5192 17.3805 44.7867 17.7031 45.1014C18.0256 45.4161 18.301 45.7622 18.5291 46.132C18.7573 46.5018 18.9382 46.903 19.0641 47.3278C19.19 47.7527 19.2529 48.1854 19.2529 48.6417C19.2529 48.9327 19.2529 49.1688 19.2372 49.3576C19.2372 49.5385 19.1821 49.688 19.1034 49.7981C19.0248 49.9083 18.891 49.987 18.7101 50.0263C18.5291 50.0656 18.2616 50.0892 17.9076 50.0892H11.8341C11.8892 50.4511 12.0072 50.7501 12.1724 50.994C12.3455 51.2379 12.5421 51.4267 12.7703 51.5683C12.9984 51.7099 13.2345 51.8122 13.4862 51.8751C13.738 51.938 13.9818 51.9695 14.2021 51.9695C14.4067 51.9695 14.6112 51.9459 14.8236 51.9066C15.0361 51.8672 15.2406 51.8122 15.4452 51.7414C15.6418 51.6706 15.8307 51.5919 15.9959 51.4975C16.1611 51.4031 16.2948 51.3087 16.3971 51.2064C16.4836 51.1356 16.5623 51.0805 16.6252 51.0412C16.6882 51.0018 16.759 50.9861 16.8298 50.9861C16.9006 50.9861 16.9793 51.0097 17.0501 51.0648C17.1288 51.112 17.2153 51.1907 17.3097 51.2851L18.2066 52.2999C18.2695 52.3708 18.3088 52.4416 18.3246 52.4966C18.3403 52.5517 18.3482 52.6146 18.3482 52.6776C18.3482 52.7877 18.3167 52.89 18.2538 52.9687C18.1908 53.0473 18.12 53.126 18.0335 53.1811H18.0414ZM13.9818 46.1635C13.7616 46.1635 13.5491 46.2107 13.3446 46.2972C13.14 46.3838 12.9434 46.5018 12.7703 46.6512C12.5893 46.8007 12.432 46.9659 12.2825 47.1469C12.1409 47.3357 12.0229 47.5245 11.9364 47.7133H16.2476C16.1296 47.493 16.0037 47.2885 15.8621 47.1075C15.7205 46.9187 15.5632 46.7614 15.3901 46.6198C15.217 46.4782 15.0125 46.368 14.7843 46.2894C14.5562 46.2107 14.2887 46.1713 13.9897 46.1713L13.9818 46.1635Z" fill="#3282C5"/>
<path d="M31.1805 53.8419C31.1805 53.9363 31.1648 54.0307 31.1333 54.1173C31.1018 54.2038 31.0468 54.2746 30.9681 54.3218C30.9051 54.3848 30.8343 54.4241 30.7478 54.4398C30.6613 54.4556 30.5904 54.4634 30.5275 54.4634H28.8675C28.7495 54.4634 28.6551 54.4477 28.5843 54.4162C28.5135 54.3848 28.4506 54.3454 28.4033 54.2825C28.3561 54.2274 28.3168 54.1566 28.2853 54.078C28.2539 53.9993 28.2224 53.9049 28.1909 53.8105L28.0808 53.4328C27.9313 53.5823 27.7582 53.7318 27.5615 53.8813C27.3649 54.0308 27.1524 54.1566 26.9243 54.2746C26.6883 54.3926 26.4444 54.487 26.1769 54.55C25.9094 54.6208 25.6341 54.6523 25.343 54.6523C24.8316 54.6523 24.3438 54.5893 23.8718 54.4556C23.3998 54.3297 22.9671 54.1409 22.558 53.9049C22.1489 53.6689 21.7791 53.3778 21.4487 53.0473C21.1182 52.709 20.835 52.3393 20.5911 51.9302C20.3551 51.5211 20.1663 51.0805 20.0404 50.6006C19.9146 50.1286 19.8438 49.6329 19.8438 49.1137C19.8438 48.3348 19.9854 47.6032 20.2765 46.9345C20.5597 46.2658 20.953 45.6757 21.4487 45.1801C21.9443 44.6844 22.5265 44.2911 23.1952 44.0078C23.8639 43.7246 24.5799 43.583 25.343 43.583C25.6891 43.583 26.0196 43.6224 26.3185 43.701C26.6175 43.7797 26.8928 43.8898 27.1446 44.0236C27.3963 44.1573 27.6166 44.3225 27.8212 44.5114C28.0257 44.7002 28.1988 44.9047 28.3561 45.125L28.6 44.3619C28.6551 44.2203 28.7023 44.1101 28.7416 44.0236C28.781 43.937 28.8203 43.8741 28.8596 43.8269C28.899 43.7876 28.9541 43.7561 29.017 43.7404C29.0799 43.7246 29.1665 43.7168 29.2766 43.7168H30.5354C30.5983 43.7168 30.6691 43.7246 30.7557 43.7404C30.8422 43.7561 30.913 43.7954 30.9759 43.8584C31.0546 43.9213 31.1097 43.9921 31.1412 44.0708C31.1726 44.1495 31.1884 44.236 31.1884 44.3383V53.8341L31.1805 53.8419ZM22.8727 49.1216C22.8727 49.4913 22.9277 49.8375 23.0457 50.16C23.1637 50.4826 23.329 50.7658 23.5414 51.0019C23.7538 51.2379 24.0134 51.4267 24.3124 51.5604C24.6113 51.702 24.9496 51.765 25.3115 51.765C25.6734 51.765 26.0353 51.6942 26.3579 51.5604C26.6804 51.4267 26.9636 51.2379 27.1997 51.0019C27.4357 50.7658 27.6245 50.4905 27.7582 50.16C27.892 49.8375 27.9628 49.4913 27.9628 49.1216C27.9628 48.7518 27.892 48.4214 27.7582 48.091C27.6245 47.7684 27.4357 47.4773 27.1997 47.2334C26.9636 46.9895 26.6804 46.7929 26.3579 46.6513C26.0353 46.5096 25.6813 46.4388 25.3115 46.4388C24.9417 46.4388 24.6113 46.5096 24.3124 46.6513C24.0134 46.7929 23.7538 46.9895 23.5414 47.2334C23.329 47.4773 23.1637 47.7684 23.0457 48.091C22.9277 48.4135 22.8727 48.7597 22.8727 49.1216Z" fill="#3282C5"/>
<path d="M32.3672 44.3854C32.3672 44.2831 32.3908 44.1887 32.4301 44.11C32.4695 44.0313 32.5245 43.9684 32.5875 43.9133C32.6504 43.8661 32.7212 43.8268 32.8078 43.8032C32.8864 43.7796 32.973 43.7639 33.0516 43.7639H34.3261C34.4677 43.7639 34.5779 43.8032 34.6644 43.8897C34.751 43.9763 34.8218 44.0785 34.8768 44.2123C34.9319 44.3382 34.987 44.4876 35.0342 44.645C35.0814 44.8023 35.1365 44.9518 35.1915 45.1013C35.3567 44.9125 35.5298 44.7315 35.695 44.5506C35.8603 44.3696 36.0412 44.2123 36.23 44.0707C36.4188 43.9291 36.6312 43.8189 36.8594 43.7324C37.0875 43.6458 37.3472 43.5986 37.6383 43.5986C37.9293 43.5986 38.2126 43.6222 38.4486 43.6694C38.6846 43.7166 38.9128 43.7796 39.1252 43.8661C39.3376 43.9527 39.55 44.0628 39.7624 44.1965C39.9748 44.3303 40.203 44.4876 40.4469 44.6686C40.6908 44.8102 40.8088 44.9754 40.8088 45.1642C40.8088 45.2901 40.7616 45.4317 40.6672 45.5969L39.8962 46.9029C39.7467 47.1232 39.5579 47.2333 39.3297 47.2333C39.2196 47.2333 39.0937 47.2018 38.9521 47.1389C38.7082 46.9029 38.4643 46.7298 38.2126 46.6118C37.9608 46.4938 37.6776 46.4387 37.355 46.4387C37.1348 46.4387 36.9459 46.4702 36.7807 46.5331C36.6155 46.5961 36.466 46.6826 36.3323 46.7927C36.1985 46.9029 36.0727 47.0366 35.9547 47.194C35.8367 47.3513 35.7186 47.5244 35.6006 47.7132V53.8182C35.6006 54.0306 35.5456 54.1958 35.4433 54.306C35.341 54.4161 35.1679 54.4712 34.9241 54.4712H33.028C32.5875 54.4712 32.3672 54.2588 32.3672 53.8261V44.3932V44.3854Z" fill="#3282C5"/>
<path d="M41.4389 43.9055C41.5097 43.8425 41.5884 43.8032 41.6749 43.7875C41.7536 43.7717 41.8323 43.7639 41.9031 43.7639H43.1776C43.2799 43.7639 43.3664 43.7796 43.4372 43.8189C43.508 43.8583 43.571 43.9055 43.626 43.9684C43.6732 44.0313 43.7204 44.1021 43.7519 44.1808C43.7834 44.2595 43.8148 44.3382 43.8384 44.4247L44.0115 45.1642C44.0981 44.9911 44.2318 44.8102 44.4206 44.6293C44.6094 44.4404 44.8455 44.2752 45.1208 44.1258C45.3962 43.9763 45.7187 43.8504 46.0885 43.7481C46.4504 43.6537 46.8595 43.5986 47.3079 43.5986C47.9452 43.5986 48.5195 43.7245 49.023 43.9684C49.5265 44.2123 49.9513 44.5506 50.3053 44.9754C50.6594 45.4002 50.9269 45.8959 51.1078 46.4702C51.2888 47.0366 51.3832 47.6503 51.3832 48.2954V53.8182C51.3832 54.0306 51.336 54.1958 51.2415 54.306C51.1471 54.4161 50.9977 54.4712 50.801 54.4712H48.8499C48.606 54.4712 48.4408 54.4319 48.3543 54.3453C48.2677 54.2667 48.2205 54.1015 48.2205 53.8733V48.3898C48.2205 48.1459 48.1654 47.9178 48.0553 47.7053C47.9452 47.4929 47.8035 47.2963 47.6226 47.131C47.4416 46.9658 47.2371 46.8321 47.0089 46.7377C46.7808 46.6433 46.5527 46.5961 46.3166 46.5961C46.1121 46.5961 45.9075 46.6433 45.6951 46.7298C45.4827 46.8164 45.286 46.9422 45.1129 47.1074C44.9399 47.2648 44.7904 47.4536 44.6645 47.6739C44.5465 47.8863 44.4757 48.1223 44.46 48.3741V53.8497C44.46 53.9441 44.4442 54.0385 44.4049 54.1329C44.3655 54.2273 44.3105 54.2981 44.2397 54.3532C44.1689 54.4004 44.0981 54.4319 44.0351 54.4476C43.9722 54.4633 43.8935 54.4712 43.8148 54.4712H41.911C41.6671 54.4712 41.494 54.4083 41.3917 54.2981C41.2816 54.1801 41.2344 54.0228 41.2344 53.8261V44.4011C41.2344 44.2988 41.258 44.1966 41.3052 44.11C41.3524 44.0235 41.4153 43.9527 41.5019 43.8976L41.4547 43.9212L41.4389 43.9055Z" fill="#3282C5"/>
<path d="M63.9236 28.265L54.1131 42.0485C54.1131 42.0485 53.8063 42.4654 54.3806 42.5598H62.9087C62.9087 42.5598 64.6631 42.4103 65.7645 40.3491L74.3713 28.1785C74.3713 28.1785 74.4657 28.0447 74.4421 27.9346H64.1596C64.1596 27.9346 63.9787 28.1863 63.9236 28.2571V28.265Z" fill="url(#paint0_linear_0_3089)"/>
<path d="M57.5408 28.265L47.7303 42.0485C47.7303 42.0485 47.4235 42.4654 47.9978 42.5598H50.3422C50.3422 42.5598 52.0966 42.4103 53.1981 40.3491L61.8049 28.1785C61.8049 28.1785 61.8993 28.0447 61.8757 27.9346H57.7768C57.7768 27.9346 57.5959 28.1863 57.5408 28.2571V28.265Z" fill="url(#paint1_linear_0_3089)"/>
<path d="M63.9236 27.6122L54.1131 13.8288C54.1131 13.8288 53.8063 13.4118 54.3806 13.3174H62.9087C62.9087 13.3174 64.6631 13.4669 65.7645 15.5281L74.3713 27.6988C74.3713 27.6988 74.4657 27.8325 74.4421 27.9426H64.1596C64.1596 27.9426 63.9787 27.6909 63.9236 27.6201V27.6122Z" fill="url(#paint2_linear_0_3089)"/>
<path d="M51.971 34.7513L54.0952 32.0371L52.624 27.9382C52.624 27.9382 52.4981 27.4662 52.1362 27.4111H49.8075C49.8075 27.4111 49.1781 27.4505 49.2568 28.1271L51.971 34.7513Z" fill="#00364E"/>
<path d="M60.3491 35.8018L60.3098 37.8237L58.4609 36.7773L60.3491 35.8018Z" fill="#2B78B2"/>
<path d="M59.7477 41.0894L58.1113 42.2852L57.8281 40.1768L59.7477 41.0894Z" fill="#174F85"/>
<path d="M56.4212 38.6145L55.3906 38.1975L56.2954 37.458L56.4212 38.6145Z" fill="#6DC6E1"/>
<path d="M64.3665 43.2942L63.3438 42.8694L64.2406 42.1299L64.3665 43.2942Z" fill="#6DC6E1"/>
<path d="M66.1618 37.7534L64.5254 38.9493L64.2422 36.8408L66.1618 37.7534Z" fill="#6DC6E1"/>
<path d="M63.0592 35.0049L63.0435 36.067L62.4062 35.8388L63.0592 35.0049Z" fill="#6DC6E1"/>
<path d="M59.4832 32.0674L59.9001 33.098L58.9167 33.9319L58.5312 32.9879L59.4832 32.0674Z" fill="#6DC6E1"/>
<path d="M55.1799 41.2783L55.8014 42.9147L55.1484 42.9069L55.1799 41.2783Z" fill="#6DC6E1"/>
<path d="M56.152 32.6145L54.5156 33.236L54.5235 32.583L56.152 32.6145Z" fill="#6DC6E1"/>
<path d="M60.5 39.5361L62.2308 39.7564L61.9161 40.3229L60.5 39.5361Z" fill="#6DC6E1"/>
<path d="M57.3056 35.0578L57.1719 34.1924L57.4866 34.2711L57.3056 35.0578Z" fill="#174F85"/>
<path d="M68.1163 31.6846L67.6364 33.3682L67.125 32.9669L68.1163 31.6846Z" fill="#174F85"/>
<path d="M62.2188 29.7705L63.328 30.0459L63.0842 30.392L62.2188 29.7705Z" fill="#2B78B2"/>
<path d="M53.6965 36.6862L52.1073 37.6696L51.2812 36.5996L51.9578 35.333L53.6965 36.6862Z" fill="#6DC6E1"/>
<path d="M53.0773 42.0597L53.0537 43.2162L52.0781 42.8465L52.0939 42.0361L53.0773 42.0597Z" fill="#6DC6E1"/>
<path d="M48.508 38.2705L48.4766 39.8912L49.8533 39.427L49.8691 38.2941L48.508 38.2705Z" fill="#2B78B2"/>
<path d="M65.8273 30.466L65.8037 31.6225L64.8281 31.2606L64.8439 30.4424L65.8273 30.466Z" fill="#2B78B2"/>
<path d="M69.3489 41.5986L70.1042 42.4798L69.1286 42.8495L68.6094 42.228L69.3489 41.5986Z" fill="#2B78B2"/>
<path d="M66.1751 34.7627L66.6392 35.3134L66.0413 35.5337L65.7188 35.1561L66.1751 34.7627Z" fill="#2B78B2"/>
<path d="M54.1985 45.7549L54.6627 46.2977L54.0648 46.5259L53.7344 46.1482L54.1985 45.7549Z" fill="#2B78B2"/>
<path d="M72.8413 27.1768L72.802 29.1986L70.9453 28.1523L72.8413 27.1768Z" fill="#2B78B2"/>
<path d="M72.24 32.4644L70.6036 33.6602L70.3125 31.5518L72.24 32.4644Z" fill="#174F85"/>
<path d="M68.8977 29.9895L67.875 29.5725L68.7719 28.833L68.8977 29.9895Z" fill="#6DC6E1"/>
<path d="M76.8587 34.6692L75.8281 34.2444L76.7329 33.5049L76.8587 34.6692Z" fill="#6DC6E1"/>
<path d="M78.6541 29.1284L77.0177 30.3242L76.7266 28.2158L78.6541 29.1284Z" fill="#6DC6E1"/>
<path d="M75.5436 26.3799L75.5279 27.442L74.8906 27.2138L75.5436 26.3799Z" fill="#6DC6E1"/>
<path d="M71.9676 23.4424L72.3924 24.473L71.4011 25.3069L71.0156 24.3629L71.9676 23.4424Z" fill="#6DC6E1"/>
<path d="M67.6642 32.6533L68.2857 34.2897L67.6406 34.2818L67.6642 32.6533Z" fill="#6DC6E1"/>
<path d="M68.6364 23.9895L67 24.611L67.0157 23.958L68.6364 23.9895Z" fill="#6DC6E1"/>
<path d="M72.9844 30.9111L74.723 31.1314L74.4005 31.6979L72.9844 30.9111Z" fill="#6DC6E1"/>
<path d="M69.79 26.4328L69.6562 25.5674L69.9788 25.6461L69.79 26.4328Z" fill="#174F85"/>
<path d="M80.6006 23.0596L80.1286 24.7432L79.6094 24.3419L80.6006 23.0596Z" fill="#174F85"/>
<path d="M74.7031 21.1455L75.8124 21.4209L75.5685 21.767L74.7031 21.1455Z" fill="#2B78B2"/>
<path d="M66.1809 28.0612L64.5917 29.0446L63.7656 27.9746L64.4422 26.708L66.1809 28.0612Z" fill="#6DC6E1"/>
<path d="M65.5616 33.4347L65.538 34.5912L64.5703 34.2215L64.5782 33.4111L65.5616 33.4347Z" fill="#6DC6E1"/>
<path d="M60.9924 29.6455L60.9609 31.2662L62.3377 30.802L62.3613 29.6691L60.9924 29.6455Z" fill="#2B78B2"/>
<path d="M78.3038 21.841L78.2802 22.9975L77.3125 22.6356L77.3282 21.8174L78.3038 21.841Z" fill="#2B78B2"/>
<path d="M78.6594 26.1377L79.1236 26.6884L78.5257 26.9087L78.2031 26.5311L78.6594 26.1377Z" fill="#2B78B2"/>
<path d="M66.6751 37.1299L67.1392 37.6727L66.5413 37.9009L66.2188 37.5232L66.6751 37.1299Z" fill="#2B78B2"/>
<path d="M51.6328 18.3076L52.6084 17.4658L52.8994 18.7797L51.6328 18.3076Z" fill="#2B78B2"/>
<path d="M54.3906 16.3408L55.6494 16.6083L54.7761 17.6389L54.3906 16.3408Z" fill="#174F85"/>
<path d="M54.6363 18.9658L54.8723 19.6267L54.1406 19.5165L54.6363 18.9658Z" fill="#6DC6E1"/>
<path d="M53.4643 13.2236L53.7082 13.8923L52.9766 13.7822L53.4643 13.2236Z" fill="#6DC6E1"/>
<path d="M50.0938 14.7236L51.3525 14.9911L50.4792 16.0217L50.0938 14.7236Z" fill="#6DC6E1"/>
<path d="M50.1094 17.3595L50.6208 16.9189L50.786 17.3202L50.1094 17.3595Z" fill="#6DC6E1"/>
<path d="M50.2344 20.2984L50.5412 19.6611L51.3515 19.7713L51.0762 20.3535L50.2344 20.2984Z" fill="#6DC6E1"/>
<path d="M56.4219 18.4102L56.9254 17.4268L57.2007 17.7414L56.4219 18.4102Z" fill="#6DC6E1"/>
<path d="M51.9141 21.6299L52.8975 22.1334L52.5906 22.4087L51.9141 21.6299Z" fill="#6DC6E1"/>
<path d="M53.3325 16.6447L52.7031 15.7321L53.1044 15.6377L53.3325 16.6447Z" fill="#6DC6E1"/>
<path d="M52.5734 20.0518L52.2273 20.4845L52.125 20.3035L52.5734 20.0518Z" fill="#174F85"/>
<path d="M46.3906 16.3833L47.3898 15.8955L47.4212 16.3125L46.3906 16.3833Z" fill="#174F85"/>
<path d="M47.9946 19.9861L47.6484 19.3489L47.9159 19.3174L47.9946 19.9861Z" fill="#2B78B2"/>
<path d="M54.875 21.0674L56.0158 21.3978L55.8663 22.2396L54.9773 22.4599L54.875 21.0674Z" fill="#6DC6E1"/>
<path d="M57.6797 19.0786L58.2383 18.5908L58.4743 19.2123L58.0809 19.5506L57.6797 19.0786Z" fill="#6DC6E1"/>
<path d="M57.8321 22.8408L58.6109 22.1721L57.8085 21.7158L57.2656 22.1879L57.8321 22.8408Z" fill="#2B78B2"/>
<path d="M46.7812 17.9927L47.3398 17.5049L47.5837 18.1264L47.1903 18.4568L46.7812 17.9927Z" fill="#2B78B2"/>
<path d="M50.5469 11.5959L50.6491 10.8643L51.2313 11.1632L51.1684 11.6746L50.5469 11.5959Z" fill="#2B78B2"/>
<path d="M48.6641 15.9924L48.727 15.5361L49.0889 15.725L49.0496 16.0396L48.6641 15.9924Z" fill="#2B78B2"/>
<path d="M58.9453 16.9768L59.0083 16.5205L59.3702 16.7093L59.3308 17.024L58.9453 16.9768Z" fill="#2B78B2"/>
<path d="M62.1331 12.833L62.0938 14.8628L63.9898 13.8793L62.1331 12.833Z" fill="#2B78B2"/>
<path d="M62.5391 18.1357L64.1282 19.3945L64.498 17.2939L62.5391 18.1357Z" fill="#174F85"/>
<path d="M65.9688 15.7942L67.0072 15.4087L66.134 14.6377L65.9688 15.7942Z" fill="#6DC6E1"/>
<path d="M57.8516 20.1691L58.8979 19.7915L58.0246 19.0205L57.8516 20.1691Z" fill="#6DC6E1"/>
<path d="M56.2578 14.581L57.8549 15.832L58.2168 13.7393L56.2578 14.581Z" fill="#6DC6E1"/>
<path d="M59.4689 11.9424L59.4531 13.0045L60.0982 12.792L59.4689 11.9424Z" fill="#6DC6E1"/>
<path d="M63.1438 9.1377L62.6875 10.1526L63.6394 11.018L64.0643 10.0896L63.1438 9.1377Z" fill="#6DC6E1"/>
<path d="M67.1063 18.5049L66.4219 20.1177L67.0749 20.1256L67.1063 18.5049Z" fill="#6DC6E1"/>
<path d="M66.4531 9.80957L68.0659 10.494L68.0816 9.84105L66.4531 9.80957Z" fill="#6DC6E1"/>
<path d="M61.848 16.5596L60.1094 16.7169L60.4005 17.2991L61.848 16.5596Z" fill="#6DC6E1"/>
<path d="M65.2198 12.2062L65.3851 11.3486L65.0625 11.4116L65.2198 12.2062Z" fill="#174F85"/>
<path d="M54.5469 8.42676L54.956 10.1261L55.491 9.74847L54.5469 8.42676Z" fill="#174F85"/>
<path d="M60.5078 6.74707L59.3906 6.97523L59.6266 7.32925L60.5078 6.74707Z" fill="#2B78B2"/>
<path d="M68.7578 13.967L70.3077 15.0055L71.1731 13.9749L70.5437 12.6768L68.7578 13.967Z" fill="#6DC6E1"/>
<path d="M69.1799 19.3564L69.1562 20.5208L70.1397 20.1904L70.1554 19.3722L69.1799 19.3564Z" fill="#6DC6E1"/>
<path d="M73.8846 15.7473L73.8532 17.3679L72.5 16.8487L72.5157 15.7158L73.8846 15.7473Z" fill="#2B78B2"/>
<path d="M56.8752 7.30176L56.8516 8.46612L57.835 8.12782L57.8507 7.3175L56.8752 7.30176Z" fill="#2B78B2"/>
<path d="M52.9274 18.3018L52.1406 19.1593L53.1004 19.5605L53.6511 18.9626L52.9274 18.3018Z" fill="#2B78B2"/>
<path d="M56.3628 11.583L55.875 12.1101L56.465 12.3619L56.8112 11.9921L56.3628 11.583Z" fill="#2B78B2"/>
<path d="M67.9253 23.0205L67.4375 23.5476L68.0275 23.7994L68.3658 23.4296L67.9253 23.0205Z" fill="#2B78B2"/>
<path d="M62.8359 8.72169L63.8115 7.87988L64.1026 9.20159L62.8359 8.72169Z" fill="#2B78B2"/>
<path d="M65.5938 6.7627L66.8525 7.02232L65.9793 8.05293L65.5938 6.7627Z" fill="#174F85"/>
<path d="M65.8394 9.37988L66.0754 10.0486L65.3438 9.93059L65.8394 9.37988Z" fill="#6DC6E1"/>
<path d="M64.6753 3.64551L64.9114 4.30637L64.1797 4.19623L64.6753 3.64551Z" fill="#6DC6E1"/>
<path d="M61.2969 5.14551L62.5556 5.41299L61.6824 6.43574L61.2969 5.14551Z" fill="#6DC6E1"/>
<path d="M61.3125 7.7892L61.8239 7.34863L61.9812 7.74986L61.3125 7.7892Z" fill="#6DC6E1"/>
<path d="M61.4375 10.7124L61.7522 10.083L62.5625 10.1931L62.2793 10.7753L61.4375 10.7124Z" fill="#6DC6E1"/>
<path d="M67.625 8.8321L68.1285 7.84082L68.4039 8.15552L67.625 8.8321Z" fill="#6DC6E1"/>
<path d="M63.1172 12.0518L64.1085 12.5553L63.7938 12.8306L63.1172 12.0518Z" fill="#6DC6E1"/>
<path d="M64.5356 7.05872L63.9062 6.14611L64.3075 6.05957L64.5356 7.05872Z" fill="#6DC6E1"/>
<path d="M63.7766 10.4736L63.4304 10.8985L63.3281 10.7175L63.7766 10.4736Z" fill="#174F85"/>
<path d="M57.5938 6.80515L58.5929 6.31738L58.6244 6.72648L57.5938 6.80515Z" fill="#174F85"/>
<path d="M59.1977 10.408L58.8516 9.77072L59.1269 9.73926L59.1977 10.408Z" fill="#2B78B2"/>
<path d="M66.0781 11.4814L67.211 11.8119L67.0615 12.6615L66.1725 12.8818L66.0781 11.4814Z" fill="#6DC6E1"/>
<path d="M68.8828 9.4926L69.4414 9.0127L69.6774 9.62634L69.2919 9.96463L68.8828 9.4926Z" fill="#6DC6E1"/>
<path d="M69.0352 13.2627L69.814 12.5861L69.0116 12.1377L68.4688 12.6097L69.0352 13.2627Z" fill="#2B78B2"/>
<path d="M58 8.40666L58.5586 7.92676L58.7946 8.5404L58.4012 8.8787L58 8.40666Z" fill="#2B78B2"/>
<path d="M61.7578 2.00998L61.8522 1.27832L62.4423 1.58514L62.3715 2.09651L61.7578 2.00998Z" fill="#2B78B2"/>
<path d="M59.875 6.40645L59.9301 5.95801L60.2998 6.14683L60.2526 6.46151L59.875 6.40645Z" fill="#2B78B2"/>
<path d="M70.1562 7.39082L70.2113 6.94238L70.5732 7.1312L70.5339 7.44589L70.1562 7.39082Z" fill="#2B78B2"/>
<path d="M57.3344 5.22797L56.6736 4.60645L56.4297 5.53479L57.3344 5.22797Z" fill="#2B78B2"/>
<path d="M55.4515 3.77051L54.5625 3.91999L55.1447 4.67525L55.4515 3.77051Z" fill="#174F85"/>
<path d="M55.2044 5.61426L55.0234 6.07844L55.5427 6.0155L55.2044 5.61426Z" fill="#6DC6E1"/>
<path d="M56.181 1.59863L55.9922 2.0628L56.5114 1.99986L56.181 1.59863Z" fill="#6DC6E1"/>
<path d="M58.5219 2.75488L57.625 2.90436L58.215 3.65963L58.5219 2.75488Z" fill="#6DC6E1"/>
<path d="M58.4408 4.60868L58.0946 4.28613L57.9688 4.56148L58.4408 4.60868Z" fill="#6DC6E1"/>
<path d="M58.2632 6.66431L58.0665 6.20801L57.4922 6.27095L57.6731 6.68791L58.2632 6.66431Z" fill="#6DC6E1"/>
<path d="M53.9569 5.18169L53.6264 4.47363L53.4219 4.68605L53.9569 5.18169Z" fill="#6DC6E1"/>
<path d="M57.0518 7.56738L56.3438 7.89781L56.5562 8.09449L57.0518 7.56738Z" fill="#6DC6E1"/>
<path d="M56.1875 4.01762L56.6517 3.38825L56.3684 3.30957L56.1875 4.01762Z" fill="#6DC6E1"/>
<path d="M56.625 6.44238L56.861 6.74921L56.9318 6.6312L56.625 6.44238Z" fill="#174F85"/>
<path d="M61.0831 4.01527L60.3987 3.64551L60.3672 3.93661L61.0831 4.01527Z" fill="#174F85"/>
<path d="M59.8516 6.50816L60.1191 6.0676L59.9302 6.03613L59.8516 6.50816Z" fill="#2B78B2"/>
<path d="M54.9822 7.09082L54.1719 7.2875L54.2584 7.89329L54.8799 8.06637L54.9822 7.09082Z" fill="#6DC6E1"/>
<path d="M53.0508 5.61672L52.6732 5.2627L52.4844 5.68753L52.7519 5.93928L53.0508 5.61672Z" fill="#6DC6E1"/>
<path d="M52.8475 8.26823L52.3125 7.77259L52.8947 7.47363L53.2644 7.81979L52.8475 8.26823Z" fill="#2B78B2"/>
<path d="M60.7539 5.13235L60.3763 4.77832L60.1953 5.20316L60.4549 5.45491L60.7539 5.13235Z" fill="#2B78B2"/>
<path d="M58.2767 0.524114L58.2217 0.00488281L57.8047 0.209428L57.8362 0.571327L58.2767 0.524114Z" fill="#2B78B2"/>
<path d="M59.4865 3.67901L59.455 3.35645L59.1875 3.48232L59.2111 3.70261L59.4865 3.67901Z" fill="#2B78B2"/>
<path d="M52.213 4.10868L52.1815 3.78613L51.9219 3.90414L51.9455 4.13228L52.213 4.10868Z" fill="#2B78B2"/>
<path d="M88.0166 36.8769C87.5808 36.8769 87.193 36.7807 86.8534 36.5885C86.5137 36.3962 86.2445 36.1078 86.0459 35.7233C85.8536 35.3324 85.7575 34.8389 85.7575 34.2429C85.7575 33.6405 85.8568 33.147 86.0555 32.7625C86.2606 32.3779 86.5329 32.0927 86.8726 31.9069C87.2187 31.7146 87.6 31.6185 88.0166 31.6185C88.5229 31.6185 88.9683 31.7274 89.3528 31.9453C89.7437 32.1632 90.0513 32.4677 90.2756 32.8586C90.5064 33.2495 90.6217 33.7109 90.6217 34.2429C90.6217 34.7748 90.5064 35.2362 90.2756 35.6272C90.0513 36.0181 89.7437 36.3257 89.3528 36.55C88.9683 36.7679 88.5229 36.8769 88.0166 36.8769ZM85.1711 36.8096V29.6767H86.3727V32.8682L86.2766 34.2333L86.315 35.5983V36.8096H85.1711ZM87.882 35.8483C88.1704 35.8483 88.4267 35.7842 88.651 35.656C88.8817 35.5278 89.0644 35.342 89.199 35.0984C89.3336 34.8549 89.4008 34.5697 89.4008 34.2429C89.4008 33.9096 89.3336 33.6244 89.199 33.3873C89.0644 33.1438 88.8817 32.9579 88.651 32.8297C88.4267 32.7016 88.1704 32.6375 87.882 32.6375C87.5936 32.6375 87.334 32.7016 87.1033 32.8297C86.8726 32.9579 86.69 33.1438 86.5554 33.3873C86.4208 33.6244 86.3535 33.9096 86.3535 34.2429C86.3535 34.5697 86.4208 34.8549 86.5554 35.0984C86.69 35.342 86.8726 35.5278 87.1033 35.656C87.334 35.7842 87.5936 35.8483 87.882 35.8483ZM92.0435 38.7418C91.7935 38.7418 91.5436 38.7001 91.2937 38.6168C91.0437 38.5335 90.8354 38.4182 90.6688 38.2708L91.1495 37.3864C91.2712 37.4953 91.409 37.5818 91.5628 37.6459C91.7166 37.71 91.8736 37.742 92.0339 37.742C92.2518 37.742 92.428 37.6876 92.5626 37.5786C92.6972 37.4697 92.8221 37.287 92.9375 37.0307L93.2355 36.3578L93.3316 36.2136L95.2735 31.6762H96.427L94.0238 37.2229C93.8636 37.6075 93.6841 37.9119 93.4854 38.1362C93.2932 38.3605 93.0753 38.5175 92.8317 38.6072C92.5946 38.6969 92.3319 38.7418 92.0435 38.7418ZM93.1009 36.9922L90.7842 31.6762H92.0339L93.918 36.1078L93.1009 36.9922Z" fill="#211E1F"/>
<path d="M88.4158 18.0518H88.1719V27.9881H88.4158V18.0518Z" fill="#211E1F"/>
<path d="M88.4158 41.5361H88.1719V51.4725H88.4158V41.5361Z" fill="#211E1F"/>
<defs>
<linearGradient id="paint0_linear_0_3089" x1="54.7504" y1="43.1577" x2="71.0907" y2="29.0832" gradientUnits="userSpaceOnUse">
<stop offset="0.22" stop-color="#4DB8E4"/>
<stop offset="0.58" stop-color="#0D7CA7"/>
<stop offset="0.99" stop-color="#0E2025"/>
</linearGradient>
<linearGradient id="paint1_linear_0_3089" x1="47.0459" y1="41.6315" x2="60.3101" y2="30.2082" gradientUnits="userSpaceOnUse">
<stop offset="0.22" stop-color="#4DB8E4"/>
<stop offset="0.58" stop-color="#0D7CA7"/>
<stop offset="0.99" stop-color="#0E2025"/>
</linearGradient>
<linearGradient id="paint2_linear_0_3089" x1="74.7096" y1="28.3989" x2="54.5144" y2="13.9625" gradientUnits="userSpaceOnUse">
<stop offset="0.22" stop-color="#4DB8E4"/>
<stop offset="0.58" stop-color="#0D7CA7"/>
<stop offset="0.99" stop-color="#0E2025"/>
</linearGradient>
</defs>
</svg>
