<svg width="79" height="64" viewBox="0 0 79 64" fill="none" xmlns="http://www.w3.org/2000/svg">
<path d="M1.69489 26.2519C1.69489 26.1581 1.72451 26.0766 1.7813 26.0075C1.83809 25.9408 1.92452 25.9062 2.04056 25.9062H4.34674C4.42575 25.9062 4.5097 25.9383 4.59859 26.0001C4.68748 26.0618 4.73192 26.1458 4.73192 26.2519V37.2174C4.73192 37.447 4.60353 37.563 4.34674 37.563H2.04056C1.81094 37.563 1.69489 37.447 1.69489 37.2174V26.2519Z" fill="white"/>
<path d="M6.35878 27.7371C6.42545 27.6803 6.49952 27.6432 6.5736 27.6284C6.65014 27.6136 6.72174 27.6062 6.78841 27.6062H7.9736C8.06742 27.6062 8.1489 27.6235 8.21804 27.6581C8.28717 27.6926 8.34397 27.7371 8.39088 27.7963C8.43779 27.8531 8.47483 27.9198 8.50446 27.9914C8.53162 28.0655 8.56125 28.1395 8.58594 28.2186L8.75137 28.9074C8.83039 28.7445 8.95631 28.5791 9.13162 28.4062C9.30693 28.2334 9.52421 28.0778 9.78347 27.9371C10.0427 27.7963 10.3415 27.6803 10.6822 27.5889C11.023 27.4976 11.4008 27.4531 11.8205 27.4531C12.418 27.4531 12.9489 27.5692 13.418 27.7988C13.8872 28.0284 14.2847 28.342 14.6106 28.7371C14.9366 29.1346 15.1859 29.5963 15.3563 30.1272C15.5267 30.6581 15.6106 31.2235 15.6106 31.826V36.9667C15.6106 37.1667 15.5687 37.3149 15.4822 37.4186C15.3958 37.5198 15.2575 37.5716 15.0699 37.5716H13.2575C13.0329 37.5716 12.8773 37.5346 12.7933 37.4581C12.7094 37.3815 12.6674 37.2334 12.6674 37.0136V31.905C12.6674 31.6803 12.6156 31.4655 12.5143 31.2655C12.4131 31.063 12.2773 30.8877 12.1094 30.7321C11.9415 30.5791 11.7514 30.4556 11.5415 30.3667C11.3291 30.2778 11.1143 30.2334 10.8946 30.2334C10.7069 30.2334 10.5143 30.2753 10.3168 30.3593C10.1217 30.4433 9.93903 30.5593 9.77606 30.7099C9.61063 30.8581 9.47236 31.0334 9.36125 31.2358C9.25014 31.4383 9.18594 31.6556 9.16866 31.8926V36.9939C9.16866 37.0828 9.15137 37.1716 9.1168 37.2605C9.08224 37.3494 9.03285 37.4161 8.96372 37.4655C8.89705 37.5074 8.83038 37.5371 8.77112 37.5519C8.71187 37.5667 8.64026 37.5741 8.56372 37.5741H6.79088C6.56619 37.5741 6.40322 37.5198 6.30446 37.4087C6.20569 37.3 6.15631 37.1519 6.15631 36.9692V28.1914C6.15631 28.0926 6.17853 28.0013 6.22298 27.9173C6.26742 27.8334 6.32915 27.7692 6.40816 27.7223L6.36125 27.7445L6.35878 27.7371Z" fill="white"/>
<path d="M17.6644 27.7355C17.6644 27.2491 17.7682 26.7923 17.978 26.3627C18.1879 25.9331 18.4669 25.5578 18.8175 25.2368C19.1682 24.9158 19.5706 24.6615 20.0274 24.4763C20.4817 24.2911 20.9583 24.1973 21.4546 24.1973H21.6126C21.7904 24.1973 21.9286 24.2516 22.0249 24.3578C22.1212 24.4639 22.1706 24.6121 22.1706 24.8022V26.301C22.1706 26.496 22.1188 26.6565 22.0175 26.7849C21.9163 26.9133 21.7805 26.9775 21.6126 26.9775H21.4546C21.3459 26.9775 21.2398 26.9973 21.141 27.0368C21.0422 27.0763 20.9533 27.1306 20.8743 27.1973C20.7953 27.2664 20.7336 27.3454 20.6867 27.4368C20.6398 27.5281 20.6175 27.6294 20.6175 27.738V28.6417H21.8496C22.0274 28.6417 22.1657 28.6911 22.262 28.7874C22.3583 28.8837 22.4077 29.0368 22.4077 29.2467V30.6837C22.4077 30.9084 22.3583 31.0738 22.262 31.1775C22.1657 31.2812 22.0274 31.3355 21.8496 31.3355H20.6175V36.9627C20.6175 37.1627 20.5509 37.3108 20.4175 37.4146C20.2842 37.5158 20.1385 37.5676 19.983 37.5676H18.2867C18.099 37.5676 17.9484 37.5084 17.8348 37.3899C17.7212 37.2713 17.6669 37.1306 17.6669 36.9627V31.3331H16.8595C16.6768 31.3331 16.5286 31.2812 16.4175 31.1775C16.304 31.0738 16.2496 30.9084 16.2496 30.6837V29.2467C16.2496 29.0368 16.3064 28.8837 16.4175 28.7874C16.5286 28.6911 16.6768 28.6417 16.8595 28.6417H17.6669V27.738L17.6644 27.7355Z" fill="white"/>
<path d="M22.9296 24.2358C22.9296 24.016 22.9765 23.8605 23.0703 23.7691C23.1641 23.6778 23.3123 23.6309 23.5098 23.6309H25.3296C25.5123 23.6309 25.6604 23.6778 25.774 23.7691C25.8876 23.8605 25.9419 24.016 25.9419 24.2358V25.7667C25.9419 25.8284 25.9271 25.8975 25.8999 25.9716C25.8703 26.0457 25.8308 26.1148 25.779 26.1839C25.7271 26.2506 25.6629 26.3074 25.5864 26.3518C25.5098 26.3963 25.4259 26.4185 25.332 26.4185H23.5123C23.1246 26.4185 22.932 26.2012 22.932 25.7667V24.2358H22.9296ZM22.9296 28.2086C22.9296 28.0407 22.9765 27.8975 23.0703 27.7765C23.1641 27.6555 23.3123 27.5963 23.5098 27.5963H25.3073C25.3691 27.5963 25.4382 27.6111 25.5123 27.6383C25.5864 27.6679 25.653 27.7099 25.7172 27.7642C25.779 27.8185 25.8333 27.8827 25.8777 27.9568C25.9222 28.0309 25.9444 28.1123 25.9444 28.2086V36.9593C25.9444 37.1593 25.8901 37.3099 25.779 37.4111C25.6678 37.5123 25.5123 37.5642 25.3073 37.5642H23.5098C23.1222 37.5642 22.9296 37.3642 22.9296 36.9593V28.2086Z" fill="white"/>
<path d="M27.0357 27.7371C27.1049 27.6803 27.1765 27.6432 27.2505 27.6284C27.3271 27.6136 27.3987 27.6062 27.4678 27.6062H28.653C28.7468 27.6062 28.8283 27.6235 28.895 27.6581C28.9641 27.6926 29.0209 27.7371 29.0678 27.7963C29.1147 27.8531 29.1518 27.9198 29.1814 27.9914C29.211 28.0655 29.2382 28.1395 29.2629 28.2186L29.4283 28.9074C29.5073 28.7445 29.6332 28.5791 29.8086 28.4062C29.9839 28.2334 30.2011 28.0778 30.4604 27.9371C30.7197 27.7963 31.0184 27.6803 31.3592 27.5889C31.6999 27.4976 32.0777 27.4531 32.4974 27.4531C33.095 27.4531 33.6258 27.5692 34.095 27.7988C34.5641 28.0284 34.9616 28.342 35.2876 28.7371C35.616 29.1346 35.8629 29.5963 36.0332 30.1272C36.2036 30.6581 36.2876 31.2235 36.2876 31.826V36.9667C36.2876 37.1667 36.2431 37.3149 36.1592 37.4186C36.0728 37.5198 35.9345 37.5716 35.7468 37.5716H33.9345C33.7098 37.5716 33.5542 37.5346 33.4703 37.4581C33.3863 37.3815 33.3444 37.2334 33.3444 37.0136V31.905C33.3444 31.6803 33.2925 31.4655 33.1913 31.2655C33.09 31.063 32.9542 30.8877 32.7863 30.7321C32.6184 30.5791 32.4283 30.4556 32.216 30.3667C32.0036 30.2778 31.7888 30.2334 31.569 30.2334C31.3814 30.2334 31.1888 30.2753 30.9913 30.3593C30.7962 30.4433 30.6135 30.5593 30.4505 30.7099C30.2851 30.8581 30.1468 31.0334 30.0332 31.2358C29.9197 31.4383 29.8555 31.6556 29.8407 31.8926V36.9939C29.8407 37.0828 29.8234 37.1716 29.7888 37.2605C29.7542 37.3494 29.7049 37.4161 29.6357 37.4655C29.5666 37.5074 29.5024 37.5371 29.4431 37.5519C29.3839 37.5667 29.3123 37.5741 29.2357 37.5741H27.4629C27.2382 37.5741 27.0752 37.5198 26.9765 37.4087C26.8777 37.3 26.8283 37.1519 26.8283 36.9692V28.1914C26.8283 28.0926 26.8505 28.0013 26.895 27.9173C26.9394 27.8334 27.0011 27.7692 27.0802 27.7223L27.0332 27.7445L27.0357 27.7371Z" fill="white"/>
<path d="M37.3825 24.2358C37.3825 24.016 37.4294 23.8605 37.5232 23.7691C37.6171 23.6778 37.7628 23.6309 37.9628 23.6309H39.785C39.9677 23.6309 40.1158 23.6778 40.2294 23.7691C40.3405 23.8605 40.3973 24.016 40.3973 24.2358V25.7667C40.3973 25.8284 40.3825 25.8975 40.3553 25.9716C40.3257 26.0457 40.2862 26.1148 40.2344 26.1839C40.1825 26.2506 40.1183 26.3074 40.0418 26.3518C39.9652 26.3963 39.8813 26.4185 39.7874 26.4185H37.9652C37.5776 26.4185 37.385 26.2012 37.385 25.7667V24.2358H37.3825ZM37.3825 28.2086C37.3825 28.0407 37.4294 27.8975 37.5232 27.7765C37.6171 27.6555 37.7628 27.5963 37.9628 27.5963H39.7603C39.822 27.5963 39.8911 27.6111 39.9652 27.6383C40.0393 27.6679 40.106 27.7099 40.1702 27.7642C40.2319 27.8185 40.2862 27.8827 40.3307 27.9568C40.3751 28.0309 40.3973 28.1123 40.3973 28.2086V36.9593C40.3973 37.1593 40.343 37.3099 40.2319 37.4111C40.1208 37.5123 39.9652 37.5642 39.7603 37.5642H37.9628C37.5751 37.5642 37.3825 37.3642 37.3825 36.9593V28.2086Z" fill="white"/>
<path d="M42.3106 26.0431C42.3106 25.8801 42.3649 25.7591 42.4711 25.6776C42.5772 25.5961 42.7303 25.5196 42.9303 25.4455L44.713 24.8258C44.7377 24.8208 44.7649 24.8184 44.7871 24.8184H44.8538C45.0464 24.8184 45.1772 24.8752 45.2414 24.9863C45.3056 25.0998 45.3402 25.248 45.3402 25.4307L45.3328 27.5887H46.4093C46.5772 27.5887 46.713 27.6381 46.8167 27.7369C46.9204 27.8356 46.9723 27.9863 46.9723 28.1838V29.6974C46.9723 29.9171 46.9204 30.0776 46.8167 30.1813C46.7106 30.2826 46.5748 30.3344 46.4093 30.3344H45.3328L45.3402 36.9591C45.3402 37.1591 45.2834 37.3097 45.1673 37.411C45.0513 37.5122 44.8933 37.564 44.6883 37.564H42.9155C42.513 37.564 42.3106 37.364 42.3106 36.9591L42.3032 30.3344H41.4957C41.0933 30.3344 40.8908 30.1221 40.8908 29.6998V28.1863C40.8908 27.7887 41.0933 27.5887 41.4957 27.5887H42.3032L42.3106 26.0431Z" fill="white"/>
<path d="M1.70404 41.4805C1.70404 41.3866 1.73614 41.3051 1.79787 41.236C1.8596 41.1693 1.94602 41.1348 2.05713 41.1348H4.38058C4.46947 41.1348 4.55095 41.1669 4.62503 41.2286C4.6991 41.2903 4.73614 41.3743 4.74355 41.4805V50.0187H9.0596C9.15342 50.0187 9.2349 50.0508 9.30404 50.1125C9.37318 50.1743 9.40528 50.2607 9.40528 50.3718V52.436C9.40528 52.5249 9.37565 52.6064 9.31392 52.6804C9.25466 52.7545 9.16824 52.794 9.0596 52.799H2.05219C1.82256 52.799 1.70651 52.6829 1.70651 52.4533V41.4805H1.70404Z" fill="white"/>
<path d="M18.4779 51.6027C18.0162 52.0274 17.5001 52.3583 16.9248 52.5953C16.3495 52.8324 15.7396 52.9534 15.0952 52.9534C14.3767 52.9534 13.7001 52.8225 13.0631 52.5608C12.4236 52.299 11.8656 51.9361 11.3841 51.4743C10.9026 51.0126 10.5199 50.4669 10.2384 49.8373C9.95446 49.2101 9.81372 48.5262 9.81372 47.7879C9.81372 47.3262 9.87051 46.8818 9.98162 46.4497C10.0927 46.0176 10.2532 45.6151 10.4606 45.2373C10.668 44.8595 10.9174 44.5138 11.2137 44.1978C11.51 43.8817 11.8409 43.6102 12.2063 43.3855C12.5717 43.1608 12.9693 42.9855 13.3989 42.8595C13.8261 42.7336 14.2804 42.6719 14.7569 42.6719C15.1915 42.6719 15.6113 42.7287 16.0211 42.8447C16.4285 42.9608 16.8137 43.1213 17.1717 43.3311C17.5298 43.541 17.8582 43.7904 18.1569 44.0842C18.4557 44.378 18.7125 44.6966 18.9248 45.0472C19.1396 45.3953 19.3051 45.7657 19.4236 46.1608C19.5396 46.5558 19.6014 46.9632 19.6014 47.3805C19.6014 47.6521 19.5964 47.8743 19.589 48.0472C19.5816 48.22 19.5421 48.3583 19.468 48.4595C19.394 48.5608 19.273 48.6324 19.1026 48.6719C18.9322 48.7114 18.6829 48.7311 18.3545 48.7311H12.7051C12.7569 49.0669 12.8631 49.3459 13.0236 49.5706C13.1841 49.7953 13.3668 49.9756 13.5767 50.1089C13.7866 50.2422 14.0088 50.3385 14.2433 50.3953C14.4779 50.4521 14.7001 50.4818 14.91 50.4818C15.0977 50.4818 15.2927 50.462 15.4903 50.4225C15.6878 50.383 15.8804 50.3311 16.068 50.2645C16.2532 50.2003 16.4236 50.1237 16.5792 50.0373C16.7347 49.9509 16.8582 49.8595 16.952 49.7657C17.0359 49.6966 17.1075 49.6472 17.1668 49.6126C17.2261 49.5781 17.2927 49.5608 17.3594 49.5608C17.4261 49.5608 17.4977 49.583 17.5668 49.6324C17.6359 49.6793 17.7174 49.7484 17.8063 49.8373L18.6384 50.7781C18.6952 50.8472 18.7322 50.9089 18.7471 50.9632C18.7619 51.0176 18.7717 51.0743 18.7717 51.1311C18.7717 51.2348 18.7421 51.3262 18.6853 51.4027C18.6285 51.4793 18.5594 51.546 18.4829 51.6027H18.4779ZM14.7026 45.0645C14.4977 45.0645 14.3001 45.1064 14.11 45.1855C13.9199 45.2669 13.7396 45.3756 13.5717 45.5114C13.4038 45.6472 13.2532 45.8027 13.1199 45.9731C12.9866 46.1459 12.8779 46.3213 12.794 46.499H16.8038C16.6927 46.2966 16.5742 46.1064 16.4458 45.9336C16.3174 45.7608 16.1717 45.6101 16.0063 45.4793C15.8409 45.3484 15.6532 45.2472 15.4409 45.1731C15.2285 45.099 14.9816 45.062 14.7001 45.062L14.7026 45.0645Z" fill="white"/>
<path d="M30.7106 52.2151C30.7106 52.304 30.6958 52.3879 30.6637 52.4694C30.6316 52.5509 30.5798 52.6151 30.5057 52.662C30.4489 52.7188 30.3798 52.7558 30.3007 52.7706C30.2217 52.7855 30.1551 52.7929 30.0958 52.7929H28.5501C28.4415 52.7929 28.3501 52.778 28.2835 52.7509C28.2143 52.7213 28.16 52.6818 28.118 52.6299C28.0761 52.5781 28.0415 52.5139 28.0119 52.4373C27.9847 52.3608 27.9526 52.2793 27.923 52.1904L27.8217 51.8373C27.681 51.978 27.5205 52.1163 27.3402 52.2521C27.16 52.3879 26.96 52.5089 26.7452 52.6176C26.5279 52.7237 26.2958 52.8126 26.0464 52.8768C25.797 52.941 25.5402 52.9756 25.2736 52.9756C24.797 52.9756 24.3402 52.9163 23.9032 52.7953C23.4662 52.6743 23.0588 52.504 22.6785 52.2818C22.2983 52.0595 21.9551 51.7929 21.6464 51.4817C21.3378 51.1706 21.0711 50.8225 20.8514 50.4422C20.6291 50.0595 20.4563 49.6472 20.3378 49.2052C20.2168 48.7632 20.1575 48.3015 20.1575 47.82C20.1575 47.0916 20.2909 46.4176 20.5575 45.7904C20.8242 45.1657 21.1872 44.6225 21.6489 44.1583C22.1106 43.6966 22.6514 43.3311 23.2736 43.0669C23.8958 42.8027 24.5625 42.6719 25.276 42.6719C25.5995 42.6719 25.9032 42.7089 26.1822 42.7805C26.4612 42.8546 26.718 42.9534 26.9526 43.0793C27.1847 43.2052 27.3946 43.3558 27.5847 43.5311C27.7748 43.7064 27.9378 43.8966 28.0785 44.099L28.3057 43.3855C28.3575 43.2546 28.402 43.1484 28.4365 43.0669C28.4711 42.9855 28.5081 42.9262 28.5477 42.8867C28.5872 42.8472 28.6341 42.8225 28.6933 42.8077C28.7501 42.7953 28.8316 42.7879 28.9353 42.7879H30.1032C30.1625 42.7879 30.2291 42.7953 30.3081 42.8101C30.3872 42.825 30.4538 42.862 30.5131 42.9213C30.5872 42.9781 30.639 43.0447 30.6711 43.1188C30.7032 43.1929 30.718 43.2743 30.718 43.3682V52.2126L30.7106 52.2151ZM22.9798 47.82C22.9798 48.1657 23.0341 48.4892 23.1402 48.7904C23.2464 49.0916 23.3995 49.3509 23.5995 49.5706C23.7995 49.7904 24.039 49.9657 24.318 50.0941C24.597 50.2225 24.9082 50.2867 25.2489 50.2867C25.5896 50.2867 25.9254 50.2225 26.2267 50.0941C26.5279 49.9657 26.7896 49.7929 27.0119 49.5706C27.2341 49.3509 27.4069 49.0916 27.5328 48.7904C27.6588 48.4892 27.7205 48.1657 27.7205 47.82C27.7205 47.4743 27.6588 47.1657 27.5328 46.862C27.4069 46.5583 27.2341 46.2916 27.0119 46.062C26.7896 45.8324 26.5279 45.6496 26.2267 45.5163C25.9254 45.383 25.5995 45.3163 25.2489 45.3163C24.8983 45.3163 24.5995 45.383 24.318 45.5163C24.039 45.6496 23.7995 45.8324 23.5995 46.062C23.402 46.2916 23.2489 46.5608 23.1402 46.862C23.0341 47.1657 22.9798 47.4842 22.9798 47.82Z" fill="white"/>
<path d="M31.8137 43.4116C31.8137 43.3128 31.8309 43.2264 31.868 43.1523C31.905 43.0782 31.9519 43.019 32.0137 42.9721C32.0729 42.9252 32.1421 42.8906 32.2186 42.8659C32.2951 42.8437 32.3692 42.8313 32.4433 42.8313H33.6285C33.7593 42.8313 33.863 42.8708 33.9421 42.9499C34.0211 43.0289 34.0877 43.1276 34.1421 43.2486C34.1964 43.3696 34.2458 43.5029 34.2877 43.6486C34.3297 43.7943 34.3791 43.9375 34.4359 44.0733C34.5939 43.9005 34.7495 43.7301 34.9026 43.5622C35.0556 43.3943 35.2235 43.2462 35.4013 43.1153C35.5791 42.9844 35.7742 42.8782 35.9865 42.7968C36.1988 42.7153 36.4408 42.6758 36.7124 42.6758C36.984 42.6758 37.2482 42.698 37.4705 42.7375C37.6927 42.7795 37.9025 42.8412 38.1025 42.9227C38.3025 43.0042 38.5001 43.1079 38.6951 43.2338C38.8902 43.3597 39.105 43.5054 39.3346 43.6733C39.5593 43.8042 39.6729 43.9573 39.6729 44.135C39.6729 44.2511 39.6285 44.3844 39.5396 44.535L38.826 45.7523C38.6853 45.9573 38.51 46.0585 38.3001 46.0585C38.1964 46.0585 38.0779 46.0289 37.947 45.9721C37.7223 45.7523 37.4927 45.5894 37.2606 45.4807C37.0285 45.3745 36.7618 45.3202 36.463 45.3202C36.2581 45.3202 36.0803 45.3499 35.9248 45.4066C35.7717 45.4634 35.6309 45.5449 35.505 45.6486C35.3791 45.7548 35.263 45.8783 35.1519 46.0264C35.0433 46.1721 34.9322 46.335 34.8235 46.5128V52.1943C34.8235 52.3943 34.7742 52.5424 34.6779 52.6462C34.5816 52.7474 34.4211 52.7992 34.1964 52.7992H32.4309C32.0235 52.7992 31.8186 52.5992 31.8186 52.1943V43.4116H31.8137Z" fill="white"/>
<path d="M40.2628 42.9681C40.332 42.9113 40.4036 42.8742 40.4776 42.8594C40.5542 42.8446 40.6258 42.8372 40.6925 42.8372H41.8776C41.9715 42.8372 42.053 42.8545 42.1196 42.889C42.1888 42.9236 42.2455 42.9681 42.2925 43.0273C42.3394 43.0841 42.3764 43.1508 42.406 43.2224C42.4357 43.2965 42.4628 43.3705 42.4875 43.4495L42.653 44.1384C42.732 43.9755 42.8579 43.81 43.0332 43.6372C43.2085 43.4644 43.4258 43.3088 43.6851 43.1681C43.9443 43.0273 44.2431 42.9113 44.5838 42.8199C44.9246 42.7286 45.3023 42.6816 45.7221 42.6816C46.3196 42.6816 46.8505 42.7977 47.3196 43.0248C47.7888 43.2545 48.1863 43.5681 48.5122 43.9631C48.8381 44.3607 49.0875 44.8224 49.2579 45.3532C49.4283 45.8841 49.5122 46.4495 49.5122 47.052V52.1927C49.5122 52.3927 49.4702 52.5409 49.3838 52.6446C49.2974 52.7458 49.1591 52.7977 48.9715 52.7977H47.1591C46.9344 52.7977 46.7789 52.7607 46.6949 52.6841C46.611 52.6076 46.569 52.4594 46.569 52.2421V47.1335C46.569 46.9088 46.5172 46.6965 46.4159 46.494C46.3147 46.2915 46.1789 46.1137 46.011 45.9607C45.8431 45.8076 45.653 45.6841 45.4431 45.5952C45.2307 45.5063 45.0159 45.4619 44.7962 45.4619C44.606 45.4619 44.4159 45.5039 44.2184 45.5878C44.0209 45.6718 43.8406 45.7878 43.6752 45.936C43.5097 46.0841 43.3715 46.2594 43.2604 46.4619C43.1468 46.6619 43.0826 46.8816 43.0678 47.1162V52.2174C43.0678 52.3063 43.0505 52.3952 43.0159 52.4841C42.9813 52.573 42.9295 52.6421 42.8628 52.689C42.7937 52.731 42.7295 52.7607 42.6702 52.7755C42.611 52.7903 42.5418 52.7977 42.4628 52.7977H40.69C40.4653 52.7977 40.3023 52.7434 40.2036 52.6323C40.1048 52.5236 40.0554 52.3755 40.0554 52.1927V43.415C40.0554 43.3162 40.0776 43.2248 40.1221 43.1409C40.1665 43.0569 40.2283 42.9928 40.3073 42.9458L40.2604 42.9681H40.2628Z" fill="white"/>
<path d="M61.1778 28.4072L52.0444 41.2418C52.0444 41.2418 51.7605 41.6319 52.2913 41.7208H60.2271C60.2271 41.7208 61.8592 41.5825 62.8864 39.6665L70.8987 28.3307C70.8987 28.3307 70.9852 28.2072 70.9654 28.1035H61.395C61.395 28.1035 61.2271 28.3381 61.1778 28.4072Z" fill="url(#paint0_linear_0_3420)"/>
<path d="M55.2396 28.4072L46.1062 41.2418C46.1062 41.2418 45.8223 41.6319 46.3532 41.7208H48.5359C48.5359 41.7208 50.168 41.5825 51.1951 39.6665L59.2075 28.3307C59.2075 28.3307 59.2939 28.2072 59.2741 28.1035H55.4569C55.4569 28.1035 55.289 28.3381 55.2396 28.4072Z" fill="url(#paint1_linear_0_3420)"/>
<path d="M61.1778 27.798L52.0444 14.9634C52.0444 14.9634 51.7605 14.5733 52.2913 14.4844H60.2271C60.2271 14.4844 61.8592 14.6226 62.8864 16.5387L70.8987 27.8745C70.8987 27.8745 70.9852 27.998 70.9654 28.1017H61.395C61.395 28.1017 61.2271 27.8671 61.1778 27.798Z" fill="url(#paint2_linear_0_3420)"/>
<path d="M50.0498 34.4464L52.0251 31.9205L50.6572 28.1032C50.6572 28.1032 50.5436 27.6662 50.2004 27.6094H48.035C48.035 27.6094 47.4473 27.6464 47.5214 28.2736L50.0473 34.4439L50.0498 34.4464Z" fill="white"/>
<path d="M57.8539 35.4219L57.8193 37.3083L56.0934 36.333L57.8539 35.4219Z" fill="white"/>
<path d="M57.2905 40.3435L55.767 41.4571L55.5004 39.4941L57.2905 40.3435Z" fill="white"/>
<path d="M55.0141 34.7366L54.8907 33.9316L55.187 34.0008L55.0141 34.7366Z" fill="white"/>
<path d="M65.0742 31.5879L64.6297 33.1558L64.1483 32.783L65.0742 31.5879Z" fill="white"/>
<path d="M59.5782 29.8125L60.6128 30.0644L60.3831 30.3878L59.5782 29.8125Z" fill="white"/>
<path d="M46.8263 37.7246L46.7967 39.2308L48.0757 38.7987L48.0955 37.7468L46.8263 37.7246Z" fill="white"/>
<path d="M62.9418 30.4548L62.922 31.5363L62.0159 31.1931L62.0307 30.4375L62.9418 30.4548Z" fill="white"/>
<path d="M66.2273 40.8281L66.9261 41.6528L66.0224 41.9936L65.531 41.4183L66.2273 40.8281Z" fill="white"/>
<path d="M63.271 34.4629L63.7055 34.974L63.145 35.1839L62.8438 34.8283L63.271 34.4629Z" fill="white"/>
<path d="M52.1164 44.6973L52.551 45.2084L51.9905 45.4183L51.6868 45.0627L52.1164 44.6973Z" fill="white"/>
<path d="M69.4785 27.3906L69.4415 29.277L67.718 28.3017L69.4785 27.3906Z" fill="white"/>
<path d="M70.9119 32.3123L69.3885 33.4259L69.1243 31.4629L70.9119 32.3123Z" fill="white"/>
<path d="M66.6388 26.7053L66.5153 25.9004L66.8116 25.9695L66.6388 26.7053Z" fill="white"/>
<path d="M76.6964 23.5566L76.2544 25.1245L75.7729 24.7517L76.6964 23.5566Z" fill="white"/>
<path d="M71.2028 21.7812L72.2374 22.0331L72.0078 22.3566L71.2028 21.7812Z" fill="white"/>
<path d="M58.451 29.6934L58.4213 31.202L59.7003 30.7699L59.7201 29.718L58.451 29.6934Z" fill="white"/>
<path d="M74.564 22.4211L74.5442 23.505L73.6405 23.1618L73.6553 22.4062L74.564 22.4211Z" fill="white"/>
<path d="M74.8956 26.4316L75.3277 26.9428L74.7697 27.1526L74.4684 26.7971L74.8956 26.4316Z" fill="white"/>
<path d="M63.741 36.666L64.1731 37.1771L63.6151 37.387L63.3114 37.0314L63.741 36.666Z" fill="white"/>
<path d="M49.7342 19.1265L50.6404 18.3438L50.912 19.5709L49.7342 19.1265Z" fill="white"/>
<path d="M52.2972 17.2969L53.4676 17.5438L52.6552 18.5018L52.2972 17.2969Z" fill="white"/>
<path d="M50.6218 20.7598L50.2966 21.1589L50.2029 20.9914L50.6218 20.7598Z" fill="white"/>
<path d="M44.8598 17.3474L45.7882 16.8906L45.8178 17.2758L44.8598 17.3474Z" fill="white"/>
<path d="M46.3526 20.6954L46.0312 20.0995L46.2834 20.0723L46.3526 20.6954Z" fill="white"/>
<path d="M55.505 23.3536L56.2284 22.7264L55.4827 22.3066L54.9766 22.7437L55.505 23.3536Z" fill="white"/>
<path d="M45.2346 18.8366L45.7531 18.3848L45.9754 18.9601L45.6124 19.2737L45.2346 18.8366Z" fill="white"/>
<path d="M48.7272 12.8787L48.8186 12.1973L49.3667 12.4787L49.3025 12.9553L48.7272 12.8787Z" fill="white"/>
<path d="M46.9844 16.9755L47.041 16.5566L47.3761 16.7316L47.3367 17.0223L46.9844 16.9755Z" fill="white"/>
<path d="M56.5472 17.8915L56.6039 17.4727L56.939 17.6476L56.8996 17.9384L56.5472 17.8915Z" fill="white"/>
<path d="M59.519 12.0352L59.4844 13.9216L61.2425 13.0129L59.519 12.0352Z" fill="white"/>
<path d="M59.8896 18.98L61.3711 20.1479L61.7093 18.1973L59.8896 18.98Z" fill="white"/>
<path d="M62.379 13.4577L62.5321 12.6602L62.2333 12.7169L62.379 13.4577Z" fill="white"/>
<path d="M52.4444 9.94141L52.8296 11.5217L53.3234 11.1686L52.4444 9.94141Z" fill="white"/>
<path d="M57.9948 8.36914L56.9528 8.58149L57.1726 8.91235L57.9948 8.36914Z" fill="white"/>
<path d="M70.4448 16.7532L70.4152 18.2594L69.1559 17.7804L69.1757 16.7285L70.4448 16.7532Z" fill="white"/>
<path d="M54.6131 8.88477L54.5934 9.96625L55.5119 9.65513L55.5242 8.90205L54.6131 8.88477Z" fill="white"/>
<path d="M50.9489 19.1289L50.2181 19.9264L51.1094 20.3017L51.6205 19.7462L50.9489 19.1289Z" fill="white"/>
<path d="M54.139 12.8789L53.6872 13.3727L54.2403 13.6048L54.5539 13.2592L54.139 12.8789Z" fill="white"/>
<path d="M64.9047 23.5195L64.4528 24.0109L65.0034 24.243L65.3195 23.8998L64.9047 23.5195Z" fill="white"/>
<path d="M60.1634 10.2134L61.0696 9.42822L61.3412 10.6579L60.1634 10.2134Z" fill="white"/>
<path d="M62.7254 8.38135L63.8982 8.62826L63.0834 9.58629L62.7254 8.38135Z" fill="white"/>
<path d="M61.0422 11.8442L60.717 12.2434L60.6234 12.0759L61.0422 11.8442Z" fill="white"/>
<path d="M55.288 8.43189L56.214 7.9751L56.2436 8.36028L55.288 8.43189Z" fill="white"/>
<path d="M56.7818 11.774L56.4604 11.1805L56.7101 11.1509L56.7818 11.774Z" fill="white"/>
<path d="M65.9332 14.4346L66.6566 13.8075L65.911 13.3853L65.4048 13.8248L65.9332 14.4346Z" fill="white"/>
<path d="M55.655 9.91862L56.176 9.46924L56.3958 10.0421L56.0353 10.3557L55.655 9.91862Z" fill="white"/>
<path d="M59.1555 3.96075L59.2468 3.28174L59.7925 3.56322L59.7283 4.03976L59.1555 3.96075Z" fill="white"/>
<path d="M57.4057 8.05999L57.4624 7.64111L57.7999 7.8136L57.7605 8.10681L57.4057 8.05999Z" fill="white"/>
<path d="M66.9755 8.97601L67.0321 8.55713L67.3697 8.72961L67.3303 9.02282L66.9755 8.97601Z" fill="white"/>
<path d="M55.0444 6.95864L54.4247 6.38086L54.2025 7.24012L55.0444 6.95864Z" fill="white"/>
<path d="M53.2873 5.59961L52.4527 5.74282L53.0008 6.43912L53.2873 5.59961Z" fill="white"/>
<path d="M54.3904 8.08398L54.6097 8.37227L54.6787 8.25646L54.3904 8.08398Z" fill="white"/>
<path d="M58.5311 5.83054L57.8882 5.48438L57.8585 5.75388L58.5311 5.83054Z" fill="white"/>
<path d="M57.3898 8.15148L57.6312 7.73999L57.4563 7.71289L57.3898 8.15148Z" fill="white"/>
<path d="M50.868 9.78268L50.3742 9.32342L50.9125 9.04688L51.2557 9.36786L50.868 9.78268Z" fill="white"/>
<path d="M58.2321 6.86843L57.876 6.53711L57.7029 6.93519L57.9527 7.16762L58.2321 6.86843Z" fill="white"/>
<path d="M55.9236 2.57837L55.8766 2.09375L55.4835 2.27919L55.5156 2.61793L55.9236 2.57837Z" fill="white"/>
<path d="M57.0521 5.50857L57.025 5.21289L56.7811 5.32624L56.8032 5.53321L57.0521 5.50857Z" fill="white"/>
<path d="M50.2782 5.90752L50.2487 5.60938L50.0072 5.72272L50.0269 5.93216L50.2782 5.90752Z" fill="white"/>
<defs>
<linearGradient id="paint0_linear_0_3420" x1="52.642" y1="42.2689" x2="67.8518" y2="29.1677" gradientUnits="userSpaceOnUse">
<stop offset="0.22" stop-color="white"/>
<stop offset="0.58" stop-color="white"/>
<stop offset="0.99" stop-color="white"/>
</linearGradient>
<linearGradient id="paint1_linear_0_3420" x1="45.4742" y1="40.8517" x2="57.8223" y2="30.2146" gradientUnits="userSpaceOnUse">
<stop offset="0.22" stop-color="white"/>
<stop offset="0.58" stop-color="white"/>
<stop offset="0.99" stop-color="white"/>
</linearGradient>
<linearGradient id="paint2_linear_0_3420" x1="71.2197" y1="28.5288" x2="52.4222" y2="15.0844" gradientUnits="userSpaceOnUse">
<stop offset="0.22" stop-color="white"/>
<stop offset="0.58" stop-color="white"/>
<stop offset="0.99" stop-color="white"/>
</linearGradient>
</defs>
</svg>
