<svg width="17" height="12" viewBox="0 0 17 12" fill="none" xmlns="http://www.w3.org/2000/svg">
<path fill-rule="evenodd" clip-rule="evenodd" d="M16.0031 9.94518C16.0031 10.5579 15.5003 11.0605 14.8875 11.0605H2.27834C1.6658 11.0605 1.16278 10.5573 1.16278 9.94518C1.16278 7.12628 1.16278 4.30747 1.16278 1.48867C1.16278 0.876035 1.66571 0.373291 2.27834 0.373291H14.8875C15.4991 0.373291 16.0031 0.877123 16.0031 1.48867V2.5588V2.56687V9.94518ZM15.4207 9.94518V3.09581L8.73866 7.33137C8.63874 7.39474 8.51489 7.38958 8.42223 7.32829L1.74522 3.09599V9.94509C1.74522 10.2379 1.98567 10.4779 2.27834 10.4779H14.8875C15.1806 10.478 15.4207 10.238 15.4207 9.94518ZM1.74522 2.39913L8.5828 6.73306L15.4207 2.39895V1.48857C15.4207 1.19554 15.1807 0.955639 14.8875 0.955639H2.27834C1.98422 0.955639 1.74522 1.19436 1.74522 1.48857V2.39913Z" fill="#080E14" stroke="#080E14" stroke-width="0.35"/>
</svg>
