<svg width="14" height="17" viewBox="0 0 14 17" fill="none" xmlns="http://www.w3.org/2000/svg">
<path d="M5.80663 5.80047C5.88575 5.54334 5.84619 5.28621 5.72751 5.04886L4.00673 1.03369L3.98695 0.994132C3.86827 0.756782 3.6507 0.598549 3.39357 0.519433C3.13645 0.440316 2.85954 0.479874 2.64197 0.598549L0.664051 1.6864C0.604714 1.72596 0.525597 1.76552 0.46626 1.82486C-0.0677773 2.31934 -0.146894 3.36763 0.248689 4.98952C0.584935 6.4334 1.29698 8.05529 2.14749 9.42005C2.7013 10.3299 3.78916 11.7935 4.93635 12.9407C6.1231 14.1077 7.58675 15.156 8.95152 15.8285C9.90092 16.2834 10.6723 16.501 11.2657 16.501C11.6019 16.501 11.8788 16.4219 12.0964 16.2636C12.1755 16.2043 12.2349 16.145 12.2744 16.1054L13.7578 14.4044C14.1139 13.989 14.0743 13.3561 13.659 13.0001L10.0789 10.4288C9.88114 10.2706 9.62401 10.1914 9.36688 10.1914C9.10975 10.2112 8.8724 10.3299 8.69439 10.5277L7.70543 11.4969C7.62631 11.4771 7.48786 11.3782 7.21095 11.1606C7.19117 11.1408 7.17139 11.1211 7.17139 11.1013L7.15161 11.0815C7.15161 11.0815 6.67691 10.6068 5.82641 9.53872C4.99569 8.51021 4.81767 8.19374 4.81767 8.19374L4.77812 8.13441C4.77812 8.11463 4.75834 8.11463 4.75834 8.09485C4.38253 7.52125 4.28364 7.24434 4.24408 7.12567L5.37149 6.39384C5.56928 6.25539 5.74729 6.03782 5.80663 5.80047ZM5.05502 5.56312C5.05502 5.60267 5.01546 5.66201 4.95613 5.68179L3.71004 6.49274C3.57159 6.57185 3.49247 6.69053 3.45291 6.84876C3.39357 7.08611 3.41335 7.48169 4.08584 8.51021C4.10562 8.52999 4.1254 8.56955 4.14518 8.58933C4.20452 8.708 4.46165 9.0838 5.21326 10.0332C6.0242 11.0419 6.4989 11.5364 6.57802 11.6155C6.61758 11.6551 6.65713 11.7144 6.69669 11.754C7.15161 12.1694 7.50764 12.3276 7.80433 12.3078C7.96256 12.288 8.12079 12.2287 8.21969 12.11L9.26798 11.0815L9.28776 11.0617C9.32732 11.0024 9.40644 11.0024 9.42622 10.9826C9.46577 10.9826 9.52511 10.9826 9.58445 11.0419L13.1645 13.5935C13.2436 13.6726 13.2436 13.7912 13.1843 13.8704L11.6613 15.5911C11.6415 15.6109 11.6415 15.6109 11.6217 15.6307C11.5426 15.69 11.0283 15.9472 9.28776 15.0967C8.00212 14.4835 6.61758 13.4748 5.49016 12.3671C4.44187 11.3386 3.3738 9.93431 2.8002 9.00469C1.98925 7.69926 1.31676 6.17627 1.0003 4.81151C0.545377 2.93249 0.901401 2.47757 0.980518 2.41823C1.0003 2.39845 1.0003 2.39845 1.02008 2.39845L2.99799 1.3106C3.03755 1.29082 3.07711 1.29082 3.09689 1.29082C3.11667 1.29082 3.13645 1.29082 3.15622 1.29082C3.176 1.29082 3.23534 1.33038 3.2749 1.36994L4.99569 5.3851L5.01547 5.42466C5.0748 5.484 5.05502 5.54334 5.05502 5.56312Z" fill="#080E14"/>
</svg>
