<svg width="20" height="16" viewBox="0 0 20 16" fill="none" xmlns="http://www.w3.org/2000/svg">
<path fill-rule="evenodd" clip-rule="evenodd" d="M6.31921 15.4048C13.3013 15.4048 17.1204 9.70914 17.1204 4.7705C17.1204 4.60837 17.1204 4.44746 17.1093 4.28715C17.8521 3.75885 18.4933 3.10291 19.003 2.35237C18.311 2.65477 17.5755 2.85309 16.8234 2.94053C17.6153 2.47326 18.2083 1.73916 18.4924 0.872938C17.7467 1.30832 16.9316 1.6156 16.0814 1.78047C14.6437 0.275741 12.2393 0.202836 10.71 1.6183C9.72469 2.53097 9.3056 3.89175 9.61182 5.18971C6.55975 5.03851 3.71583 3.61943 1.78781 1.28492C0.780321 2.99276 1.29563 5.17676 2.96368 6.27342C2.35956 6.25611 1.76838 6.09598 1.24012 5.80633V5.85376C1.24105 7.63266 2.51498 9.16438 4.28572 9.51688C3.72693 9.66717 3.14038 9.68896 2.57234 9.58057C3.06915 11.1035 4.49481 12.1466 6.11845 12.1767C4.7742 13.2169 3.11355 13.7817 1.40387 13.7799C1.10227 13.779 0.800674 13.7617 0.5 13.7261C2.23651 14.8228 4.25612 15.4048 6.31921 15.4021" fill="#007BFF"/>
</svg>
