<svg width="190" height="52" viewBox="0 0 190 52" fill="none" xmlns="http://www.w3.org/2000/svg">
<path d="M0 6.00146V43.9619C1.90099 39.2094 12.6733 37.2292 17.8218 36.8331H180.495L190 17.8232L180.495 0.00146484H6C2.68629 0.00146484 0 2.68775 0 6.00146Z" fill="#FCDE5A"/>
<path d="M16.6337 36.8296V51.087C6.17822 51.087 0.792079 46.3345 0 43.9583C1.90099 38.2553 12.2772 36.8296 16.6337 36.8296Z" fill="#D9BB3A"/>
<path d="M38.2788 15.7215C38.8421 15.7215 39.3448 15.8385 39.7868 16.0725C40.2375 16.3065 40.5885 16.6531 40.8398 17.1125C41.0998 17.5718 41.2298 18.1265 41.2298 18.7765V23.0015H39.7608V18.9975C39.7608 18.3561 39.6005 17.8665 39.2798 17.5285C38.9591 17.1818 38.5215 17.0085 37.9668 17.0085C37.4121 17.0085 36.9701 17.1818 36.6408 17.5285C36.3201 17.8665 36.1598 18.3561 36.1598 18.9975V23.0015H34.6908V18.9975C34.6908 18.3561 34.5305 17.8665 34.2098 17.5285C33.8891 17.1818 33.4515 17.0085 32.8968 17.0085C32.3421 17.0085 31.9001 17.1818 31.5708 17.5285C31.2501 17.8665 31.0898 18.3561 31.0898 18.9975V23.0015H29.6078V15.8385H31.0898V16.6575C31.3325 16.3628 31.6401 16.1331 32.0128 15.9685C32.3855 15.8038 32.7841 15.7215 33.2088 15.7215C33.7808 15.7215 34.2921 15.8428 34.7428 16.0855C35.1935 16.3281 35.5401 16.6791 35.7828 17.1385C35.9995 16.7051 36.3375 16.3628 36.7968 16.1115C37.2561 15.8515 37.7501 15.7215 38.2788 15.7215ZM46.2226 23.1185C45.5466 23.1185 44.9356 22.9668 44.3896 22.6635C43.8436 22.3515 43.4146 21.9181 43.1026 21.3635C42.7906 20.8001 42.6346 20.1501 42.6346 19.4135C42.6346 18.6855 42.795 18.0398 43.1156 17.4765C43.4363 16.9131 43.874 16.4798 44.4286 16.1765C44.9833 15.8731 45.603 15.7215 46.2876 15.7215C46.9723 15.7215 47.592 15.8731 48.1466 16.1765C48.7013 16.4798 49.139 16.9131 49.4596 17.4765C49.7803 18.0398 49.9406 18.6855 49.9406 19.4135C49.9406 20.1415 49.776 20.7871 49.4466 21.3505C49.1173 21.9138 48.6666 22.3515 48.0946 22.6635C47.5313 22.9668 46.9073 23.1185 46.2226 23.1185ZM46.2226 21.8315C46.604 21.8315 46.9593 21.7405 47.2886 21.5585C47.6266 21.3765 47.8996 21.1035 48.1076 20.7395C48.3156 20.3755 48.4196 19.9335 48.4196 19.4135C48.4196 18.8935 48.32 18.4558 48.1206 18.1005C47.9213 17.7365 47.657 17.4635 47.3276 17.2815C46.9983 17.0995 46.643 17.0085 46.2616 17.0085C45.8803 17.0085 45.525 17.0995 45.1956 17.2815C44.875 17.4635 44.6193 17.7365 44.4286 18.1005C44.238 18.4558 44.1426 18.8935 44.1426 19.4135C44.1426 20.1848 44.3376 20.7828 44.7276 21.2075C45.1263 21.6235 45.6246 21.8315 46.2226 21.8315ZM54.0057 23.1185C53.4423 23.1185 52.9353 23.0188 52.4847 22.8195C52.0427 22.6115 51.6917 22.3341 51.4317 21.9875C51.1717 21.6321 51.033 21.2378 51.0157 20.8045H52.5497C52.5757 21.1078 52.7187 21.3635 52.9787 21.5715C53.2473 21.7708 53.581 21.8705 53.9797 21.8705C54.3957 21.8705 54.7163 21.7925 54.9417 21.6365C55.1757 21.4718 55.2927 21.2638 55.2927 21.0125C55.2927 20.7438 55.1627 20.5445 54.9027 20.4145C54.6513 20.2845 54.2483 20.1415 53.6937 19.9855C53.1563 19.8381 52.7187 19.6951 52.3807 19.5565C52.0427 19.4178 51.748 19.2055 51.4967 18.9195C51.254 18.6335 51.1327 18.2565 51.1327 17.7885C51.1327 17.4071 51.2453 17.0605 51.4707 16.7485C51.696 16.4278 52.0167 16.1765 52.4327 15.9945C52.8573 15.8125 53.3427 15.7215 53.8887 15.7215C54.7033 15.7215 55.3577 15.9295 55.8517 16.3455C56.3543 16.7528 56.623 17.3118 56.6577 18.0225H55.1757C55.1497 17.7018 55.0197 17.4461 54.7857 17.2555C54.5517 17.0648 54.2353 16.9695 53.8367 16.9695C53.4467 16.9695 53.1477 17.0431 52.9397 17.1905C52.7317 17.3378 52.6277 17.5328 52.6277 17.7755C52.6277 17.9661 52.697 18.1265 52.8357 18.2565C52.9743 18.3865 53.1433 18.4905 53.3427 18.5685C53.542 18.6378 53.8367 18.7288 54.2267 18.8415C54.7467 18.9801 55.1713 19.1231 55.5007 19.2705C55.8387 19.4091 56.129 19.6171 56.3717 19.8945C56.6143 20.1718 56.74 20.5401 56.7487 20.9995C56.7487 21.4068 56.636 21.7708 56.4107 22.0915C56.1853 22.4121 55.8647 22.6635 55.4487 22.8455C55.0413 23.0275 54.5603 23.1185 54.0057 23.1185ZM60.079 17.0475V21.0125C60.079 21.2811 60.1397 21.4761 60.261 21.5975C60.391 21.7101 60.6077 21.7665 60.911 21.7665H61.821V23.0015H60.651C59.9837 23.0015 59.4723 22.8455 59.117 22.5335C58.7617 22.2215 58.584 21.7145 58.584 21.0125V17.0475H57.739V15.8385H58.584V14.0575H60.079V15.8385H61.821V17.0475H60.079ZM68.0459 16.8785C68.2625 16.5145 68.5485 16.2328 68.9039 16.0335C69.2679 15.8255 69.6969 15.7215 70.1909 15.7215V17.2555H69.8139C69.2332 17.2555 68.7912 17.4028 68.4879 17.6975C68.1932 17.9921 68.0459 18.5035 68.0459 19.2315V23.0015H66.5639V15.8385H68.0459V16.8785ZM78.1181 19.2445C78.1181 19.5131 78.1008 19.7558 78.0661 19.9725H72.5931C72.6365 20.5445 72.8488 21.0038 73.2301 21.3505C73.6115 21.6971 74.0795 21.8705 74.6341 21.8705C75.4315 21.8705 75.9948 21.5368 76.3241 20.8695H77.9231C77.7065 21.5281 77.3121 22.0698 76.7401 22.4945C76.1768 22.9105 75.4748 23.1185 74.6341 23.1185C73.9495 23.1185 73.3341 22.9668 72.7881 22.6635C72.2508 22.3515 71.8261 21.9181 71.5141 21.3635C71.2108 20.8001 71.0591 20.1501 71.0591 19.4135C71.0591 18.6768 71.2065 18.0311 71.5011 17.4765C71.8045 16.9131 72.2248 16.4798 72.7621 16.1765C73.3081 15.8731 73.9321 15.7215 74.6341 15.7215C75.3101 15.7215 75.9125 15.8688 76.4411 16.1635C76.9698 16.4581 77.3815 16.8741 77.6761 17.4115C77.9708 17.9401 78.1181 18.5511 78.1181 19.2445ZM76.5711 18.7765C76.5625 18.2305 76.3675 17.7928 75.9861 17.4635C75.6048 17.1341 75.1325 16.9695 74.5691 16.9695C74.0578 16.9695 73.6201 17.1341 73.2561 17.4635C72.8921 17.7841 72.6755 18.2218 72.6061 18.7765H76.5711ZM79.0826 19.4135C79.0826 18.6768 79.2299 18.0311 79.5246 17.4765C79.8279 16.9131 80.2439 16.4798 80.7726 16.1765C81.3012 15.8731 81.9079 15.7215 82.5926 15.7215C83.4592 15.7215 84.1742 15.9295 84.7376 16.3455C85.3096 16.7528 85.6952 17.3378 85.8946 18.1005H84.2956C84.1656 17.7451 83.9576 17.4678 83.6716 17.2685C83.3856 17.0691 83.0259 16.9695 82.5926 16.9695C81.9859 16.9695 81.5006 17.1861 81.1366 17.6195C80.7812 18.0441 80.6036 18.6421 80.6036 19.4135C80.6036 20.1848 80.7812 20.7871 81.1366 21.2205C81.5006 21.6538 81.9859 21.8705 82.5926 21.8705C83.4506 21.8705 84.0182 21.4935 84.2956 20.7395H85.8946C85.6866 21.4675 85.2966 22.0481 84.7246 22.4815C84.1526 22.9061 83.4419 23.1185 82.5926 23.1185C81.9079 23.1185 81.3012 22.9668 80.7726 22.6635C80.2439 22.3515 79.8279 21.9181 79.5246 21.3635C79.2299 20.8001 79.0826 20.1501 79.0826 19.4135ZM90.4785 23.1185C89.8025 23.1185 89.1915 22.9668 88.6455 22.6635C88.0995 22.3515 87.6705 21.9181 87.3585 21.3635C87.0465 20.8001 86.8905 20.1501 86.8905 19.4135C86.8905 18.6855 87.0508 18.0398 87.3715 17.4765C87.6922 16.9131 88.1298 16.4798 88.6845 16.1765C89.2392 15.8731 89.8588 15.7215 90.5435 15.7215C91.2282 15.7215 91.8478 15.8731 92.4025 16.1765C92.9572 16.4798 93.3948 16.9131 93.7155 17.4765C94.0362 18.0398 94.1965 18.6855 94.1965 19.4135C94.1965 20.1415 94.0318 20.7871 93.7025 21.3505C93.3732 21.9138 92.9225 22.3515 92.3505 22.6635C91.7872 22.9668 91.1632 23.1185 90.4785 23.1185ZM90.4785 21.8315C90.8598 21.8315 91.2152 21.7405 91.5445 21.5585C91.8825 21.3765 92.1555 21.1035 92.3635 20.7395C92.5715 20.3755 92.6755 19.9335 92.6755 19.4135C92.6755 18.8935 92.5758 18.4558 92.3765 18.1005C92.1772 17.7365 91.9128 17.4635 91.5835 17.2815C91.2542 17.0995 90.8988 17.0085 90.5175 17.0085C90.1362 17.0085 89.7808 17.0995 89.4515 17.2815C89.1308 17.4635 88.8752 17.7365 88.6845 18.1005C88.4938 18.4558 88.3985 18.8935 88.3985 19.4135C88.3985 20.1848 88.5935 20.7828 88.9835 21.2075C89.3822 21.6235 89.8805 21.8315 90.4785 21.8315ZM104.333 15.7215C104.896 15.7215 105.399 15.8385 105.841 16.0725C106.291 16.3065 106.642 16.6531 106.894 17.1125C107.154 17.5718 107.284 18.1265 107.284 18.7765V23.0015H105.815V18.9975C105.815 18.3561 105.654 17.8665 105.334 17.5285C105.013 17.1818 104.575 17.0085 104.021 17.0085C103.466 17.0085 103.024 17.1818 102.695 17.5285C102.374 17.8665 102.214 18.3561 102.214 18.9975V23.0015H100.745V18.9975C100.745 18.3561 100.584 17.8665 100.264 17.5285C99.9429 17.1818 99.5052 17.0085 98.9505 17.0085C98.3959 17.0085 97.9539 17.1818 97.6245 17.5285C97.3039 17.8665 97.1435 18.3561 97.1435 18.9975V23.0015H95.6615V15.8385H97.1435V16.6575C97.3862 16.3628 97.6939 16.1331 98.0665 15.9685C98.4392 15.8038 98.8379 15.7215 99.2625 15.7215C99.8345 15.7215 100.346 15.8428 100.797 16.0855C101.247 16.3281 101.594 16.6791 101.837 17.1385C102.053 16.7051 102.391 16.3628 102.851 16.1115C103.31 15.8515 103.804 15.7215 104.333 15.7215ZM117.84 15.7215C118.404 15.7215 118.906 15.8385 119.348 16.0725C119.799 16.3065 120.15 16.6531 120.401 17.1125C120.661 17.5718 120.791 18.1265 120.791 18.7765V23.0015H119.322V18.9975C119.322 18.3561 119.162 17.8665 118.841 17.5285C118.521 17.1818 118.083 17.0085 117.528 17.0085C116.974 17.0085 116.532 17.1818 116.202 17.5285C115.882 17.8665 115.721 18.3561 115.721 18.9975V23.0015H114.252V18.9975C114.252 18.3561 114.092 17.8665 113.771 17.5285C113.451 17.1818 113.013 17.0085 112.458 17.0085C111.904 17.0085 111.462 17.1818 111.132 17.5285C110.812 17.8665 110.651 18.3561 110.651 18.9975V23.0015H109.169V15.8385H110.651V16.6575C110.894 16.3628 111.202 16.1331 111.574 15.9685C111.947 15.8038 112.346 15.7215 112.77 15.7215C113.342 15.7215 113.854 15.8428 114.304 16.0855C114.755 16.3281 115.102 16.6791 115.344 17.1385C115.561 16.7051 115.899 16.3628 116.358 16.1115C116.818 15.8515 117.312 15.7215 117.84 15.7215ZM129.242 19.2445C129.242 19.5131 129.225 19.7558 129.19 19.9725H123.717C123.76 20.5445 123.973 21.0038 124.354 21.3505C124.735 21.6971 125.203 21.8705 125.758 21.8705C126.555 21.8705 127.119 21.5368 127.448 20.8695H129.047C128.83 21.5281 128.436 22.0698 127.864 22.4945C127.301 22.9105 126.599 23.1185 125.758 23.1185C125.073 23.1185 124.458 22.9668 123.912 22.6635C123.375 22.3515 122.95 21.9181 122.638 21.3635C122.335 20.8001 122.183 20.1501 122.183 19.4135C122.183 18.6768 122.33 18.0311 122.625 17.4765C122.928 16.9131 123.349 16.4798 123.886 16.1765C124.432 15.8731 125.056 15.7215 125.758 15.7215C126.434 15.7215 127.036 15.8688 127.565 16.1635C128.094 16.4581 128.505 16.8741 128.8 17.4115C129.095 17.9401 129.242 18.5511 129.242 19.2445ZM127.695 18.7765C127.686 18.2305 127.491 17.7928 127.11 17.4635C126.729 17.1341 126.256 16.9695 125.693 16.9695C125.182 16.9695 124.744 17.1341 124.38 17.4635C124.016 17.7841 123.799 18.2218 123.73 18.7765H127.695ZM134.315 15.7215C134.878 15.7215 135.381 15.8385 135.823 16.0725C136.273 16.3065 136.624 16.6531 136.876 17.1125C137.127 17.5718 137.253 18.1265 137.253 18.7765V23.0015H135.784V18.9975C135.784 18.3561 135.623 17.8665 135.303 17.5285C134.982 17.1818 134.544 17.0085 133.99 17.0085C133.435 17.0085 132.993 17.1818 132.664 17.5285C132.343 17.8665 132.183 18.3561 132.183 18.9975V23.0015H130.701V15.8385H132.183V16.6575C132.425 16.3628 132.733 16.1331 133.106 15.9685C133.487 15.8038 133.89 15.7215 134.315 15.7215ZM138.649 19.3875C138.649 18.6681 138.796 18.0311 139.091 17.4765C139.394 16.9218 139.802 16.4928 140.313 16.1895C140.833 15.8775 141.409 15.7215 142.042 15.7215C142.51 15.7215 142.969 15.8255 143.42 16.0335C143.879 16.2328 144.243 16.5015 144.512 16.8395V13.3815H146.007V23.0015H144.512V21.9225C144.269 22.2691 143.931 22.5551 143.498 22.7805C143.073 23.0058 142.584 23.1185 142.029 23.1185C141.405 23.1185 140.833 22.9625 140.313 22.6505C139.802 22.3298 139.394 21.8878 139.091 21.3245C138.796 20.7525 138.649 20.1068 138.649 19.3875ZM144.512 19.4135C144.512 18.9195 144.408 18.4905 144.2 18.1265C144.001 17.7625 143.736 17.4851 143.407 17.2945C143.078 17.1038 142.722 17.0085 142.341 17.0085C141.96 17.0085 141.604 17.1038 141.275 17.2945C140.946 17.4765 140.677 17.7495 140.469 18.1135C140.27 18.4688 140.17 18.8935 140.17 19.3875C140.17 19.8815 140.27 20.3148 140.469 20.6875C140.677 21.0601 140.946 21.3461 141.275 21.5455C141.613 21.7361 141.968 21.8315 142.341 21.8315C142.722 21.8315 143.078 21.7361 143.407 21.5455C143.736 21.3548 144.001 21.0775 144.2 20.7135C144.408 20.3408 144.512 19.9075 144.512 19.4135ZM154.519 19.2445C154.519 19.5131 154.501 19.7558 154.467 19.9725H148.994C149.037 20.5445 149.249 21.0038 149.631 21.3505C150.012 21.6971 150.48 21.8705 151.035 21.8705C151.832 21.8705 152.395 21.5368 152.725 20.8695H154.324C154.107 21.5281 153.713 22.0698 153.141 22.4945C152.577 22.9105 151.875 23.1185 151.035 23.1185C150.35 23.1185 149.735 22.9668 149.189 22.6635C148.651 22.3515 148.227 21.9181 147.915 21.3635C147.611 20.8001 147.46 20.1501 147.46 19.4135C147.46 18.6768 147.607 18.0311 147.902 17.4765C148.205 16.9131 148.625 16.4798 149.163 16.1765C149.709 15.8731 150.333 15.7215 151.035 15.7215C151.711 15.7215 152.313 15.8688 152.842 16.1635C153.37 16.4581 153.782 16.8741 154.077 17.4115C154.371 17.9401 154.519 18.5511 154.519 19.2445ZM152.972 18.7765C152.963 18.2305 152.768 17.7928 152.387 17.4635C152.005 17.1341 151.533 16.9695 150.97 16.9695C150.458 16.9695 150.021 17.1341 149.657 17.4635C149.293 17.7841 149.076 18.2218 149.007 18.7765H152.972ZM155.483 19.3875C155.483 18.6681 155.63 18.0311 155.925 17.4765C156.228 16.9218 156.636 16.4928 157.147 16.1895C157.667 15.8775 158.243 15.7215 158.876 15.7215C159.344 15.7215 159.803 15.8255 160.254 16.0335C160.713 16.2328 161.077 16.5015 161.346 16.8395V13.3815H162.841V23.0015H161.346V21.9225C161.103 22.2691 160.765 22.5551 160.332 22.7805C159.907 23.0058 159.418 23.1185 158.863 23.1185C158.239 23.1185 157.667 22.9625 157.147 22.6505C156.636 22.3298 156.228 21.8878 155.925 21.3245C155.63 20.7525 155.483 20.1068 155.483 19.3875ZM161.346 19.4135C161.346 18.9195 161.242 18.4905 161.034 18.1265C160.835 17.7625 160.57 17.4851 160.241 17.2945C159.912 17.1038 159.556 17.0085 159.175 17.0085C158.794 17.0085 158.438 17.1038 158.109 17.2945C157.78 17.4765 157.511 17.7495 157.303 18.1135C157.104 18.4688 157.004 18.8935 157.004 19.3875C157.004 19.8815 157.104 20.3148 157.303 20.6875C157.511 21.0601 157.78 21.3461 158.109 21.5455C158.447 21.7361 158.802 21.8315 159.175 21.8315C159.556 21.8315 159.912 21.7361 160.241 21.5455C160.57 21.3548 160.835 21.0775 161.034 20.7135C161.242 20.3408 161.346 19.9075 161.346 19.4135Z" fill="black"/>
</svg>
