<svg width="20" height="15" viewBox="0 0 20 15" fill="none" xmlns="http://www.w3.org/2000/svg">
<path fill-rule="evenodd" clip-rule="evenodd" d="M2.91449 0.279105C1.36613 0.407701 0.195807 1.73869 0.120433 3.37862C0.0583334 4.72982 0 6.28469 0 7.35804C0 8.44368 0.0596755 10.0219 0.122567 11.3838C0.197333 13.0027 1.34087 14.3249 2.86764 14.4739C4.55776 14.6389 7.00316 14.8049 10 14.8049C12.989 14.8049 15.4295 14.6397 17.1192 14.4752C18.6518 14.3259 19.7976 12.9952 19.8714 11.3699C19.9364 9.93611 20 8.29549 20 7.35804C20 6.43067 19.9378 4.81509 19.8735 3.39234C19.7991 1.74607 18.6269 0.406809 17.0726 0.278025C15.409 0.140197 13.0095 0.00488281 10 0.00488281C6.98273 0.00488281 4.57858 0.140902 2.91449 0.279105ZM8 4.22006L13.1556 7.35804L8 10.496V4.22006Z" fill="#007BFF"/>
</svg>
