<svg width="13" height="18" viewBox="0 0 13 18" fill="none" xmlns="http://www.w3.org/2000/svg">
<path d="M6.15904 0.478271C2.8537 0.478271 0.165344 3.16663 0.165344 6.47196C0.165344 7.66378 0.531811 8.59259 1.11478 9.50113L5.81027 16.8188C5.8476 16.8775 5.89914 16.9258 5.9601 16.9593C6.02107 16.9928 6.08949 17.0103 6.15904 17.0103C6.22858 17.0103 6.297 16.9928 6.35797 16.9593C6.41893 16.9258 6.47047 16.8775 6.50781 16.8188L11.2033 9.50113C11.7863 8.59257 12.1527 7.66378 12.1527 6.47196C12.1527 3.16663 9.46437 0.478271 6.15904 0.478271ZM6.15904 1.30499C9.01758 1.30499 11.326 3.61342 11.326 6.47196C11.326 7.50166 11.039 8.22444 10.5058 9.05546L6.15904 15.8307L1.81232 9.05546C1.27909 8.22444 0.99206 7.50166 0.99206 6.47196C0.99206 3.61342 3.3005 1.30499 6.15904 1.30499ZM6.15904 3.57846C4.56589 3.57846 3.26553 4.87882 3.26553 6.47196C3.26553 8.06509 4.56589 9.36548 6.15904 9.36548C7.75218 9.36548 9.05254 8.06509 9.05254 6.47196C9.05254 4.87882 7.75218 3.57846 6.15904 3.57846ZM6.15904 4.40517C7.30539 4.40517 8.22583 5.32561 8.22583 6.47196C8.22583 7.61829 7.30539 8.53877 6.15904 8.53877C5.01269 8.53877 4.09225 7.61829 4.09225 6.47196C4.09225 5.32561 5.01268 4.40517 6.15904 4.40517Z" fill="#080E14"/>
</svg>
