<svg width="91" height="67" viewBox="0 0 91 67" fill="none" xmlns="http://www.w3.org/2000/svg">
<path d="M74.1399 0.741004C71.5092 -0.791992 69.0878 3.61145 71.5766 5.06169C74.4518 6.73709 77.327 8.41246 80.2022 10.0879C74.1089 8.97123 68.3585 11.9334 64.1867 16.46C62.7749 15.1797 61.326 13.9761 59.8872 12.8639C56.4847 10.2338 52.4979 8.23996 48.1062 9.03075C41.3423 10.2487 38.0676 16.2888 36.5304 22.5254C28.7659 17.3873 19.7426 15.3608 11.3449 21.7588C6.08019 25.7699 2.35674 32.0958 0.392104 38.3463C-0.0925387 39.8883 4.70809 38.8788 5.22607 37.2309C8.10495 28.0716 15.5522 17.4964 26.473 21.6055C29.7088 22.823 32.8048 24.7177 35.6947 27.0293C35.6179 27.6132 35.5518 28.1895 35.4978 28.7521C34.5221 38.9237 35.7807 51.6157 42.2262 60.0598C46.0311 65.0447 57.0276 70.3876 59.8646 61.5374C61.3078 57.0355 59.1258 51.3327 57.2884 47.2595C53.95 39.8587 48.7899 33.1836 42.8829 27.6121C42.1211 26.8936 41.3356 26.1963 40.5322 25.5238C40.815 23.6964 41.1797 21.9868 41.6122 20.4532C42.3375 17.8821 43.4768 14.478 45.6739 12.7641C48.6484 10.4437 52.5375 12.9758 55.1148 14.8871C56.9318 16.2346 59.1734 18.0188 61.3898 20.0807C55.8426 28.6986 55.5867 39.9283 66.4337 41.8918C74.6893 43.3862 77.0379 35.5309 74.1947 29.3102C72.3779 25.335 69.5122 21.6869 66.287 18.4622C69.4854 14.2854 74.3094 11.7235 79.6131 13.7488C76.9814 15.1829 74.3497 16.6169 71.718 18.051C69.1721 19.4383 70.878 23.9616 73.7233 22.4111C78.8697 19.6067 84.0163 16.8022 89.1628 13.9978C90.5983 13.2157 91.0055 10.5686 89.4418 9.65743C84.3412 6.68525 79.2406 3.71312 74.1399 0.741004ZM51.4772 46.8849C53.2087 50.267 54.7691 53.9821 55.2548 57.767C55.4294 59.1273 55.6754 61.0628 55.1162 62.3831C54.4198 64.027 53.6152 63.2984 51.6108 62.1826C42.0553 56.8632 39.3038 42.6953 39.972 30.8983C44.7534 35.7332 48.737 41.5321 51.4772 46.8849ZM70.8113 36.8965C70.5014 39.8895 69.394 39.4205 66.9669 37.9639C63.3619 35.8005 61.9779 32.0909 62.3991 28.0601C62.5906 26.2272 63.1074 24.3447 63.8862 22.5574C67.9601 26.8678 71.319 31.9931 70.8113 36.8965Z" fill="#007BFF"/>
</svg>
