<svg width="18" height="19" viewBox="0 0 18 19" fill="none" xmlns="http://www.w3.org/2000/svg">
<path d="M9 0.00488281C4.02992 0.00488281 0 4.03481 0 9.00488C0 12.8178 2.37219 16.0744 5.72019 17.3853C5.64162 16.6736 5.57031 15.5808 5.75169 14.8037C5.91508 14.1017 6.80712 10.33 6.80712 10.33C6.80712 10.33 6.53781 9.79065 6.53781 8.99415C6.53781 7.74246 7.263 6.80854 8.16612 6.80854C8.93423 6.80854 9.30462 7.38523 9.30462 8.07615C9.30462 8.84877 8.81342 10.0028 8.559 11.0725C8.34681 11.9687 9.00831 12.6994 9.89169 12.6994C11.4913 12.6994 12.7208 11.0126 12.7208 8.57808C12.7208 6.42327 11.1728 4.91646 8.96192 4.91646C6.40142 4.91646 4.89842 6.83727 4.89842 8.82246C4.89842 9.59577 5.19612 10.4252 5.56823 10.8765C5.64161 10.9658 5.65235 11.0437 5.63054 11.1344C5.56235 11.4186 5.41073 12.0299 5.38062 12.1552C5.3415 12.3203 5.25011 12.3546 5.07981 12.2753C3.9555 11.752 3.25281 10.1088 3.25281 8.78854C3.25281 5.94973 5.31519 3.34215 9.19973 3.34215C12.322 3.34215 14.7482 5.56654 14.7482 8.54034C14.7482 11.6422 12.7921 14.1383 10.0779 14.1383C9.16581 14.1383 8.30873 13.6645 8.01554 13.1047C8.01554 13.1047 7.56415 14.823 7.45442 15.2443C7.25123 16.0259 6.70292 17.0062 6.33531 17.6037C7.1775 17.864 8.07231 18.0049 9 18.0049C13.9701 18.0049 18 13.975 18 9.00488C18 4.03481 13.9704 0.00488281 9 0.00488281Z" fill="#007BFF"/>
</svg>
