<svg width="17" height="17" viewBox="0 0 17 17" fill="none" xmlns="http://www.w3.org/2000/svg">
<path d="M2.48193 0.00488281C1.38768 0.00488281 0.5 0.891102 0.5 1.98535C0.5 3.0796 1.38697 3.98633 2.48047 3.98633C3.57397 3.98633 4.4624 3.0796 4.4624 1.98535C4.4624 0.891852 3.57618 0.00488281 2.48193 0.00488281ZM12.1514 5.25488C10.4871 5.25488 9.53487 6.12522 9.07812 6.99072H9.02979V5.48779H5.75V16.5049H9.16748V11.0513C9.16748 9.61427 9.27595 8.22559 11.0542 8.22559C12.8069 8.22559 12.8325 9.86409 12.8325 11.1421V16.5049H16.2456H16.25V10.4536C16.25 7.49261 15.6134 5.25488 12.1514 5.25488ZM0.772461 5.48779V16.5049H4.19287V5.48779H0.772461Z" fill="#007BFF"/>
</svg>
